<svg width="15" height="15" viewBox="0 0 15 15" fill="none" xmlns="http://www.w3.org/2000/svg">
<g clip-path="url(none)">
<path d="M12.4993 12.4819L12.55 11.4802C12.5593 11.3002 12.6747 11.1386 12.8455 11.074L13.7802 10.7163C14.1887 10.5616 14.5004 10.2316 14.6319 9.81841C14.7681 9.40526 14.7104 8.95983 14.4704 8.59515L13.9256 7.75043C13.8241 7.59809 13.8241 7.4042 13.9256 7.25188L14.4726 6.40942C14.7081 6.04477 14.7681 5.59699 14.6342 5.18153C14.498 4.76839 14.191 4.44296 13.7802 4.28605L12.8432 3.92599C12.6747 3.86367 12.5616 3.70441 12.5523 3.52438L12.4969 2.52267C12.4993 2.50187 12.4947 2.48344 12.4923 2.46264C12.4577 2.04949 12.2431 1.67789 11.9084 1.43098C11.5553 1.17938 11.1167 1.09632 10.692 1.20709L9.72036 1.46789C9.54728 1.51635 9.36262 1.45638 9.24953 1.31555L8.61713 0.53543C8.3425 0.196172 7.93395 0 7.50007 0C7.06615 0 6.65761 0.196172 6.38529 0.533145L5.75061 1.31558C5.63752 1.45635 5.45286 1.51635 5.27978 1.46792L4.30809 1.20712C3.888 1.09635 3.44488 1.17943 3.09174 1.43101C2.73859 1.69181 2.52396 2.08649 2.50319 2.5227L2.44779 3.52438C2.44316 3.70444 2.32545 3.86364 2.15696 3.92599L1.21987 4.28605C0.813672 4.44299 0.50207 4.76842 0.365898 5.18156C0.232041 5.59702 0.292041 6.04474 0.529756 6.41174L1.07907 7.25188C1.17602 7.40423 1.17602 7.59812 1.07679 7.75272L0.529785 8.59518C0.29207 8.95752 0.232041 9.40532 0.368213 9.81844C0.499785 10.2316 0.813672 10.564 1.21987 10.7163L2.15925 11.074C2.32542 11.1387 2.44085 11.3002 2.45008 11.4802L2.50088 12.482C2.50088 12.5235 2.50551 12.565 2.51239 12.6043C2.56551 12.9897 2.77319 13.3406 3.09171 13.5668C3.44485 13.8276 3.89028 13.9083 4.31034 13.7929L5.27743 13.5321C5.45286 13.486 5.63749 13.546 5.75289 13.6891L6.38529 14.4692C6.65532 14.8085 7.06387 15 7.50238 15C7.9363 15 8.34481 14.8085 8.61947 14.4692L9.24725 13.6891C9.36267 13.546 9.5473 13.486 9.7227 13.5321L10.6944 13.7929C11.1099 13.9084 11.5553 13.8276 11.9084 13.5667C12.2616 13.3151 12.4762 12.9204 12.4993 12.4819Z" fill="#E6563A"/>
<path d="M11.9085 13.5669C11.5553 13.8277 11.1099 13.9085 10.6945 13.7931L9.72276 13.5323C9.54736 13.4862 9.3627 13.5461 9.2473 13.6892L8.61953 14.4694C8.34487 14.8086 7.93633 15.0002 7.50244 15.0002C7.06393 15.0002 6.65538 14.8086 6.38535 14.4694L5.75295 13.6892C5.63752 13.5462 5.45292 13.4861 5.27749 13.5323L4.3104 13.7931C3.89034 13.9085 3.44491 13.8277 3.09177 13.5669C2.77322 13.3407 2.56554 12.9899 2.51245 12.6044L12.5017 2.61523L12.5524 3.52461C12.5616 3.70461 12.6747 3.86387 12.8432 3.92621L13.7803 4.28627C14.1911 4.44321 14.4981 4.76864 14.6343 5.18176C14.7681 5.59722 14.7081 6.04496 14.4727 6.40965L13.9257 7.25211C13.8242 7.40445 13.8241 7.59834 13.9257 7.75065L14.4704 8.59537C14.7104 8.96006 14.7682 9.40552 14.632 9.81863C14.5004 10.2318 14.1888 10.5618 13.7803 10.7165L12.8455 11.0742C12.6747 11.1389 12.5593 11.3004 12.5501 11.4804L12.4993 12.4821C12.4763 12.9206 12.2616 13.3153 11.9085 13.5669Z" fill="#D9472B"/>
<path d="M5.52023 6.82172C4.98026 6.82172 4.54102 6.38247 4.54102 5.8425C4.54102 5.30253 4.98026 4.86328 5.52023 4.86328C6.06021 4.86328 6.49945 5.30253 6.49945 5.8425C6.49945 6.38247 6.06021 6.82172 5.52023 6.82172ZM5.52023 5.84312H5.52343H5.52023ZM5.52023 5.84312H5.52343H5.52023ZM5.52023 5.84271L5.52343 5.84268L5.52023 5.84271ZM5.52023 5.84271L5.52343 5.84268L5.52023 5.84271ZM5.52023 5.84271L5.52343 5.84268L5.52023 5.84271ZM5.52023 5.84271L5.52343 5.84268L5.52023 5.84271ZM5.52023 5.84271L5.52343 5.84268L5.52023 5.84271Z" fill="#FFC033"/>
<path d="M9.11093 10.4125C8.57096 10.4125 8.13171 9.97329 8.13171 9.43332C8.13171 8.89335 8.57096 8.4541 9.11093 8.4541C9.6509 8.4541 10.0902 8.89335 10.0902 9.43332C10.0902 9.97329 9.6509 10.4125 9.11093 10.4125ZM9.11093 9.43394H9.11413H9.11093ZM9.11093 9.43394H9.11413H9.11093ZM9.11093 9.43352L9.11413 9.4335L9.11093 9.43352ZM9.11093 9.43352L9.11413 9.4335L9.11093 9.43352ZM9.11093 9.43352L9.11413 9.4335L9.11093 9.43352ZM9.11093 9.43352L9.11413 9.4335L9.11093 9.43352ZM9.11093 9.43352L9.11413 9.4335L9.11093 9.43352Z" fill="#F9A926"/>
<path d="M4.73031 10.3864C4.53917 10.1953 4.53906 9.88528 4.73031 9.69403L9.34638 5.07796C9.53763 4.88671 9.84765 4.88683 10.0388 5.07796C10.2299 5.2691 10.23 5.57911 10.0388 5.77036L5.42271 10.3864C5.23149 10.5777 4.92144 10.5776 4.73031 10.3864Z" fill="#FFC033"/>
<path d="M5.42275 10.3866L10.0388 5.77053C10.2301 5.57928 10.23 5.26926 10.0388 5.07812L4.73035 10.3866C4.92148 10.5777 5.23153 10.5778 5.42275 10.3866Z" fill="#F9A926"/>
</g>
<defs>
<clipPath id="clip0">
<rect width="15" height="15" fill="white"/>
</clipPath>
</defs>
</svg>
