<svg width="21" height="20" viewBox="0 0 21 20" fill="none" xmlns="http://www.w3.org/2000/svg">
<path d="M17.7519 1H3.24808C2.81382 1 2.38846 1.12308 2.02129 1.35497L1.99327 1.37267C1.75566 1.52274 1.55007 1.71832 1.38834 1.94815C1.13563 2.30727 1 2.73567 1 3.17479V16.8252C1 17.2643 1.13563 17.6927 1.38834 18.0518C1.55007 18.2817 1.75566 18.4773 1.99327 18.6273L2.02129 18.645C2.38846 18.8769 2.81382 19 3.24808 19H17.7519C18.1862 19 18.6115 18.8769 18.9787 18.645L19.0067 18.6273C19.2443 18.4773 19.4499 18.2817 19.6117 18.0518C19.8644 17.6927 20 17.2643 20 16.8252V14.8V5.5V3.17479C20 2.73567 19.8644 2.30727 19.6117 1.94815C19.4499 1.71832 19.2443 1.52274 19.0067 1.37267L18.9787 1.35497C18.6115 1.12308 18.1862 1 17.7519 1Z" stroke="black" stroke-width="0.8"/>
<ellipse cx="5.43437" cy="5.80039" rx="0.95" ry="0.9" fill="black"/>
<ellipse cx="5.43437" cy="9.99961" rx="0.95" ry="0.9" fill="black"/>
<ellipse cx="5.43437" cy="14.1998" rx="0.95" ry="0.9" fill="black"/>
<rect x="8.91797" y="13.9004" width="7.6" height="1.2" rx="0.6" fill="black"/>
<rect x="8.91797" y="9.69922" width="7.6" height="1.2" rx="0.6" fill="black"/>
<rect x="8.91797" y="5.5" width="7.6" height="1.2" rx="0.6" fill="black"/>
</svg>
