<svg width="65" height="65" viewBox="0 0 65 65" fill="none" xmlns="http://www.w3.org/2000/svg">
<path d="M65 34.6769C65 51.4238 51.6188 64.9999 35.1128 64.9999C18.6068 64.9999 5.22656 51.4238 5.22656 34.6769C5.22656 17.9301 18.6068 4.354 35.1128 4.354C51.6188 4.354 65 17.9301 65 34.6769Z" fill="#EDC951"/>
<path d="M45.3403 23.4841C45.3403 25.5099 43.7223 27.1517 41.7258 27.1517C39.7284 27.1517 38.1094 25.5099 38.1094 23.4841C38.1094 21.4582 39.7284 19.8164 41.7258 19.8164C43.7223 19.8164 45.3403 21.4582 45.3403 23.4841Z" fill="black"/>
<path d="M24.5513 23.4841C24.5513 25.5099 22.9332 27.1517 20.9358 27.1517C18.9393 27.1517 17.3203 25.5099 17.3203 23.4841C17.3203 21.4582 18.9393 19.8164 20.9358 19.8164C22.9332 19.8164 24.5513 21.4582 24.5513 23.4841Z" fill="black"/>
<path d="M34.1435 50.6576H29.1226C22.7627 50.6576 17.5898 45.472 17.5898 39.0982C17.5898 38.2627 18.2563 37.5864 19.0797 37.5864C19.9022 37.5864 20.5696 38.2627 20.5696 39.0982C20.5696 43.8846 24.3261 47.6339 29.1226 47.6339H34.1435C38.939 47.6339 42.6965 43.9471 42.6965 39.2393C42.6965 38.4038 43.363 37.7275 44.1864 37.7275C45.0088 37.7275 45.6763 38.4038 45.6763 39.2393C45.6763 45.6424 40.6107 50.6576 34.1435 50.6576Z" fill="black"/>
<path d="M31.3771 63.6685C14.0755 63.6685 0 49.3879 0 31.8337C0 14.2806 14.0755 0 31.3771 0C48.6777 0 62.7542 14.2806 62.7542 31.8337C62.7542 49.3879 48.6777 63.6685 31.3771 63.6685ZM31.3771 3.02362C15.7184 3.02362 2.97978 15.9476 2.97978 31.8337C2.97978 47.7209 15.7184 60.6458 31.3771 60.6458C47.0349 60.6458 59.7744 47.7209 59.7744 31.8337C59.7744 15.9476 47.0349 3.02362 31.3771 3.02362Z" fill="black"/>
</svg>
