<svg width="24" height="24" viewBox="0 0 24 24" fill="none" xmlns="http://www.w3.org/2000/svg">
<g clip-path="url(#clip0)">
<path d="M4 0V24H18L24 18V0H4Z" fill="#EFEEEE"/>
<path d="M18 18V24L24 18H18Z" fill="#ABABAB"/>
<path d="M12 24H18V18L12 24Z" fill="#DEDEDD"/>
<path d="M0 6V13H16V6H0Z" fill="#448E47"/>
<path d="M4.01994 8.13216C3.94594 7.98916 3.81094 7.91816 3.61494 7.91816C3.50694 7.91816 3.41794 7.94716 3.34794 8.00616C3.27794 8.06416 3.22294 8.15716 3.18294 8.28716C3.14294 8.41716 3.11494 8.58716 3.09894 8.79816C3.08194 9.00816 3.07494 9.26516 3.07494 9.56916C3.07494 9.89316 3.08594 10.1552 3.10794 10.3552C3.12894 10.5552 3.16394 10.7092 3.20994 10.8202C3.25594 10.9312 3.31394 11.0052 3.38394 11.0422C3.45394 11.0802 3.53494 11.1002 3.62694 11.1002C3.70294 11.1002 3.77394 11.0872 3.83994 11.0612C3.90594 11.0352 3.96294 10.9832 4.01094 10.9052C4.05994 10.8272 4.09794 10.7172 4.12494 10.5752C4.15294 10.4332 4.16694 10.2462 4.16694 10.0142H5.02994C5.02994 10.2452 5.01194 10.4662 4.97594 10.6742C4.93994 10.8822 4.87194 11.0642 4.77494 11.2202C4.67594 11.3752 4.53894 11.4972 4.36094 11.5852C4.18294 11.6732 3.95194 11.7182 3.66794 11.7182C3.34494 11.7182 3.08594 11.6652 2.89494 11.5622C2.70294 11.4582 2.55594 11.3082 2.45394 11.1122C2.35194 10.9162 2.28594 10.6822 2.25594 10.4102C2.22694 10.1392 2.21094 9.83816 2.21094 9.51116C2.21094 9.18716 2.22694 8.88816 2.25594 8.61416C2.28594 8.34116 2.35294 8.10516 2.45394 7.90916C2.55694 7.71416 2.70294 7.56016 2.89494 7.45016C3.08594 7.34116 3.34494 7.28516 3.66794 7.28516C3.97694 7.28516 4.21894 7.33516 4.39694 7.43516C4.57494 7.53516 4.70794 7.66216 4.79494 7.81616C4.88194 7.97016 4.93894 8.13616 4.95994 8.31416C4.98194 8.49216 4.99294 8.65916 4.99294 8.81516H4.12994C4.12994 8.50016 4.09294 8.27316 4.01994 8.13216Z" fill="white"/>
<path d="M6.81712 10.4372C6.81712 10.5372 6.82612 10.6282 6.84112 10.7092C6.85812 10.7912 6.88712 10.8602 6.93112 10.9162C6.97512 10.9732 7.03512 11.0172 7.10912 11.0492C7.18212 11.0802 7.27612 11.0972 7.38712 11.0972C7.52012 11.0972 7.63812 11.0542 7.74412 10.9682C7.84912 10.8822 7.90312 10.7482 7.90312 10.5692C7.90312 10.4732 7.88912 10.3902 7.86412 10.3202C7.83812 10.2502 7.79512 10.1872 7.73512 10.1322C7.67412 10.0752 7.59512 10.0252 7.49812 9.97925C7.40112 9.93325 7.27912 9.88625 7.13512 9.83825C6.94412 9.77425 6.77812 9.70325 6.63712 9.62725C6.49712 9.55225 6.38012 9.46325 6.28612 9.36025C6.19212 9.25825 6.12312 9.14025 6.07912 9.00625C6.03512 8.87125 6.01312 8.71725 6.01312 8.54025C6.01312 8.11625 6.13112 7.80125 6.36712 7.59325C6.60212 7.38525 6.92712 7.28125 7.33912 7.28125C7.53112 7.28125 7.70812 7.30225 7.87012 7.34425C8.03212 7.38625 8.17212 7.45325 8.29012 7.54825C8.40812 7.64225 8.50012 7.76225 8.56612 7.90725C8.63112 8.05325 8.66512 8.22825 8.66512 8.43225V8.55225H7.83812C7.83812 8.34825 7.80212 8.19125 7.73112 8.08025C7.65912 7.97125 7.53912 7.91525 7.37112 7.91525C7.27512 7.91525 7.19512 7.93025 7.13112 7.95725C7.06812 7.98525 7.01612 8.02225 6.97812 8.06825C6.94012 8.11425 6.91312 8.16925 6.89912 8.22925C6.88412 8.28925 6.87812 8.35125 6.87812 8.41525C6.87812 8.54825 6.90612 8.65825 6.96212 8.74825C7.01812 8.83925 7.13812 8.92225 7.32212 8.99725L7.98812 9.28525C8.15212 9.35725 8.28612 9.43225 8.38912 9.51125C8.49312 9.58925 8.57712 9.67325 8.63812 9.76325C8.70012 9.85325 8.74312 9.95125 8.76712 10.0602C8.79112 10.1672 8.80312 10.2882 8.80312 10.4192C8.80312 10.8712 8.67212 11.2002 8.41012 11.4062C8.14812 11.6122 7.78312 11.7162 7.31512 11.7162C6.82712 11.7162 6.47812 11.6102 6.26712 11.3982C6.05713 11.1862 5.95312 10.8822 5.95312 10.4862V10.3122H6.81712V10.4372Z" fill="white"/>
<path d="M11.0836 10.5332H11.1026L11.7386 7.36523H12.6336L11.6496 11.6492H10.5396L9.55664 7.36523H10.4806L11.0836 10.5332Z" fill="white"/>
</g>
<defs>
<clipPath id="clip0">
<rect width="24" height="24" fill="white"/>
</clipPath>
</defs>
</svg>
