<svg width="24" height="24" viewBox="0 0 24 24" fill="none" xmlns="http://www.w3.org/2000/svg">
<path d="M12.387 23.1438C12.387 23.3761 12.2321 23.5696 11.9999 23.5696C11.7676 23.5696 11.6128 23.3761 11.6128 23.1438V16.5244C11.6128 16.2922 11.7676 16.0986 11.9999 16.0986C12.2321 16.0986 12.387 16.2922 12.387 16.5244V23.1438Z" fill="#9B9B9B"/>
<path d="M23.9999 11.6078C23.9999 11.8401 23.845 11.9949 23.6128 11.9949H17.0321C16.7999 11.9949 16.645 11.8401 16.645 11.6078C16.645 11.3755 16.7999 11.2207 17.0321 11.2207H23.6128C23.845 11.2207 23.9999 11.3755 23.9999 11.6078Z" fill="#D6D6D6"/>
<path d="M7.35484 11.6078C7.35484 11.8401 7.2 11.9949 6.96774 11.9949H0.387097C0.154839 11.9949 0 11.8401 0 11.6078C0 11.3755 0.154839 11.2207 0.387097 11.2207H6.96774C7.2 11.2207 7.35484 11.3755 7.35484 11.6078Z" fill="#515151"/>
<path d="M15.7935 8.35672C15.6386 8.51156 15.3676 8.51156 15.2128 8.35672C15.058 8.20189 15.058 7.93092 15.2128 7.77608L19.8967 3.0922C20.0515 2.93736 20.3225 2.93736 20.4773 3.0922C20.6322 3.24704 20.6322 3.51801 20.4773 3.67285L15.7935 8.35672Z" fill="#EDEDED"/>
<path d="M4.10254 20.0466C3.9477 20.2015 3.67673 20.2015 3.52189 20.0466C3.36705 19.8918 3.36705 19.6208 3.52189 19.466L8.20576 14.7821C8.3606 14.6273 8.63157 14.6273 8.78641 14.7821C8.94124 14.937 8.94124 15.2079 8.78641 15.3628L4.10254 20.0466Z" fill="#7A7A7A"/>
<path d="M15.2128 15.3628C15.058 15.2079 15.058 14.937 15.2128 14.7821C15.3676 14.6273 15.6386 14.6273 15.7935 14.7821L20.4773 19.466C20.6322 19.6208 20.6322 19.8918 20.4773 20.0466C20.3225 20.2015 20.0515 20.2015 19.8967 20.0466L15.2128 15.3628Z" fill="#BFBFBF"/>
<path d="M3.52189 3.63414C3.36705 3.4793 3.36705 3.24704 3.52189 3.0922C3.67673 2.93736 3.9477 2.93736 4.10254 3.0922L8.78641 7.77608C8.94124 7.93092 8.94124 8.20189 8.78641 8.35672C8.63157 8.51156 8.3606 8.51156 8.20576 8.35672L3.52189 3.63414Z" fill="#2B2B2B"/>
<path d="M14.2838 7.11737C14.1677 7.34963 13.9354 7.42705 13.7419 7.34963C13.5483 7.27221 13.4322 7.03995 13.5096 6.8077L16.0257 0.691567C16.1031 0.498018 16.3354 0.381889 16.5677 0.459309C16.7612 0.536728 16.8773 0.768986 16.7999 1.00124L14.2838 7.11737Z" fill="#F4F4F4"/>
<path d="M7.97423 22.447C7.89681 22.6405 7.66455 22.7567 7.43229 22.6792C7.23874 22.6018 7.12261 22.3696 7.20003 22.1373L9.71616 16.0212C9.79358 15.8276 10.0258 15.7115 10.2581 15.7889C10.4516 15.8663 10.5678 16.0986 10.4904 16.3308L7.97423 22.447Z" fill="#898989"/>
<path d="M16.4513 13.8146C16.2578 13.7371 16.1417 13.5049 16.2191 13.2726C16.2965 13.0791 16.5288 12.9629 16.761 13.0404L22.8771 15.5565C23.0707 15.6339 23.1868 15.8662 23.1094 16.0984C23.032 16.292 22.7997 16.4081 22.5675 16.3307L16.4513 13.8146Z" fill="#CCCCCC"/>
<path d="M1.12272 7.50499C0.929171 7.42757 0.813042 7.19531 0.890461 6.96305C0.96788 6.7695 1.20014 6.65337 1.4324 6.73079L7.54853 9.28563C7.74207 9.36305 7.8582 9.5953 7.78078 9.82756C7.70336 10.0211 7.47111 10.1372 7.23885 10.0598L1.12272 7.50499Z" fill="#3F3F3F"/>
<path d="M16.7228 10.0207C16.5293 10.0981 16.297 10.0207 16.1809 9.78841C16.1035 9.59486 16.1809 9.32389 16.4131 9.24647L22.5293 6.69163C22.7228 6.61421 22.9938 6.69163 23.0712 6.92389C23.1486 7.11744 23.0712 7.3884 22.839 7.46582L16.7228 10.0207Z" fill="#E2E2E2"/>
<path d="M1.47136 16.4079C1.27781 16.4853 1.00684 16.4079 0.929423 16.1756C0.852004 15.9821 0.929423 15.7111 1.16168 15.6337L7.27781 13.0788C7.47136 13.0014 7.70362 13.0788 7.81974 13.3111C7.89716 13.5046 7.81974 13.7756 7.58749 13.853L1.47136 16.4079Z" fill="#6D6D6D"/>
<path d="M13.5481 16.2917C13.4707 16.0981 13.5481 15.8659 13.7803 15.7497C13.9739 15.6723 14.2448 15.7497 14.3223 15.982L16.8771 22.0981C16.9545 22.2917 16.8771 22.5626 16.6448 22.6401C16.4513 22.7175 16.1803 22.6401 16.1029 22.4078L13.5481 16.2917Z" fill="#ADADAD"/>
<path d="M7.16136 1.00163C7.08394 0.808084 7.16136 0.537116 7.39361 0.459696C7.58716 0.382277 7.85813 0.459696 7.93555 0.691954L10.4517 6.80808C10.5291 7.00163 10.4517 7.2726 10.2194 7.35002C10.0259 7.42744 9.7549 7.35002 9.67748 7.11776L7.16136 1.00163Z" fill="#0C0C0C"/>
</svg>
