<svg width="18" height="18" viewBox="0 0 18 18" fill="none" xmlns="http://www.w3.org/2000/svg">
<g clip-path="url(none)">
<path d="M13.5429 1.75781L11.9891 0.860642C11.2792 0.450761 10.3682 0.694876 9.95835 1.40478C9.57246 2.07325 3.67826 12.2832 3.28435 12.9655C3.2424 13.0382 3.2244 13.1246 3.23069 13.2028L3.5046 16.6759C3.51523 16.8105 3.59142 16.9313 3.7084 16.9989C3.82551 17.0665 3.96824 17.072 4.09 17.0139L7.23441 15.5146C7.30705 15.4798 7.37183 15.4209 7.41308 15.3494L14.0871 3.78871C14.4979 3.07713 14.2546 2.1687 13.5429 1.75781ZM4.27543 16.0166L4.10974 13.9157L6.17758 15.1097L4.27543 16.0166ZM6.90776 14.584L4.19983 13.0205L9.90753 3.13357L12.6155 4.69713L6.90776 14.584ZM13.3767 3.37856L13.0256 3.98674L10.3177 2.42318L10.6687 1.815C10.8524 1.49679 11.2607 1.38736 11.579 1.5711L13.1328 2.46827C13.4518 2.65243 13.5608 3.05955 13.3767 3.37856Z" fill="black"/>
</g>
</svg>
