<svg width="70" height="70" viewBox="0 0 70 70" fill="none" xmlns="http://www.w3.org/2000/svg">
<g clip-path="url(#clip0)">
<path d="M42.6562 14.2188L49.2188 6.5625L43.75 1.09375H68.9062V24.0625L63.4375 19.6875L56.875 26.25L42.6562 14.2188Z" fill="#F9E48A"/>
<path d="M53.5938 18.5938H36.0938L19.6875 35L20.7812 43.75L16.4062 48.125L22.6625 54.1915L27.3438 50.3125L36.0938 52.5L53.5938 35V18.5938Z" fill="#169BD6"/>
<path d="M53.5938 18.5938H36.0938L19.6875 35L20.7812 43.75L16.4062 48.125L22.6625 54.1915L27.3438 50.3125L36.0938 52.5L53.5938 35V18.5938Z" fill="#169BD6"/>
<path d="M41.5545 39.1165C44.1713 36.6084 44.2595 32.4539 41.7514 29.8371C39.2433 27.2203 35.0888 27.1321 32.472 29.6402C29.8552 32.1483 29.7671 36.3028 32.2751 38.9196C34.7832 41.5364 38.9377 41.6245 41.5545 39.1165Z" fill="#3DFAFF"/>
<path d="M33.9062 20.7812H26.25L17.5 29.5312L24.0625 30.625L33.9062 20.7812Z" fill="#0C8CC4"/>
<path d="M51.4062 37.1875V44.8438L41.5625 54.6875L40.4688 48.125L51.4062 37.1875Z" fill="#0C8CC4"/>
<path d="M6.5625 68.9063L22.6625 54.1915L16.6087 47.8737L1.09375 62.3438V68.9063H6.5625Z" fill="#F4B651"/>
<path d="M36.3408 18.5938C40.3232 19.9272 43.9565 22.1354 46.9743 25.0562C49.8552 27.8686 52.1106 31.2569 53.5935 35V18.5938H36.3408Z" fill="#56CBF4"/>
<path d="M1.09375 33.9062L29.5312 7.65625L26.25 3.28125H38.2812L36.0938 15.3125L32.8125 10.9375L1.09375 41.5625V33.9062Z" fill="#F7D74F"/>
<path d="M31.7188 68.9062L60.1562 42.6562L56.875 38.2812H68.9062L66.7188 50.3125L63.4375 45.9375L39.375 68.9062H31.7188Z" fill="#F7D74F"/>
<path opacity="0.3" d="M36.3411 18.5938H36.0938L19.6875 35L20.7812 43.75L16.4062 48.125L19.4683 51.0941L53.5938 18.5938H36.3411Z" fill="#FAFBFC"/>
<path d="M37.0113 42.0375C38.7747 42.036 40.4834 41.4256 41.8487 40.3095C43.2139 39.1934 44.1518 37.64 44.5037 35.9121C44.8557 34.1842 44.6002 32.3878 43.7803 30.8266C42.9604 29.2654 41.6266 28.0352 40.0043 27.3441C38.3819 26.6529 36.5707 26.5433 34.8769 27.0336C33.183 27.524 31.7105 28.5842 30.7083 30.0351C29.706 31.486 29.2356 33.2385 29.3765 34.9962C29.5175 36.754 30.2611 38.4091 31.4817 39.6818C32.1959 40.4284 33.0542 41.0221 34.0048 41.4271C34.9553 41.832 35.9781 42.0397 37.0113 42.0375ZM33.2261 30.4362C34.007 29.6879 34.9924 29.188 36.0575 28.9996C37.1226 28.8113 38.2196 28.943 39.2098 29.3782C40.2 29.8133 41.039 30.5323 41.6206 31.4443C42.2021 32.3562 42.5002 33.4202 42.4772 34.5015C42.4541 35.5829 42.1109 36.6331 41.4909 37.5194C40.8709 38.4057 40.0021 39.0883 38.9942 39.4808C37.9863 39.8733 36.8847 39.9581 35.8286 39.7245C34.7725 39.4909 33.8094 38.9494 33.0611 38.1685C32.5619 37.6512 32.17 37.0402 31.9079 36.3708C31.6458 35.7014 31.5188 34.9867 31.5342 34.268C31.5495 33.5493 31.7069 32.8407 31.9973 32.1831C32.2876 31.5254 32.7053 30.9317 33.2261 30.4362Z" fill="black"/>
<path d="M1.8398 63.1438L16.3593 49.6026L21.0671 54.168L5.8242 68.099L7.30076 69.7136L23.3803 55.0172L27.6154 51.5079L35.8284 53.5611C36.0116 53.6071 36.2036 53.6048 36.3857 53.5545C36.5678 53.5042 36.7338 53.4076 36.8674 53.274L39.8568 50.2847L40.4791 54.8363C40.5067 55.0381 40.5901 55.2282 40.7199 55.3852C40.8497 55.5421 41.0208 55.6597 41.2138 55.7247C41.4068 55.7897 41.6142 55.7995 41.8125 55.753C42.0108 55.7065 42.1921 55.6056 42.3362 55.4615L52.1799 45.6178C52.2815 45.5161 52.362 45.3955 52.417 45.2627C52.4719 45.1299 52.5001 44.9875 52.5 44.8438V37.6405L54.3671 35.7734C54.5722 35.5683 54.6875 35.2901 54.6875 35.0001V18.5938C54.6875 18.3037 54.5722 18.0255 54.3671 17.8204C54.162 17.6153 53.8838 17.5001 53.5937 17.5001H36.5128C36.4659 17.4848 36.4194 17.4678 36.3725 17.4526L36.3572 17.5001H36.0937C35.9501 17.5001 35.8079 17.5284 35.6752 17.5833C35.5425 17.6383 35.4219 17.7188 35.3203 17.8204L33.4533 19.6876H26.25C26.1063 19.6876 25.9641 19.7159 25.8314 19.7708C25.6987 19.8258 25.5781 19.9063 25.4766 20.0079L16.7266 28.7579C16.5808 28.9037 16.4792 29.0877 16.4335 29.2887C16.3878 29.4897 16.3998 29.6996 16.4682 29.8941C16.5365 30.0886 16.6585 30.2598 16.82 30.3879C16.9814 30.5161 17.1758 30.596 17.3808 30.6185L22.0143 31.1266L18.9142 34.2267C18.7964 34.3444 18.7071 34.4876 18.6531 34.6451C18.599 34.8026 18.5817 34.9704 18.6023 35.1357L19.6298 43.355L15.886 47.0987L15.8629 47.074L0.347656 61.5439L1.8398 63.1438ZM50.3125 44.3909L42.3477 52.3557L41.7989 48.3418L50.3125 39.828V44.3909ZM52.5 19.6876V30.3164C49.862 25.8542 46.0731 22.1832 41.5298 19.6876H52.5ZM19.8856 28.6926L26.7029 21.8751H31.2656L23.9973 29.1435L19.8856 28.6926ZM21.5546 44.5235C21.6724 44.4057 21.7617 44.2626 21.8158 44.1051C21.8698 43.9475 21.8872 43.7797 21.8665 43.6145L20.8391 35.3952L36.447 19.7874C39.9864 21.0383 43.2249 23.016 45.9543 25.5933C48.6836 28.1707 50.8434 31.2906 52.2949 34.7526L35.7582 51.2887L27.6091 49.2516C27.4426 49.21 27.2687 49.2081 27.1014 49.2461C26.9341 49.2841 26.7781 49.3609 26.6459 49.4704L22.7199 52.7243L17.9648 48.113L21.5546 44.5235Z" fill="black"/>
<path d="M69.9999 1.09375C69.9999 0.803669 69.8847 0.52547 69.6795 0.320352C69.4744 0.115234 69.1962 7.26468e-10 68.9061 7.26468e-10L43.7499 7.26468e-10C43.5335 -7.88204e-06 43.3221 0.0641352 43.1422 0.184317C42.9623 0.3045 42.8221 0.475323 42.7393 0.675185C42.6565 0.875046 42.6349 1.09497 42.6771 1.30714C42.7193 1.51931 42.8235 1.7142 42.9764 1.86717L47.7284 6.61965L41.8257 13.5069L43.4865 14.9305L50.0491 7.27426C50.2284 7.06504 50.3221 6.79585 50.3116 6.5205C50.301 6.24515 50.1869 5.98393 49.992 5.78908L46.3905 2.1875H67.8124V21.7868L64.121 18.8337C63.9108 18.6656 63.646 18.5808 63.3773 18.5957C63.1085 18.6106 62.8547 18.724 62.6644 18.9144L56.1019 25.4769L57.6486 27.0236L63.5189 21.1533L68.2225 24.9166C68.3834 25.0454 68.5774 25.1261 68.7822 25.1495C68.9869 25.1728 69.1941 25.1379 69.3799 25.0486C69.5656 24.9593 69.7224 24.8194 69.8321 24.645C69.9418 24.4705 69.9999 24.2686 69.9999 24.0625V1.09375Z" fill="black"/>
<path d="M1.83572 34.7099L30.2732 8.45988C30.4722 8.2762 30.596 8.02523 30.6206 7.75555C30.6452 7.48587 30.5688 7.21665 30.4064 7L28.4376 4.375H36.9708L35.4659 12.6522L33.6876 10.2812C33.5936 10.1559 33.4737 10.0522 33.3362 9.97717C33.1986 9.90216 33.0465 9.85759 32.8902 9.84648C32.7338 9.83537 32.577 9.85798 32.4302 9.91277C32.2833 9.96757 32.15 10.0533 32.0392 10.1641L26.5705 15.6328L28.1172 17.1795L32.6942 12.6025L35.2189 15.9687C35.3466 16.139 35.5211 16.2683 35.7212 16.3408C35.9212 16.4133 36.1381 16.4259 36.3452 16.377C36.5523 16.3281 36.7406 16.2199 36.8871 16.0655C37.0336 15.9112 37.1319 15.7175 37.17 15.5081L39.3575 3.47689C39.3862 3.31927 39.3798 3.15728 39.339 3.00238C39.2981 2.84747 39.2238 2.70342 39.1211 2.58043C39.0185 2.45743 38.89 2.35849 38.7449 2.29059C38.5998 2.22269 38.4416 2.1875 38.2814 2.1875H26.2501C26.047 2.1875 25.8479 2.24406 25.6751 2.35085C25.5023 2.45764 25.3627 2.61043 25.2719 2.79211C25.181 2.97379 25.1426 3.17717 25.1608 3.37947C25.179 3.58178 25.2533 3.775 25.3751 3.9375L28.0638 7.5224L0.352051 33.1026L1.83572 34.7099Z" fill="black"/>
<path d="M0.36377 40.739L11.2969 30.8947L12.7604 32.52L1.82721 42.3643L0.36377 40.739Z" fill="black"/>
<path d="M32.4607 69.7099L60.8982 43.4599C61.0972 43.2762 61.221 43.0252 61.2456 42.7556C61.2702 42.4859 61.1939 42.2167 61.0314 42L59.0626 39.375H67.5958L66.0909 47.6522L64.3126 45.2813C64.2199 45.1576 64.102 45.055 63.9667 44.9802C63.8315 44.9055 63.6819 44.8602 63.5278 44.8474C63.3738 44.8347 63.2188 44.8547 63.0731 44.9063C62.9274 44.9578 62.7942 45.0396 62.6824 45.1463L38.6199 68.1151L40.1304 69.6973L63.3017 47.5792L65.8439 50.9687C65.9716 51.139 66.1461 51.2683 66.3462 51.3408C66.5462 51.4133 66.7631 51.4259 66.9702 51.377C67.1773 51.3281 67.3656 51.2199 67.5121 51.0655C67.6586 50.9112 67.7569 50.7175 67.795 50.5081L69.9825 38.4769C70.0112 38.3193 70.0048 38.1573 69.964 38.0024C69.9231 37.8475 69.8488 37.7034 69.7461 37.5804C69.6435 37.4574 69.515 37.3585 69.3699 37.2906C69.2248 37.2227 69.0666 37.1875 68.9064 37.1875H56.8751C56.672 37.1875 56.4729 37.2441 56.3001 37.3509C56.1273 37.4576 55.9877 37.6104 55.8969 37.7921C55.806 37.9738 55.7676 38.1772 55.7858 38.3795C55.804 38.5818 55.8783 38.775 56.0001 38.9375L58.6888 42.5224L30.9771 68.1025L32.4607 69.7099Z" fill="black"/>
</g>
<defs>
<clipPath id="clip0">
<rect width="70" height="70" fill="white"/>
</clipPath>
</defs>
</svg>
