<svg width="7" height="7" viewBox="0 0 7 7" fill="none" xmlns="http://www.w3.org/2000/svg">
<path d="M3.11353 3.50074L0.0803299 0.467534C-0.0264606 0.360743 -0.0264606 0.187603 0.0803299 0.0808255C0.187121 -0.0259516 0.360261 -0.0259653 0.467039 0.0808255L3.50025 3.11403L6.53344 0.0808255C6.64023 -0.0259653 6.81337 -0.0259653 6.92015 0.0808255C7.02693 0.187616 7.02694 0.360757 6.92015 0.467534L3.88696 3.50073L6.92015 6.53394C7.02694 6.64073 7.02694 6.81387 6.92015 6.92065C6.86676 6.97403 6.79678 7.00072 6.72679 7.00072C6.6568 7.00072 6.58683 6.97403 6.53343 6.92065L3.50025 3.88745L0.467052 6.92065C0.413663 6.97403 0.343678 7.00072 0.273691 7.00072C0.203705 7.00072 0.133732 6.97403 0.0803299 6.92065C-0.0264606 6.81385 -0.0264606 6.64071 0.0803299 6.53394L3.11353 3.50074Z" fill="black"/>
</svg>
