<svg width="19" height="19" viewBox="0 0 19 19" fill="none" xmlns="http://www.w3.org/2000/svg">
<g clip-path="url(#clip0)">
<path d="M16.7711 13.8845H5.78992C5.53468 13.8845 5.31328 13.7083 5.25588 13.4596L2.48707 1.46141H0.548068C0.245404 1.46141 0 1.216 0 0.91334C0 0.610676 0.245404 0.365234 0.548068 0.365234H2.92307C3.17831 0.365234 3.3997 0.541393 3.45711 0.790063L6.22591 12.7883H16.7711C17.0738 12.7883 17.3192 13.0337 17.3192 13.3364C17.3192 13.6391 17.0738 13.8845 16.7711 13.8845Z" fill="#DA8B69"/>
<path d="M18.8818 2.76328C18.7778 2.63328 18.6204 2.55762 18.4538 2.55762H3.43089C3.26386 2.55762 3.10596 2.63377 3.00198 2.7645C2.898 2.89524 2.8593 3.0662 2.89685 3.22893L4.58325 10.5366C4.64066 10.7853 4.86209 10.9614 5.11729 10.9614H16.8096C17.066 10.9614 17.2881 10.7838 17.3443 10.5337L18.9886 3.22599C19.0251 3.06353 18.9858 2.89331 18.8818 2.76328Z" fill="#FF8616"/>
<path d="M8.03696 14.6152C6.92888 14.6152 6.02734 15.5167 6.02734 16.6249C6.02734 17.7329 6.92884 18.6345 8.03696 18.6345C9.14509 18.6345 10.0466 17.733 10.0466 16.6249C10.0466 15.5168 9.14509 14.6152 8.03696 14.6152Z" fill="#DA8B69"/>
<path d="M14.6151 14.6155C13.507 14.6155 12.6055 15.517 12.6055 16.6251C12.6055 17.7332 13.507 18.6347 14.6151 18.6347C15.7232 18.6347 16.6247 17.7332 16.6247 16.6251C16.6247 15.517 15.7232 14.6155 14.6151 14.6155Z" fill="#C67A4F"/>
<path d="M16.7711 12.7883H9.5V13.8845H16.7711C17.0738 13.8845 17.3192 13.6391 17.3192 13.3364C17.3192 13.0337 17.0738 12.7883 16.7711 12.7883Z" fill="#C67A4F"/>
<path d="M18.4519 2.55786H9.5V10.9617H16.8077C17.0641 10.9617 17.2862 10.784 17.3424 10.534L18.9867 3.22628C19.0232 3.06381 18.9839 2.89359 18.8799 2.76356C18.7759 2.63353 18.6185 2.55786 18.4519 2.55786Z" fill="#DD6A00"/>
</g>
<defs>
<clipPath id="clip0">
<rect width="19" height="19" fill="white"/>
</clipPath>
</defs>
</svg>
