<svg width="19" height="20" viewBox="0 0 21 20" fill="none" xmlns="http://www.w3.org/2000/svg">
<path d="M20.0081 0.100031C20.2628 0.0279887 20.5357 0.110344 20.708 0.311129C20.8804 0.511915 20.9206 0.794062 20.8098 1.03585L12.7283 18.7064C12.6867 18.7976 12.6269 18.8758 12.5538 18.9385C12.4024 19.0685 12.1956 19.1297 11.9888 19.0909C11.6841 19.036 11.4544 18.7788 11.4347 18.4684L10.7975 8.82002L1.35661 6.73018M20.0081 0.100031L1.31814 5.41455C1.0219 5.50076 0.817076 5.77677 0.826163 6.08736C0.83422 6.39882 1.05273 6.66375 1.35661 6.73018M20.0081 0.100031L20.1448 0.580966L20.1445 0.581054C20.2117 0.562227 20.2832 0.583858 20.3287 0.636837C20.374 0.68959 20.3847 0.763244 20.3552 0.827577L20.3551 0.8279L12.2736 18.4984L12.2734 18.4989C12.2625 18.5227 12.2473 18.5427 12.2281 18.5592C12.1872 18.5942 12.1329 18.6092 12.0811 18.5995L12.0775 18.5988C11.9992 18.5847 11.9388 18.5176 11.9337 18.4368L11.9336 18.4355L11.2964 8.78707L11.2717 8.41289L10.9055 8.33184L1.46467 6.242L1.46467 6.242L1.46339 6.24172C1.38509 6.2246 1.32812 6.15655 1.326 6.07443L1.326 6.07443L1.32595 6.07274C1.32364 5.99372 1.37641 5.91883 1.45684 5.89493L1.45489 5.89548L1.31814 5.41455L1.45785 5.89463L20.1441 0.581161L20.0081 0.100031ZM1.35661 6.73018L1.35661 6.73017L1.35661 6.73018Z" stroke="black"/>
</svg>
