  <svg width="34" height="34" viewBox="0 0 34 34" fill="none" xmlns="http://www.w3.org/2000/svg">
    <g clip-path="url(#clip0)">
    <path d="M1.41023 16.3873L1.41024 16.3873L1.41019 16.3856C1.40549 16.2249 1.51208 16.0774 1.67039 16.0308C1.67078 16.0306 1.67116 16.0305 1.67155 16.0304L25.2763 9.31838C25.2764 9.31834 25.2766 9.3183 25.2767 9.31825C25.4109 9.28051 25.5542 9.32382 25.645 9.42961C25.7357 9.5352 25.7569 9.6831 25.6983 9.81107L25.6981 9.81139L15.49 32.1321L15.4898 32.1325C15.468 32.1803 15.437 32.2209 15.3985 32.2539C15.3178 32.3232 15.2092 32.3543 15.1028 32.3343L15.0993 32.3337C14.9407 32.3051 14.8199 32.1703 14.8096 32.0078L14.8095 32.0065L14.0047 19.819L13.9799 19.4448L13.6138 19.3638L1.6885 16.724L1.6885 16.724L1.68722 16.7237C1.52895 16.6891 1.41448 16.5514 1.41023 16.3873Z" stroke="black"/>
    </g>
    <defs>
    <clipPath id="clip0">
    <rect width="24" height="24" fill="white" transform="translate(0 15.634) rotate(-40.6483)"/>
    </clipPath>
    </defs>
    </svg>