<svg width="28" height="34" viewBox="0 0 28 34" fill="none" xmlns="http://www.w3.org/2000/svg">
<path d="M9.30063 34.6356C4.24041 34.6064 0.0546875 24.2768 0.0546875 19.0162C0.0546875 10.423 6.50107 8.54166 8.98547 8.54166C10.1051 8.54166 11.3006 8.98134 12.3551 9.37041C13.0924 9.64182 13.855 9.92198 14.2792 9.92198C14.533 9.92198 15.1313 9.68365 15.6595 9.47454C16.7859 9.0261 18.1876 8.46875 19.8199 8.46875C19.8228 8.46875 19.8267 8.46875 19.8296 8.46875C21.0484 8.46875 24.7439 8.73623 26.9657 12.0727L27.4861 12.8548L26.7371 13.42C25.6671 14.2274 23.7148 15.7001 23.7148 18.6174C23.7148 22.0726 25.9258 23.4014 26.9881 24.0405C27.457 24.3226 27.9423 24.6134 27.9423 25.2496C27.9423 25.665 24.6272 34.5841 19.8131 34.5841C18.6351 34.5841 17.8024 34.23 17.068 33.9177C16.3248 33.6016 15.6837 33.3293 14.6244 33.3293C14.0875 33.3293 13.4085 33.5831 12.6896 33.8526C11.7073 34.2192 10.5954 34.6356 9.3337 34.6356H9.30063Z" fill="black"/>
<path d="M20.3289 0C20.4543 4.52067 17.2213 7.65691 13.9921 7.46021C13.46 3.85256 17.2209 0 20.3289 0Z" fill="black"/>
</svg>
