<svg width="34" height="34" viewBox="0 0 34 34" fill="none" xmlns="http://www.w3.org/2000/svg">
<path d="M18.7222 16.3228L2.27745 32.7675C1.49133 32.0239 1.06641 31.0041 1.06641 29.8992V4.10607C1.06641 2.98001 1.51258 1.96018 2.31995 1.19531L18.7222 16.3228Z" fill="#2196F3"/>
<path d="M32.9365 17.0027C32.9365 18.49 32.1292 19.8073 30.7906 20.5509L26.1164 23.1429L20.3161 17.7888L18.7227 16.3228L24.8629 10.1826L30.7906 13.4546C32.1292 14.1982 32.9365 15.5155 32.9365 17.0027Z" fill="#FFC107"/>
<path d="M18.7226 16.323L2.32031 1.19554C2.53278 0.983078 2.80898 0.79186 3.08518 0.621889C4.42371 -0.185476 6.03844 -0.206722 7.41946 0.55815L24.8628 10.1828L18.7226 16.323Z" fill="#4CAF50"/>
<path d="M26.1158 23.1429L7.41898 33.4474C6.76034 33.8298 6.01672 33.9998 5.29434 33.9998C4.52947 33.9998 3.76459 33.8086 3.08471 33.3836C2.78726 33.2137 2.51105 33.0012 2.27734 32.7675L18.7221 16.3228L20.3156 17.7888L26.1158 23.1429Z" fill="#F44336"/>
</svg>
