<svg width="10" height="10" viewBox="0 0 10 10" fill="none" xmlns="http://www.w3.org/2000/svg">
<g clip-path="url(#clip0)">
<path d="M2.07309 2.14396C2.07309 1.87035 1.85117 1.64844 1.57756 1.64844C1.30395 1.64844 1.08203 1.87035 1.08203 2.14396C1.08203 2.14396 1.08268 2.75672 1.08268 2.75674C1.08268 2.75801 1.0848 5.29068 1.0848 5.29068H2.07311L2.07309 2.14396Z" fill="#FF9269"/>
<path d="M4.57348 7.54246V9.83971L3.93518 9.83885L3.29688 6.38672L4.57348 7.54246Z" fill="#FFB082"/>
<path d="M3.93598 7.02547V9.8393L2.57428 9.83738V9.23611C2.57428 9.12293 2.52896 8.94973 2.47342 8.85121L0.505977 5.67547C0.450664 5.57695 0.405117 5.40377 0.405117 5.29078L0.402344 2.14396C0.402344 1.87035 0.624258 1.64844 0.897871 1.64844C1.17148 1.64844 1.3934 1.87035 1.3934 2.14396V4.9644L3.93598 7.02547Z" fill="#FFCD9C"/>
<path d="M4.14045 6.49008L3.56641 5.92285L3.93832 9.03881C4.13322 9.12986 4.3498 9.18051 4.57662 9.18051V7.54307C4.57662 7.20369 4.38045 6.72986 4.14045 6.49008Z" fill="#FF9269"/>
<path d="M3.93704 6.90462V9.03867C3.42556 8.8008 3.06427 8.28718 3.06427 7.69207V6.83929L1.53958 5.3146C1.34618 5.12121 1.34618 4.80738 1.53958 4.61396C1.73319 4.42035 2.04681 4.42035 2.24044 4.61396L3.56513 5.92269C3.77491 6.17654 3.93704 6.59611 3.93704 6.90462Z" fill="#FFB082"/>
<path d="M7.9258 2.14396C7.9258 1.87035 8.14772 1.64844 8.42133 1.64844C8.69494 1.64844 8.91686 1.87035 8.91686 2.14396C8.91686 2.14396 8.91621 2.75672 8.91621 2.75674C8.91621 2.75801 8.91408 5.29068 8.91408 5.29068H7.92578V2.14396H7.9258Z" fill="#FF9269"/>
<path d="M8.6066 4.96428V2.14397C8.6066 1.87035 8.82852 1.64844 9.10213 1.64844C9.37574 1.64844 9.59766 1.87035 9.59766 2.14397L9.59488 5.29067C9.59488 5.40363 9.54936 5.57684 9.49402 5.67535L7.52664 8.85108C7.47111 8.94959 7.42578 9.12278 7.42578 9.23598V9.83725L5.42578 9.84006V7.54272L8.6066 4.96428Z" fill="#FFCD9C"/>
<path d="M5.86191 6.4898L7.76076 4.61389C7.95428 4.42037 8.26799 4.42037 8.4615 4.61389C8.65502 4.8074 8.65502 5.12111 8.4615 5.31463L6.93691 6.83922V7.69209C6.93691 8.514 6.2477 9.18029 5.42578 9.18029V7.54273C5.42576 7.20352 5.62203 6.72969 5.86191 6.4898Z" fill="#FFB082"/>
<path d="M7.07555 0.584961H6.01172V3.56369H7.07555V0.584961Z" fill="#2F5E88"/>
<path d="M6.43643 0.584961H2.92578V3.56369H6.43643V0.584961Z" fill="#367596"/>
<path d="M6.6482 3.13867L6.22266 3.5642L6.6482 3.98973H7.28648V3.13867H6.6482Z" fill="#88ACB5"/>
<path d="M6.64711 3.13867H2.71094V3.98973H6.64711V3.13867Z" fill="#A7CBCF"/>
<path d="M6.6482 0.15918L6.22266 0.584707L6.6482 1.01025H7.28648V0.15918H6.6482Z" fill="#88ACB5"/>
<path d="M6.64711 0.160156H2.71094V1.01121H6.64711V0.160156Z" fill="#A7CBCF"/>
<path d="M6.6482 1.64941L6.22266 2.07494L6.6482 2.50047H7.28648V1.64941H6.6482Z" fill="#88ACB5"/>
<path d="M6.64711 1.64844H2.71094V2.49949H6.64711V1.64844Z" fill="#A7CBCF"/>
<path d="M2.35143 4.50125C2.2277 4.37752 2.06318 4.30938 1.88822 4.30938C1.76803 4.30938 1.65277 4.34152 1.55229 4.40178V2.14432C1.55229 2.02908 1.52227 1.92076 1.46982 1.8266C1.50436 1.81486 1.54078 1.8084 1.57812 1.8084C1.76336 1.8084 1.91404 1.9591 1.91404 2.14434V3.80354C1.91404 3.89166 1.98549 3.96311 2.07361 3.96311C2.16174 3.96311 2.23318 3.89166 2.23318 3.80354V2.14434C2.23318 1.78312 1.93934 1.48926 1.57812 1.48926C1.4565 1.48926 1.33934 1.52268 1.23758 1.58479C1.13832 1.52422 1.0218 1.48926 0.897266 1.48926C0.536055 1.48926 0.242188 1.78313 0.242188 2.14447L0.244961 5.291C0.245098 5.43197 0.297285 5.63098 0.366367 5.75389C0.36748 5.75586 0.368613 5.75779 0.369844 5.75971L2.33527 8.93217C2.37672 9.00766 2.4141 9.15143 2.4141 9.23615V9.8375C2.4141 9.92563 2.48555 9.99707 2.57367 9.99707C2.6618 9.99707 2.73324 9.92563 2.73324 9.8375V9.23615C2.73324 9.09514 2.68111 8.89608 2.61201 8.77313C2.6109 8.77115 2.60977 8.76922 2.60857 8.76731L0.643066 5.59483C0.601621 5.51928 0.56418 5.37547 0.564082 5.2907L0.561309 2.14432C0.561309 1.95908 0.711992 1.80838 0.897227 1.80838C1.08246 1.80838 1.23314 1.95908 1.23314 2.14432V4.96447C1.23314 4.96846 1.23346 4.97234 1.23373 4.97623C1.23664 5.14004 1.30029 5.30295 1.425 5.42768L2.94959 6.95227C3.01191 7.01459 3.11295 7.01459 3.17525 6.95227C3.23758 6.88994 3.23758 6.78891 3.17525 6.7266L1.65068 5.20199C1.58725 5.13856 1.55229 5.05418 1.55229 4.96443C1.55229 4.87471 1.58725 4.79035 1.65068 4.7269C1.71412 4.66346 1.7985 4.6285 1.88822 4.6285C1.97795 4.6285 2.0623 4.66346 2.12643 4.72758L4.02459 6.60281C4.23568 6.81391 4.414 7.24443 4.414 7.54297V9.84029C4.414 9.92842 4.48545 9.99986 4.57357 9.99986C4.6617 9.99986 4.73314 9.92842 4.73314 9.84029V7.54297C4.73314 7.16004 4.52104 6.64795 4.24957 6.37649L2.35143 4.50125Z" fill="black"/>
<path d="M9.10154 1.48926C8.97701 1.48926 8.86049 1.52422 8.76125 1.58479C8.65947 1.52268 8.54229 1.48926 8.4207 1.48926C8.05949 1.48926 7.76563 1.78313 7.76563 2.14434V3.80354C7.76563 3.89166 7.83707 3.96311 7.9252 3.96311C8.01332 3.96311 8.08477 3.89166 8.08477 3.80354V2.14434C8.08477 1.9591 8.23547 1.8084 8.42068 1.8084C8.45803 1.8084 8.49445 1.81486 8.52896 1.8266C8.4765 1.92078 8.4465 2.02908 8.4465 2.14432V4.40178C8.34602 4.34154 8.23076 4.30938 8.11057 4.30938C7.93559 4.30938 7.77107 4.37752 7.64805 4.50057L5.74852 6.37717C5.47773 6.64795 5.26562 7.16004 5.26562 7.54297V9.84033C5.26562 9.92846 5.33707 9.9999 5.4252 9.9999C5.51332 9.9999 5.58477 9.92846 5.58477 9.84033V7.54301C5.58477 7.24449 5.76309 6.81397 5.9735 6.60356L7.87303 4.72695C7.93647 4.66352 8.02084 4.62855 8.11057 4.62855C8.20029 4.62855 8.28465 4.66352 8.34811 4.72695C8.41154 4.79039 8.4465 4.87477 8.4465 4.96449C8.4465 5.05424 8.41154 5.13859 8.34811 5.20205L6.82352 6.72664C6.76119 6.78897 6.76119 6.89 6.82352 6.95231C6.88584 7.01463 6.98688 7.01463 7.04918 6.95231L8.57377 5.42772C8.6985 5.30299 8.76213 5.14008 8.76504 4.97627C8.76531 4.97238 8.76565 4.96846 8.76565 4.96451V2.14436C8.76565 1.95912 8.91635 1.80842 9.10156 1.80842C9.2868 1.80842 9.4375 1.95912 9.4375 2.1442L9.43473 5.29076C9.43467 5.37553 9.39719 5.51934 9.35572 5.59488L7.39029 8.76732C7.3891 8.76924 7.38795 8.77119 7.38686 8.77315C7.31773 8.89607 7.26563 9.09512 7.26563 9.23617V9.83752C7.26563 9.92564 7.33707 9.99709 7.4252 9.99709C7.51332 9.99709 7.58477 9.92564 7.58477 9.83752V9.23617C7.58477 9.15143 7.62215 9.00768 7.66357 8.93219L9.629 5.75973C9.6302 5.75781 9.63135 5.75586 9.63248 5.75391C9.70158 5.63098 9.75377 5.43197 9.75389 5.29102L9.75666 2.14434C9.7566 1.78314 9.46275 1.48926 9.10154 1.48926Z" fill="black"/>
<path d="M2.71426 4.14894H7.28873C7.37685 4.14894 7.4483 4.0775 7.4483 3.98937V3.13832C7.4483 3.0502 7.37685 2.97875 7.28873 2.97875H7.23555V2.65961H7.28873C7.37685 2.65961 7.4483 2.58816 7.4483 2.50004V1.64895C7.4483 1.56082 7.37685 1.48937 7.28873 1.48937H7.23555V1.17023H7.28873C7.37685 1.17023 7.4483 1.09879 7.4483 1.01066V0.15957C7.4483 0.0714453 7.37685 0 7.28873 0H2.71426C2.62613 0 2.55469 0.0714453 2.55469 0.15957V1.01062C2.55469 1.09875 2.62613 1.1702 2.71426 1.1702H2.76744V1.48934H2.71426C2.62613 1.48934 2.55469 1.56078 2.55469 1.64891V2.5C2.55469 2.58812 2.62613 2.65957 2.71426 2.65957H2.76744V2.97871H2.71426C2.62613 2.97871 2.55469 3.05016 2.55469 3.13828V3.98934C2.55467 4.07748 2.62611 4.14894 2.71426 4.14894ZM7.12914 3.82978H2.87383V3.29787H7.12914V3.82978ZM2.87383 0.319141H7.12914V0.851055H2.87383V0.319141ZM3.08658 1.17021H6.91637V1.48936H3.08658V1.17021ZM3.08658 2.65957H5.79935C5.88748 2.65957 5.95892 2.58812 5.95892 2.5C5.95892 2.41187 5.88748 2.34043 5.79935 2.34043H2.87383V1.80852H7.12914V2.34043H6.43766C6.34953 2.34043 6.27808 2.41187 6.27808 2.5C6.27808 2.58812 6.34953 2.65957 6.43766 2.65957H6.91639V2.97871H3.08658V2.65957Z" fill="black"/>
</g>
<defs>
<clipPath id="clip0">
<rect width="10" height="10" fill="white"/>
</clipPath>
</defs>
</svg>
