<svg width="12" height="12" viewBox="0 0 12 12" fill="none" xmlns="http://www.w3.org/2000/svg">
<g clip-path="url(#clip0)">
<path d="M3.09766 10.0654H5.03314V11.2267H3.09766V10.0654Z" fill="#F0BC5E"/>
<path d="M6.89501 3.14841L6.00117 2.92074L5.10733 3.14841L5.0373 2.1886L4.5625 1.37784L5.40228 1.01389L6.00117 0.273438L6.60025 1.0137L7.44003 1.37765L6.96523 2.18841L6.89501 3.14841Z" fill="#F0BC5E"/>
<path d="M2.0848 4.11602L1.54943 3.97993L1.01405 4.11602L0.972656 3.54332L0.691406 3.06313L1.18964 2.84728L1.54943 2.40234L1.90921 2.84709L2.40745 3.06294L2.1262 3.54313L2.0848 4.11602Z" fill="#F0BC5E"/>
<path d="M10.9873 4.11602L10.452 3.97993L9.91658 4.11602L9.875 3.54332L9.59375 3.06313L10.092 2.84728L10.452 2.40234L10.8117 2.84709L11.31 3.06294L11.0287 3.54313L10.9873 4.11602Z" fill="#F0BC5E"/>
<path d="M4.15087 6.46358L3.38423 5.50567C3.10761 5.15959 2.78034 4.85963 2.41157 4.61382L2.26953 4.51922L2.83685 3.38477L3.02208 3.5236C3.55586 3.92364 3.9095 4.53311 3.99229 5.19522L4.15087 6.46358Z" fill="#F0BC5E"/>
<path d="M7.85156 6.46299L8.01014 5.19462C8.09293 4.53251 8.44657 3.92323 8.98034 3.523L9.16576 3.38379L9.73308 4.51815L9.59104 4.61284C9.22228 4.85884 8.89481 5.15861 8.61838 5.50451L7.85156 6.46299Z" fill="#F0BC5E"/>
<path d="M9.60232 6.96777H2.39529L1.62109 8.51616H2.32138V12H9.67622V8.51616H10.3765L9.60232 6.96777ZM9.36303 7.35487L9.75012 8.12906H6.69909L6.312 7.35487H9.36303ZM2.63458 7.35487H5.68561L5.29851 8.12906H2.24748L2.63458 7.35487ZM9.28912 11.6129H6.19235V10.2581H5.80525V11.6129H2.70848V8.51616H5.5378L5.80525 7.98116V9.67745H6.19235V7.98116L6.4598 8.51616H9.28912V11.6129Z" fill="black"/>
<path d="M3.09766 10.0645H4.25895V10.4516H3.09766V10.0645Z" fill="black"/>
<path d="M3.09766 10.8389H4.25895V11.226H3.09766V10.8389Z" fill="black"/>
<path d="M4.64453 10.8389H5.03163V11.226H4.64453V10.8389Z" fill="black"/>
<path d="M7.16053 5.76947C7.16053 4.83981 7.48819 3.93482 8.08358 3.22045L7.78607 2.97266C7.13303 3.75639 6.77344 4.74965 6.77344 5.76947V6.58042H7.16053V5.76947Z" fill="black"/>
<path d="M8.12891 2.32227H8.516V2.70936H8.12891V2.32227Z" fill="black"/>
<path d="M8.71094 1.54883H9.09803V1.93593H8.71094V1.54883Z" fill="black"/>
<path d="M4.83691 6.58042H5.22401V5.76947C5.22401 4.74946 4.86442 3.75639 4.21157 2.97266L3.91406 3.22045C4.50926 3.93482 4.83691 4.83981 4.83691 5.76947V6.58042Z" fill="black"/>
<path d="M3.48438 2.32227H3.87147V2.70936H3.48438V2.32227Z" fill="black"/>
<path d="M2.90234 1.54883H3.28944V1.93593H2.90234V1.54883Z" fill="black"/>
<path d="M5.80469 3.29102H6.19178V3.67811H5.80469V3.29102Z" fill="black"/>
<path d="M5.80469 4.06445H6.19178V6.58059H5.80469V4.06445Z" fill="black"/>
</g>
<defs>
<clipPath id="clip0">
<rect width="12" height="12" fill="white"/>
</clipPath>
</defs>
</svg>
