<svg width="15" height="15" viewBox="0 0 15 15" fill="none" xmlns="http://www.w3.org/2000/svg">
<path d="M3.75 4.6875C3.75 4.42875 3.54 4.21875 3.28125 4.21875H0.46875C0.21 4.21875 0 4.42875 0 4.6875C0 4.94625 0.21 5.15625 0.46875 5.15625H3.28125C3.54 5.15625 3.75 4.94625 3.75 4.6875Z" fill="#FFC107"/>
<path d="M3.28125 6.09375H1.40625C1.1475 6.09375 0.9375 6.30375 0.9375 6.5625C0.9375 6.82125 1.1475 7.03125 1.40625 7.03125H3.28125C3.54 7.03125 3.75 6.82125 3.75 6.5625C3.75 6.30375 3.54 6.09375 3.28125 6.09375Z" fill="#FFC107"/>
<path d="M3.28125 7.96875H2.34375C2.085 7.96875 1.875 8.17875 1.875 8.4375C1.875 8.69625 2.085 8.90625 2.34375 8.90625H3.28125C3.54 8.90625 3.75 8.69625 3.75 8.4375C3.75 8.17875 3.54 7.96875 3.28125 7.96875Z" fill="#FFC107"/>
<path d="M14.9334 7.72781L13.5272 5.38406C13.4428 5.2425 13.29 5.15625 13.125 5.15625H9.84375C9.585 5.15625 9.375 5.36625 9.375 5.625V10.3125C9.375 10.5712 9.585 10.7812 9.84375 10.7812H14.5312C14.79 10.7812 15 10.5712 15 10.3125V7.96875C15 7.88344 14.9775 7.8 14.9334 7.72781Z" fill="#F44336"/>
<path d="M11.25 6.09375H12.8597L13.9847 7.96875H11.25V6.09375Z" fill="#FAFAFA"/>
<path d="M9.84375 3.28125H3.28125C3.0225 3.28125 2.8125 3.49125 2.8125 3.75V10.3125C2.8125 10.5712 3.0225 10.7812 3.28125 10.7812H10.3125V3.75C10.3125 3.49125 10.1025 3.28125 9.84375 3.28125Z" fill="#FFC107"/>
<path d="M12.6562 11.25C13.174 11.25 13.5938 10.8303 13.5938 10.3125C13.5938 9.79473 13.174 9.375 12.6562 9.375C12.1385 9.375 11.7188 9.79473 11.7188 10.3125C11.7188 10.8303 12.1385 11.25 12.6562 11.25Z" fill="#FAFAFA"/>
<path d="M12.6562 11.7188C11.8809 11.7188 11.25 11.0878 11.25 10.3125C11.25 9.53719 11.8809 8.90625 12.6562 8.90625C13.4316 8.90625 14.0625 9.53719 14.0625 10.3125C14.0625 11.0878 13.4316 11.7188 12.6562 11.7188ZM12.6562 9.84375C12.3984 9.84375 12.1875 10.0547 12.1875 10.3125C12.1875 10.5703 12.3984 10.7812 12.6562 10.7812C12.9141 10.7812 13.125 10.5703 13.125 10.3125C13.125 10.0547 12.9141 9.84375 12.6562 9.84375Z" fill="#455A64"/>
<path d="M10.3125 10.7812H3.28125C3.0225 10.7812 2.8125 10.5712 2.8125 10.3125V8.90625H10.3125V10.7812Z" fill="#F44336"/>
<path d="M6.09375 11.25C6.61152 11.25 7.03125 10.8303 7.03125 10.3125C7.03125 9.79473 6.61152 9.375 6.09375 9.375C5.57598 9.375 5.15625 9.79473 5.15625 10.3125C5.15625 10.8303 5.57598 11.25 6.09375 11.25Z" fill="#FAFAFA"/>
<path d="M6.09375 11.7188C5.31844 11.7188 4.6875 11.0878 4.6875 10.3125C4.6875 9.53719 5.31844 8.90625 6.09375 8.90625C6.86906 8.90625 7.5 9.53719 7.5 10.3125C7.5 11.0878 6.86906 11.7188 6.09375 11.7188ZM6.09375 9.84375C5.835 9.84375 5.625 10.0547 5.625 10.3125C5.625 10.5703 5.835 10.7812 6.09375 10.7812C6.3525 10.7812 6.5625 10.5703 6.5625 10.3125C6.5625 10.0547 6.3525 9.84375 6.09375 9.84375Z" fill="#455A64"/>
</svg>
