<svg width="18" height="18" viewBox="0 0 18 18" fill="none" xmlns="http://www.w3.org/2000/svg">
<path d="M8.83316 3.23438C8.83316 3.23438 12.1206 5.18498 11.4967 9.76753C11.4967 9.76753 12.3967 9.17339 12.6946 8.45972C12.6946 8.45972 13.4918 10.7961 12.3045 12.8029C11.4346 14.2734 9.7243 15.0615 8.0631 14.6621C7.55198 14.538 7.06888 14.3185 6.63913 14.0153C4.32992 12.4031 5.06131 9.44409 5.56335 8.6123C5.56335 8.6123 6.413 6.95953 6.35928 5.81934C6.81887 6.18897 7.24045 6.60352 7.61774 7.05684C7.61774 7.05684 8.89053 5.83017 8.83316 3.23438Z" fill="#EF5261"/>
<path d="M9.44642 7.28223C9.44642 7.28223 10.7981 9.27207 10.4682 11.3945C10.666 11.3488 10.8466 11.2476 10.9889 11.1028C11.1311 10.958 11.2291 10.7756 11.2713 10.5771C11.2713 10.5771 12.2287 12.8574 10.3589 14.0907C10.014 14.3216 9.61279 14.4543 9.19821 14.4746C8.84677 14.4903 8.49617 14.4287 8.17104 14.2944C7.84591 14.16 7.55414 13.9561 7.31623 13.697C6.87016 13.2314 6.62356 12.6101 6.62899 11.9653C6.6385 11.5377 6.75305 11.1189 6.96256 10.746C7.20246 10.3071 7.60465 9.51732 7.67173 9.04229C7.67173 9.04229 8.13425 9.21835 8.43546 10.068C8.43546 10.068 9.44993 9.25773 9.44642 7.28223Z" fill="#F6C863"/>
<path d="M10.0811 13.5159C10.0473 13.652 9.98537 13.7795 9.89938 13.8904C9.81339 14.0012 9.70521 14.0928 9.58176 14.1595C9.45832 14.2261 9.32233 14.2662 9.18249 14.2773C9.04266 14.2883 8.90205 14.27 8.76968 14.2236C8.53689 14.1347 8.34383 13.965 8.22571 13.7456C8.10758 13.5262 8.07226 13.2716 8.12618 13.0283C8.20224 12.5955 8.3815 12.1874 8.64876 11.8386C8.91602 11.4898 9.26342 11.2105 9.66152 11.0244C9.66152 11.0244 9.2838 11.8578 9.72565 12.3526C9.88388 12.4967 10.0004 12.6808 10.0629 12.8855C10.1255 13.0902 10.1318 13.3079 10.0811 13.5159Z" fill="#EEEFEE"/>
</svg>
