<svg width="24" height="24" viewBox="0 0 24 24" fill="none" xmlns="http://www.w3.org/2000/svg">
<path d="M23.5987 8.8002C23.5987 11.8922 21.8067 14.4002 19.5987 14.4002H11.1987C13.4067 14.4002 13.9987 11.8922 13.9987 8.8002C13.9987 5.8242 13.5387 3.3922 11.4467 3.2122C11.3667 3.2042 11.2827 3.2002 11.1987 3.2002H19.5987C21.8067 3.2002 23.5987 5.7082 23.5987 8.8002Z" fill="#C81E1E"/>
<path d="M22.3987 8.8002C22.3987 11.8922 20.6067 14.4002 18.3987 14.4002H11.1987C13.4067 14.4002 13.9987 11.8922 13.9987 8.8002C13.9987 5.8242 13.5387 3.3922 11.4467 3.2122C11.3667 3.2042 11.2827 3.2002 11.1987 3.2002H18.3987C20.6067 3.2002 22.3987 5.7082 22.3987 8.8002Z" fill="#F44335"/>
<path d="M15.2017 8.8002C15.2017 11.8922 13.4097 14.4002 11.2017 14.4002C11.0025 14.4013 10.8039 14.3799 10.6097 14.3362C12.5297 13.9242 14.0017 11.6042 14.0017 8.8002C14.0017 5.9962 12.5217 3.6682 10.5977 3.2642C10.7963 3.22251 10.9987 3.20106 11.2017 3.2002C11.2857 3.2002 11.3697 3.2042 11.4497 3.2122C13.5417 3.3922 15.2017 5.8242 15.2017 8.8002Z" fill="#CFD8DC"/>
<path d="M14.0002 8.79967C14.0002 11.6037 12.5282 13.9237 10.6082 14.3357H10.6042C10.5442 14.3237 10.4882 14.3117 10.4322 14.2957C10.5122 14.0997 10.5922 13.9237 10.6802 13.7557C10.9616 13.2614 11.3834 12.8619 11.8922 12.6077C12.1526 12.4562 12.3831 12.2582 12.5722 12.0237H12.5762C13.0299 11.4469 13.3373 10.769 13.4722 10.0477C13.5042 9.88767 13.5322 9.71967 13.5522 9.54767C13.5848 9.29968 13.6008 9.04979 13.6002 8.79967C13.6002 6.44367 12.3362 4.79967 11.2002 4.79967C10.9916 4.8031 10.7865 4.85369 10.6002 4.94767C9.6602 5.39567 8.8002 6.85567 8.8002 8.79967C8.77402 9.85671 9.06824 10.8969 9.6442 11.7837C9.22627 12.1269 8.84551 12.513 8.5082 12.9357C8.31911 12.6972 8.15304 12.4414 8.0122 12.1717C7.46546 11.1326 7.18638 9.97369 7.2002 8.79967C7.2002 6.00367 8.6642 3.68367 10.5802 3.26767C10.5842 3.26767 10.5922 3.26367 10.5962 3.26367C12.5202 3.66767 14.0002 5.99167 14.0002 8.79967Z" fill="#F5F5F5"/>
<path d="M16.3989 20.5997C16.3989 22.2557 12.8189 23.5997 8.39893 23.5997C8.19493 23.5997 7.99493 23.5957 7.79893 23.5917C3.65893 23.4757 0.398926 22.1797 0.398926 20.5997C0.398926 19.1437 3.15893 17.9316 6.82693 17.6556L8.59093 17.6476L9.67893 17.6396H9.70293C13.5029 17.8716 16.3989 19.1117 16.3989 20.5997Z" fill="#C81E1E"/>
<path d="M15.1989 20.6004C15.1989 22.1804 11.9389 23.4764 7.79893 23.5924C3.65893 23.4764 0.398926 22.1804 0.398926 20.6004C0.398926 19.1444 3.15893 17.9324 6.82693 17.6564L8.59093 17.6484C12.3469 17.8924 15.1989 19.1244 15.1989 20.6004Z" fill="#F44335"/>
<path d="M13.6014 8.7998C13.602 9.04993 13.5859 9.29981 13.5534 9.5478C13.5334 9.7198 13.5054 9.8878 13.4734 10.0478C12.4014 10.4238 10.8774 10.7838 9.64538 11.7838C9.55586 11.657 9.47437 11.5248 9.40138 11.3878C8.99414 10.5867 8.78821 9.6984 8.80138 8.7998C8.80138 6.7198 9.78538 5.1958 10.8014 4.8678C10.9302 4.8239 11.0653 4.80094 11.2014 4.7998C12.3374 4.7998 13.6014 6.4438 13.6014 8.7998Z" fill="#545C60"/>
<path d="M12.8014 8.80016C12.802 9.05029 12.7859 9.30017 12.7534 9.54817C12.7334 9.72017 12.7054 9.88816 12.6734 10.0482C11.7574 10.3682 10.5134 10.6802 9.40138 11.3882C8.99414 10.587 8.78821 9.69876 8.80138 8.80016C8.80138 6.72016 9.78538 5.19616 10.8014 4.86816C11.8174 5.19616 12.8014 6.72016 12.8014 8.80016Z" fill="#7F8E94"/>
<path d="M13.4704 10.0479C13.3354 10.7691 13.028 11.4471 12.5744 12.0239H12.5704C12.3813 12.2584 12.1508 12.4564 11.8904 12.6079C11.3816 12.8621 10.9598 13.2616 10.6784 13.7558C10.5904 13.9238 10.5104 14.0999 10.4304 14.2959C10.1895 14.911 10.0112 15.5489 9.89838 16.1998C9.79985 16.6757 9.72641 17.1563 9.67838 17.6398C9.63845 18.0475 9.66958 18.4589 9.77038 18.8558C9.86494 19.2154 10.0725 19.5351 10.3624 19.7678C10.4274 19.8128 10.4594 19.8921 10.4437 19.9696C10.4281 20.047 10.3677 20.1077 10.2904 20.1238C9.43367 20.3058 8.55734 20.3784 7.68237 20.3398C7.48637 20.3278 7.29037 20.3118 7.09037 20.2838C6.45576 20.2064 5.8284 20.0779 5.21437 19.8998C5.12951 19.8732 5.07241 19.7938 5.07426 19.7048C5.07612 19.6159 5.13647 19.5389 5.22237 19.5158C5.75036 19.3263 6.19119 18.9509 6.46237 18.4598C6.61202 18.2056 6.73404 17.9361 6.82638 17.6558C7.11038 16.8318 7.19438 15.9398 7.41438 15.0958C7.62173 14.3068 7.9939 13.5706 8.50638 12.9359C8.84369 12.5132 9.22445 12.127 9.64238 11.7839C10.5221 11.1265 11.5163 10.6382 12.5744 10.3439C12.8944 10.2399 13.1984 10.1439 13.4704 10.0479Z" fill="#BB193B"/>
<path d="M12.5744 10.3438C12.4084 10.8072 12.1664 11.2398 11.8584 11.6237H11.8544C11.6566 11.8697 11.4152 12.0771 11.1424 12.2358C10.6091 12.5031 10.1666 12.922 9.87037 13.4397C9.77837 13.6157 9.69437 13.7997 9.61037 14.0037C9.35777 14.6485 9.17147 15.3173 9.05437 15.9998C8.96637 16.4878 8.86237 16.9998 8.82237 17.5078C8.7818 17.9355 8.81426 18.3669 8.91837 18.7838C9.01975 19.1605 9.23828 19.4953 9.54237 19.7398C9.68637 19.8478 9.95317 20.1894 9.57917 20.2486C8.95219 20.3487 8.31607 20.3792 7.68237 20.3398C7.48637 20.3278 7.29037 20.3118 7.09037 20.2838C6.45576 20.2063 5.8284 20.0778 5.21437 19.8998C5.12951 19.8731 5.07241 19.7937 5.07426 19.7047C5.07612 19.6158 5.13647 19.5388 5.22237 19.5158C5.75036 19.3262 6.19119 18.9508 6.46237 18.4598C6.61202 18.2055 6.73404 17.936 6.82637 17.6558C7.11037 16.8318 7.19437 15.9398 7.41437 15.0958C7.62173 14.3067 7.9939 13.5705 8.50637 12.9358C8.84369 12.5131 9.22444 12.1269 9.64237 11.7837C10.5221 11.1264 11.5163 10.6381 12.5744 10.3438Z" fill="#EF314C"/>
<path d="M18.4011 9.6C18.8429 9.6 19.2011 9.24183 19.2011 8.8C19.2011 8.35817 18.8429 8 18.4011 8C17.9592 8 17.6011 8.35817 17.6011 8.8C17.6011 9.24183 17.9592 9.6 18.4011 9.6Z" fill="#C03A2B"/>
<path d="M11.1991 14.7998C10.9037 14.799 10.6098 14.7586 10.3251 14.6798C10.2149 14.6496 10.123 14.5737 10.0724 14.4712C10.0218 14.3688 10.0174 14.2497 10.0603 14.1438C10.1427 13.9402 10.2311 13.7478 10.3235 13.571C10.6388 13.0047 11.1173 12.5465 11.6967 12.2558C11.914 12.1292 12.1059 11.9633 12.2627 11.7666C12.2733 11.7539 12.2846 11.7419 12.2967 11.7306C12.784 11.0812 13.0808 10.3088 13.1539 9.5002C13.166 9.35486 13.2563 9.22764 13.3895 9.16822C13.5227 9.1088 13.6777 9.1266 13.794 9.21466C13.9103 9.30272 13.9694 9.44708 13.9483 9.5914C13.8576 10.571 13.4878 11.5041 12.8827 12.2798C12.8713 12.2939 12.859 12.3073 12.8459 12.3198C12.6329 12.5769 12.3755 12.7937 12.0859 12.9598C11.6451 13.176 11.2788 13.5187 11.0339 13.9442C11.0251 13.961 11.0167 13.9778 11.0083 13.9946C11.0719 13.9998 11.1359 14.0022 11.1999 14.0022C13.1851 14.0022 14.7999 11.6694 14.7999 8.8022C14.7999 5.935 13.1843 3.5998 11.1991 3.5998C9.21389 3.5998 7.59909 5.9326 7.59909 8.7998C7.58304 10.0256 7.90777 11.2318 8.53709 12.2838C8.80157 11.9949 9.086 11.7249 9.38829 11.4758C9.49782 11.3801 9.65063 11.3515 9.78739 11.4009C9.92414 11.4503 10.0233 11.5701 10.0463 11.7137C10.0694 11.8573 10.0127 12.002 9.89829 12.0918C9.50199 12.4172 9.14083 12.7832 8.82069 13.1838C8.74488 13.2797 8.62936 13.3357 8.50709 13.3358C8.38633 13.3275 8.27349 13.2728 8.19229 13.183C7.2545 11.9169 6.76438 10.375 6.79909 8.7998C6.79909 5.4914 8.77309 2.7998 11.1991 2.7998C13.6251 2.7998 15.5991 5.4914 15.5991 8.7998C15.5991 12.1082 13.6251 14.7998 11.1991 14.7998Z" fill="black"/>
<path d="M12.576 12.4244C12.4126 12.4257 12.2648 12.3275 12.2027 12.1763C12.1407 12.0252 12.1768 11.8515 12.294 11.7376C12.7833 11.0873 13.0814 10.3133 13.1548 9.50279C13.1855 9.26993 13.2006 9.03527 13.2 8.80039C13.2 6.56999 12.0352 5.20039 11.2 5.20039C10.3648 5.20039 9.19995 6.56999 9.19995 8.80039C9.17372 9.77535 9.44282 10.7355 9.97195 11.5548C10.0988 11.7358 10.0548 11.9854 9.87375 12.1122C9.69271 12.239 9.44316 12.195 9.31635 12.014C8.69306 11.0601 8.37355 9.9396 8.39995 8.80039C8.39995 6.16839 9.84755 4.40039 11.2 4.40039C12.5524 4.40039 14 6.16839 14 8.80039C14.0007 9.06791 13.9834 9.33518 13.9483 9.60039C13.8568 10.5771 13.4873 11.5071 12.8836 12.2804C12.8075 12.3717 12.6948 12.4245 12.576 12.4244Z" fill="black"/>
<path d="M19.5998 3.59981H11.0558C10.8348 3.59981 10.6558 3.42072 10.6558 3.19981C10.6558 2.97889 10.8348 2.7998 11.0558 2.7998H19.5998C19.8207 2.7998 19.9998 2.97889 19.9998 3.19981C19.9998 3.42072 19.8207 3.59981 19.5998 3.59981Z" fill="black"/>
<path d="M19.5998 14.8H11.1998C10.9789 14.8 10.7998 14.6209 10.7998 14.4C10.7998 14.1791 10.9789 14 11.1998 14H19.5998C19.8207 14 19.9998 14.1791 19.9998 14.4C19.9998 14.6209 19.8207 14.8 19.5998 14.8Z" fill="black"/>
<path d="M19.6002 14.7998C19.3793 14.7998 19.2002 14.6207 19.2002 14.3998C19.2002 14.1789 19.3793 13.9998 19.6002 13.9998C21.5854 13.9998 23.2002 11.667 23.2002 8.7998C23.2002 5.9326 21.5854 3.5998 19.6002 3.5998C19.3793 3.5998 19.2002 3.42072 19.2002 3.1998C19.2002 2.97889 19.3793 2.7998 19.6002 2.7998C22.0262 2.7998 24.0002 5.4914 24.0002 8.7998C24.0002 12.1082 22.0262 14.7998 19.6002 14.7998Z" fill="black"/>
<path d="M18.3829 8.4C18.1684 8.40019 17.9919 8.23113 17.9829 8.0168C17.9421 6.41669 17.6014 4.83845 16.9785 3.364C16.2509 1.734 15.2393 0.8 14.1993 0.8C13.1593 0.8 12.1477 1.734 11.4205 3.3632C11.3622 3.49367 11.2387 3.58313 11.0965 3.59787C10.9544 3.61262 10.8152 3.5504 10.7313 3.43467C10.6475 3.31894 10.6318 3.16727 10.6901 3.0368C11.5517 1.1068 12.8309 0 14.1993 0C15.5677 0 16.8469 1.1068 17.7085 3.0368C18.3734 4.6037 18.7379 6.28164 18.7829 7.9832C18.7874 8.08938 18.7495 8.193 18.6776 8.2712C18.6056 8.3494 18.5055 8.39574 18.3993 8.4H18.3829Z" fill="black"/>
<path d="M18.3993 9.99964C17.9139 9.99964 17.4763 9.70727 17.2906 9.25886C17.1049 8.81046 17.2075 8.29431 17.5507 7.95112C17.8939 7.60792 18.4101 7.50525 18.8585 7.69099C19.3069 7.87673 19.5993 8.31429 19.5993 8.79964C19.5993 9.46239 19.062 9.99964 18.3993 9.99964ZM18.3993 8.39964C18.1783 8.39964 17.9993 8.57873 17.9993 8.79964C17.9993 9.02056 18.1783 9.19964 18.3993 9.19964C18.6202 9.19964 18.7993 9.02056 18.7993 8.79964C18.7993 8.57873 18.6202 8.39964 18.3993 8.39964Z" fill="black"/>
<path d="M8.4 24C3.6112 24 0 22.5384 0 20.6C0 18.644 3.4144 17.5116 6.8 17.2572C7.01788 17.2444 7.20578 17.4087 7.22226 17.6263C7.23874 17.8439 7.07772 18.0346 6.8604 18.0548C3.066 18.3404 0.8 19.5732 0.8 20.6C0.8 21.8296 3.92 23.2 8.4 23.2C12.88 23.2 16 21.8296 16 20.6C16 19.554 13.5836 18.2776 9.68 18.04C9.45909 18.0266 9.29084 17.8367 9.3042 17.6158C9.31757 17.3949 9.50749 17.2266 9.7284 17.24C13.892 17.4952 16.8 18.8764 16.8 20.6C16.8 22.5384 13.1888 24 8.4 24Z" fill="black"/>
<path d="M10.8008 20.3998C10.7579 20.3998 10.7152 20.3929 10.6744 20.3794C10.0351 20.1517 9.55158 19.6198 9.38562 18.9618C9.2147 18.0824 9.24464 17.1759 9.47322 16.3098L9.50762 16.1258C9.6248 15.4485 9.81056 14.785 10.062 14.1454C10.1451 13.9406 10.3784 13.8419 10.5832 13.925C10.788 14.008 10.8867 14.2414 10.8036 14.4462C10.5727 15.0358 10.4019 15.6473 10.294 16.2714L10.2592 16.457C10.0575 17.2046 10.0226 17.9875 10.1572 18.7502C10.2555 19.149 10.5433 19.4742 10.9272 19.6202C11.1135 19.6821 11.2274 19.87 11.196 20.0638C11.1645 20.2576 10.9971 20.3999 10.8008 20.3998Z" fill="black"/>
<path d="M12.5778 12.424H12.5738C12.3533 12.4229 12.1752 12.2435 12.1758 12.023C12.1763 11.8025 12.3553 11.624 12.5758 11.624C12.7963 11.624 12.9752 11.8025 12.9758 12.023C12.9763 12.2435 12.7983 12.4229 12.5778 12.424Z" fill="black"/>
<path d="M4.62556 20.0117C4.53616 20.0119 4.44683 20.0071 4.35796 19.9973C4.13841 19.9738 3.97943 19.7769 4.00276 19.5573C4.01279 19.4514 4.06514 19.3539 4.14796 19.2871C4.23078 19.2202 4.33707 19.1896 4.44276 19.2021C5.14128 19.2527 5.80217 18.88 6.12036 18.2561C6.25577 18.0262 6.36614 17.7824 6.44956 17.5289C6.60125 17.0492 6.71848 16.5593 6.80036 16.0629C6.86716 15.7121 6.93636 15.3497 7.02876 14.9949C7.25068 14.152 7.64801 13.3654 8.19476 12.6865C8.54937 12.2422 8.94971 11.8363 9.38916 11.4757C10.3914 10.737 11.5238 10.1935 12.7272 9.87371C12.9428 9.80371 13.1484 9.73731 13.3396 9.67011C13.5481 9.59699 13.7764 9.70677 13.8496 9.91531C13.9227 10.1239 13.8129 10.3522 13.6044 10.4253C13.4076 10.4941 13.1956 10.5629 12.9736 10.6345C11.8665 10.9271 10.8231 11.422 9.89596 12.0941C9.50092 12.419 9.14084 12.7841 8.82156 13.1837C8.34434 13.7756 7.99732 14.4614 7.80316 15.1965C7.71716 15.5257 7.65356 15.8593 7.58636 16.2129C7.49731 16.7457 7.37032 17.2714 7.20636 17.7861C7.105 18.0919 6.97159 18.386 6.80836 18.6637C6.38105 19.4775 5.54455 19.9941 4.62556 20.0117Z" fill="black"/>
<path d="M7.35078 22.4817C4.59758 22.4817 3.07078 21.5869 2.99558 21.5425C2.80909 21.4277 2.74955 21.1843 2.86201 20.9964C2.97446 20.8085 3.2171 20.746 3.40638 20.8561C3.42558 20.8673 5.35518 21.9801 8.75758 21.6021C8.97716 21.5778 9.17488 21.7361 9.19918 21.9557C9.22348 22.1753 9.06516 22.373 8.84558 22.3973C8.34925 22.453 7.85022 22.4812 7.35078 22.4817Z" fill="black"/>
</svg>
