<svg width="24" height="24" viewBox="0 0 24 24" fill="none" xmlns="http://www.w3.org/2000/svg">
<g clip-path="url(#clip0)">
<path d="M12.7979 1.88867V16.4946C12.7979 17.4138 13.5431 18.1591 14.4623 18.1591C15.3815 18.1591 16.1267 17.4138 16.1267 16.4946V14.1166C16.1267 13.1975 16.872 12.4522 17.7913 12.4522C18.7105 12.4522 19.4558 13.1975 19.4558 14.1166V21.9367C19.4558 22.8559 20.201 23.6012 21.1202 23.6012C22.0396 23.6012 22.7846 22.8559 22.7846 21.9367V1.88867C22.7846 1.62976 22.5748 1.41992 22.3159 1.41992H13.2666C13.0077 1.41992 12.7979 1.62976 12.7979 1.88867Z" fill="#3FEFEF"/>
<path d="M22.3169 1.41992C22.5758 1.41992 22.7856 1.62976 22.7856 1.88867V21.9365C22.7856 22.3965 22.5994 22.8122 22.298 23.1135C21.9972 23.4146 21.5808 23.6012 21.1214 23.6012C20.9485 23.6012 20.7816 23.5748 20.625 23.5257C20.8848 23.4446 21.1177 23.3016 21.3058 23.1135C21.6072 22.8122 21.7932 22.3965 21.7932 21.9365V1.41992H22.3169Z" fill="#1DD1D9"/>
<path d="M9.14516 11.9504L9.74245 11.3533L8.3774 9.98828L7.78029 10.5854C6.58772 11.778 5.23146 12.7911 3.77394 13.6493C3.39637 13.8716 3.01789 14.1633 2.66413 14.5169C1.38148 15.7995 0.912361 17.4103 1.6164 18.1143C2.32044 18.8184 3.93104 18.3493 5.21388 17.0666C5.56746 16.7128 5.85914 16.3344 6.08143 15.9568C6.93965 14.4991 7.95259 13.143 9.14516 11.9504Z" fill="#64BDFF"/>
<path d="M9.74348 11.3527L9.14619 11.9498C7.95362 13.1423 6.94068 14.4984 6.08246 15.9563C5.86017 16.3337 5.56867 16.712 5.21473 17.0659C3.93225 18.3484 2.32147 18.8177 1.61743 18.1135C1.50409 18.0001 1.42151 17.8637 1.36768 17.709C2.17627 17.9917 3.48401 17.4878 4.56031 16.4115C4.91425 16.0581 5.20575 15.6793 5.42804 15.3019C6.28626 13.844 7.29938 12.4879 8.49177 11.2953L9.08906 10.6982L9.74348 11.3527Z" fill="#43A3F9"/>
<path d="M14.316 12.4212L7.30859 5.41379L12.242 0.480194C12.4762 0.246185 12.8558 0.246185 13.09 0.480194L19.2495 6.63987C19.4837 6.87388 19.4837 7.25364 19.2495 7.48765L14.316 12.4212Z" fill="#FFEB96"/>
<path d="M19.2495 7.48779L14.3163 12.421L13.6201 11.7249L18.5539 6.79163C18.7855 6.55963 18.7877 6.18591 18.5609 5.95117L19.2495 6.63965C19.4839 6.87366 19.4839 7.25342 19.2495 7.48779Z" fill="#FFDF46"/>
<path d="M11.9757 14.5674L5.16344 7.75511C4.92924 7.52092 4.92924 7.14134 5.16344 6.90715L7.02874 5.04186C7.26293 4.80766 7.64251 4.80766 7.8767 5.04186L14.689 11.8541C14.9232 12.0883 14.9232 12.4679 14.689 12.7021L12.8237 14.5674C12.5895 14.8016 12.2099 14.8016 11.9757 14.5674Z" fill="#BDDFF4"/>
<path d="M22.3145 1.06836H19.5781C19.3839 1.06836 19.2266 1.22565 19.2266 1.41992C19.2266 1.61401 19.3839 1.77148 19.5781 1.77148H22.3145C22.3791 1.77148 22.4316 1.82404 22.4316 1.88867V15.6633C22.4316 15.8574 22.5891 16.0149 22.7832 16.0149C22.9775 16.0149 23.1348 15.8574 23.1348 15.6633V1.88867C23.1348 1.43622 22.7669 1.06836 22.3145 1.06836Z" fill="black"/>
<path d="M22.7833 16.8431C22.5893 16.8431 22.4318 17.0004 22.4318 17.1947V21.9369C22.4318 22.6609 21.8429 23.25 21.1189 23.25C20.3949 23.25 19.8061 22.6609 19.8061 21.9369V14.117C19.8061 13.0054 18.9015 12.101 17.7899 12.101C16.6782 12.101 15.7739 13.0054 15.7739 14.117V16.495C15.7739 17.219 15.1848 17.8079 14.461 17.8079C13.737 17.8079 13.148 17.219 13.148 16.495V14.7401L14.9375 12.9505C15.1817 12.7064 15.2639 12.3616 15.1867 12.0487L19.4995 7.7358C19.8703 7.36501 19.8703 6.7615 19.4995 6.39071L14.8805 1.77187H18.0471C18.2414 1.77187 18.3987 1.6144 18.3987 1.4203C18.3987 1.22603 18.2414 1.06874 18.0471 1.06874H14.1774L13.34 0.231217C12.9691 -0.139572 12.3657 -0.139572 11.9949 0.231217L7.68244 4.54354C7.6081 4.52523 7.53138 4.51461 7.45265 4.51461C7.19868 4.51461 6.95972 4.61348 6.7801 4.79311L4.9148 6.65859C4.54401 7.02938 4.54401 7.63271 4.9148 8.0035L7.38856 10.4774C6.30238 11.5384 5.02778 12.503 3.59607 13.3458C3.17969 13.591 2.78272 13.9012 2.41596 14.2677C1.75458 14.9293 1.27228 15.6985 1.05805 16.4339C0.822756 17.2421 0.932802 17.9271 1.36823 18.3625C1.65863 18.6529 2.05725 18.795 2.51758 18.795C3.19141 18.7948 3.99708 18.4901 4.78681 17.9007C4.94227 17.7845 4.97431 17.5642 4.85822 17.4087C4.74195 17.2531 4.52167 17.221 4.36622 17.3373C3.36115 18.0873 2.30957 18.3094 1.86536 17.8654C1.62329 17.6231 1.57514 17.1733 1.73316 16.6305C1.9148 16.0069 2.33393 15.3444 2.91327 14.765C3.23792 14.4404 3.58765 14.1667 3.95276 13.9519C5.43592 13.0786 6.75776 12.0774 7.88569 10.9748L8.75599 11.8449C7.65315 12.973 6.65211 14.2948 5.77888 15.778C5.66975 15.9633 5.54139 16.1499 5.3971 16.3324C5.2768 16.4848 5.3028 16.706 5.45515 16.8263C5.5196 16.8772 5.5965 16.9019 5.67286 16.9019C5.77668 16.9019 5.87958 16.8561 5.94898 16.7682C6.11304 16.5606 6.25971 16.3474 6.38477 16.1347C7.22779 14.7028 8.19239 13.4282 9.25331 12.342L11.7271 14.8158C11.9067 14.9956 12.1455 15.0945 12.3996 15.0945C12.4148 15.0945 12.4298 15.093 12.4448 15.0923V16.495C12.4448 17.6067 13.3494 18.511 14.461 18.511C15.5726 18.511 16.477 17.6067 16.477 16.495V14.117C16.477 13.3932 17.0661 12.8042 17.7901 12.8042C18.5139 12.8042 19.1029 13.393 19.1029 14.117V21.9369C19.1029 23.0487 20.0073 23.9531 21.1189 23.9531C22.2307 23.9531 23.1351 23.0487 23.1351 21.9369V17.1947C23.1349 17.0004 22.9776 16.8431 22.7833 16.8431ZM12.4921 0.728348C12.5888 0.631669 12.746 0.631669 12.8427 0.728348L19.0022 6.88802C19.0989 6.98452 19.0989 7.14199 19.0022 7.23849L14.7864 11.4543L13.1419 9.80984L13.8542 9.09756C13.9915 8.96005 13.9915 8.73757 13.8542 8.60024C13.7169 8.4631 13.4942 8.4631 13.3571 8.60024L12.6446 9.31252L10.1547 6.82265L10.8672 6.11037C11.0045 5.97323 11.0045 5.75057 10.8672 5.61324C10.7299 5.47609 10.5072 5.47591 10.3701 5.61324L9.6576 6.32552L9.27876 5.94668L12.0825 3.14296C12.2198 3.00545 12.2198 2.78298 12.0825 2.64565C11.9451 2.50832 11.7225 2.50832 11.5853 2.64565L8.78144 5.44936L8.27625 4.94417L12.4921 0.728348ZM12.2244 14.3186L5.41193 7.50637C5.31525 7.40969 5.31525 7.2524 5.41193 7.15572L7.27741 5.29043C7.32429 5.24355 7.38654 5.21773 7.45265 5.21773C7.51893 5.21773 7.58119 5.24355 7.62806 5.29043L14.4403 12.1027C14.537 12.1994 14.537 12.3567 14.4403 12.4533L12.575 14.3186C12.5282 14.3655 12.4659 14.3913 12.3996 14.3913C12.3333 14.3913 12.2713 14.3655 12.2244 14.3186Z" fill="black"/>
<path d="M7.86594 8.14792C7.72861 8.01059 7.50595 8.01059 7.36862 8.14792C7.23129 8.28525 7.23129 8.50772 7.36862 8.64505L11.0879 12.3643C11.1565 12.4328 11.2464 12.4672 11.3365 12.4672C11.4264 12.4672 11.5163 12.4328 11.585 12.3643C11.7223 12.2268 11.7223 12.0043 11.585 11.867L7.86594 8.14792Z" fill="black"/>
<path d="M20.7904 8.49707H20.7867C20.5925 8.49707 20.437 8.65436 20.437 8.84863C20.437 9.04291 20.5961 9.2002 20.7904 9.2002C20.9847 9.2002 21.142 9.04291 21.142 8.84863C21.142 8.65436 20.9847 8.49707 20.7904 8.49707Z" fill="black"/>
<path d="M21.0802 9.45801C20.886 9.46057 20.7325 9.61987 20.7349 9.81397C20.7373 10.0066 20.896 10.1611 21.0881 10.1611H21.0927C21.2868 10.1586 21.4422 9.99927 21.4398 9.80518C21.4375 9.61255 21.2805 9.45801 21.0883 9.45801C21.0868 9.45801 21.0854 9.45801 21.0839 9.45801H21.0802Z" fill="black"/>
<path d="M18.8966 10.541C18.7023 10.541 18.5469 10.6983 18.5469 10.8926C18.5469 11.0867 18.706 11.2441 18.9003 11.2441C19.0945 11.2441 19.2518 11.0867 19.2518 10.8926C19.2518 10.6983 19.0945 10.541 18.9003 10.541H18.8966Z" fill="black"/>
</g>
<defs>
<clipPath id="clip0">
<rect width="24" height="24" fill="white"/>
</clipPath>
</defs>
</svg>
