<svg width="24" height="24" viewBox="0 0 24 24" fill="none" xmlns="http://www.w3.org/2000/svg">
<path d="M10.875 13.5H13.125V22.5C13.125 22.6989 13.046 22.8897 12.9053 23.0303C12.7647 23.171 12.5739 23.25 12.375 23.25H11.625C11.4261 23.25 11.2353 23.171 11.0947 23.0303C10.954 22.8897 10.875 22.6989 10.875 22.5V13.5Z" fill="#2D2D30"/>
<path d="M19.875 3V7.5H7.5V8.625C7.5 8.82391 7.42098 9.01468 7.28033 9.15533C7.13968 9.29598 6.94891 9.375 6.75 9.375C6.55109 9.375 6.36032 9.29598 6.21967 9.15533C6.07902 9.01468 6 8.82391 6 8.625V12.75C6 12.9489 5.92098 13.1397 5.78033 13.2803C5.63968 13.421 5.44891 13.5 5.25 13.5C5.05109 13.5 4.86032 13.421 4.71967 13.2803C4.57902 13.1397 4.5 12.9489 4.5 12.75V10.5C4.5 10.6989 4.42098 10.8897 4.28033 11.0303C4.13968 11.171 3.94891 11.25 3.75 11.25C3.55109 11.25 3.36032 11.171 3.21967 11.0303C3.07902 10.8897 3 10.6989 3 10.5V7.5H1.875V3H19.875Z" fill="#FFDA44"/>
<path d="M0.75 4.125H1.875V6.375H0.75V4.125Z" fill="#C6C5CA"/>
<path d="M19.875 4.125H21V6.375H19.875V4.125Z" fill="#C6C5CA"/>
<path d="M11.25 12.375H12.75V13.5H11.25V12.375Z" fill="#C6C5CA"/>
<path d="M22.125 4.875H21.375V4.125C21.375 4.02554 21.3355 3.93016 21.2652 3.85984C21.1948 3.78951 21.0995 3.75 21 3.75H20.25V3C20.25 2.90054 20.2105 2.80516 20.1402 2.73484C20.0698 2.66451 19.9745 2.625 19.875 2.625H1.875C1.77554 2.625 1.68016 2.66451 1.60984 2.73484C1.53951 2.80516 1.5 2.90054 1.5 3V3.75H0.75C0.650544 3.75 0.555161 3.78951 0.484835 3.85984C0.414509 3.93016 0.375 4.02554 0.375 4.125V6.375C0.375 6.47446 0.414509 6.56984 0.484835 6.64017C0.555161 6.71049 0.650544 6.75 0.75 6.75H1.5V7.5C1.5 7.59946 1.53951 7.69484 1.60984 7.76517C1.68016 7.83549 1.77554 7.875 1.875 7.875H2.625V10.5C2.62504 10.68 2.66825 10.8573 2.751 11.0171C2.83374 11.1769 2.95361 11.3146 3.10055 11.4185C3.24749 11.5224 3.4172 11.5895 3.59546 11.6143C3.77371 11.6391 3.95531 11.6207 4.125 11.5608V12.75C4.125 13.0484 4.24353 13.3345 4.4545 13.5455C4.66548 13.7565 4.95163 13.875 5.25 13.875C5.54837 13.875 5.83452 13.7565 6.0455 13.5455C6.25647 13.3345 6.375 13.0484 6.375 12.75V9.68578C6.54469 9.74571 6.72629 9.76406 6.90454 9.7393C7.0828 9.71454 7.25251 9.64739 7.39945 9.54348C7.54639 9.43957 7.66626 9.30193 7.749 9.14211C7.83175 8.9823 7.87496 8.80497 7.875 8.625V7.875H19.875C19.9745 7.875 20.0698 7.83549 20.1402 7.76517C20.2105 7.69484 20.25 7.59946 20.25 7.5V6.75H21C21.0995 6.75 21.1948 6.71049 21.2652 6.64017C21.3355 6.56984 21.375 6.47446 21.375 6.375V5.625H22.125C22.3238 5.62526 22.5144 5.70436 22.655 5.84496C22.7956 5.98555 22.8747 6.17617 22.875 6.375V9.375C22.8747 9.57383 22.7956 9.76445 22.655 9.90504C22.5144 10.0456 22.3238 10.1247 22.125 10.125H12C11.9005 10.125 11.8052 10.1645 11.7348 10.2348C11.6645 10.3052 11.625 10.4005 11.625 10.5V12H11.25C11.1505 12 11.0552 12.0395 10.9848 12.1098C10.9145 12.1802 10.875 12.2755 10.875 12.375V13.125C10.7755 13.125 10.6802 13.1645 10.6098 13.2348C10.5395 13.3052 10.5 13.4005 10.5 13.5V22.5C10.5004 22.7982 10.6191 23.0842 10.8299 23.2951C11.0408 23.5059 11.3268 23.6246 11.625 23.625H12.375C12.6732 23.6246 12.9592 23.5059 13.1701 23.2951C13.3809 23.0842 13.4996 22.7982 13.5 22.5V13.5C13.5 13.4005 13.4605 13.3052 13.3902 13.2348C13.3198 13.1645 13.2245 13.125 13.125 13.125V12.375C13.125 12.2755 13.0855 12.1802 13.0152 12.1098C12.9448 12.0395 12.8495 12 12.75 12H12.375V10.875H22.125C22.5227 10.8746 22.904 10.7164 23.1852 10.4352C23.4664 10.154 23.6246 9.77269 23.625 9.375V6.375C23.6246 5.97731 23.4664 5.59604 23.1852 5.31483C22.904 5.03363 22.5227 4.87545 22.125 4.875ZM1.5 6H1.125V4.5H1.5V6ZM19.5 7.125H7.5C7.40054 7.125 7.30516 7.16451 7.23483 7.23483C7.16451 7.30516 7.125 7.40054 7.125 7.5V8.625C7.125 8.72446 7.08549 8.81984 7.01517 8.89017C6.94484 8.96049 6.84946 9 6.75 9C6.65054 9 6.55516 8.96049 6.48483 8.89017C6.41451 8.81984 6.375 8.72446 6.375 8.625C6.375 8.52554 6.33549 8.43016 6.26517 8.35983C6.19484 8.28951 6.09946 8.25 6 8.25C5.90054 8.25 5.80516 8.28951 5.73484 8.35983C5.66451 8.43016 5.625 8.52554 5.625 8.625V12.75C5.625 12.8495 5.58549 12.9448 5.51516 13.0152C5.44484 13.0855 5.34946 13.125 5.25 13.125C5.15054 13.125 5.05516 13.0855 4.98484 13.0152C4.91451 12.9448 4.875 12.8495 4.875 12.75V10.5C4.875 10.4005 4.83549 10.3052 4.76516 10.2348C4.69484 10.1645 4.59946 10.125 4.5 10.125C4.40054 10.125 4.30516 10.1645 4.23484 10.2348C4.16451 10.3052 4.125 10.4005 4.125 10.5C4.125 10.5995 4.08549 10.6948 4.01516 10.7652C3.94484 10.8355 3.84946 10.875 3.75 10.875C3.65054 10.875 3.55516 10.8355 3.48484 10.7652C3.41451 10.6948 3.375 10.5995 3.375 10.5V7.5C3.375 7.40054 3.33549 7.30516 3.26516 7.23483C3.19484 7.16451 3.09946 7.125 3 7.125H2.25V3.375H19.5V7.125ZM20.625 6H20.25V4.5H20.625V6ZM11.625 12.75H12.375V13.125H11.625V12.75ZM12.75 13.875V22.5C12.7499 22.5994 12.7103 22.6947 12.64 22.765C12.5697 22.8353 12.4744 22.8749 12.375 22.875H11.625C11.5256 22.8749 11.4303 22.8353 11.36 22.765C11.2897 22.6947 11.2501 22.5994 11.25 22.5V13.875H12.75Z" fill="black"/>
<path d="M4.5 7.125C4.40054 7.125 4.30516 7.16451 4.23484 7.23483C4.16451 7.30516 4.125 7.40054 4.125 7.5V9.375C4.125 9.47446 4.16451 9.56984 4.23484 9.64017C4.30516 9.71049 4.40054 9.75 4.5 9.75C4.59946 9.75 4.69484 9.71049 4.76516 9.64017C4.83549 9.56984 4.875 9.47446 4.875 9.375V7.5C4.875 7.40054 4.83549 7.30516 4.76516 7.23483C4.69484 7.16451 4.59946 7.125 4.5 7.125Z" fill="black"/>
<path d="M6 6.75C5.90054 6.75 5.80516 6.78951 5.73484 6.85983C5.66451 6.93016 5.625 7.02554 5.625 7.125V7.5C5.625 7.59946 5.66451 7.69484 5.73484 7.76517C5.80516 7.83549 5.90054 7.875 6 7.875C6.09946 7.875 6.19484 7.83549 6.26517 7.76517C6.33549 7.69484 6.375 7.59946 6.375 7.5V7.125C6.375 7.02554 6.33549 6.93016 6.26517 6.85983C6.19484 6.78951 6.09946 6.75 6 6.75Z" fill="black"/>
</svg>
