<svg width="24" height="24" viewBox="0 0 24 24" fill="none" xmlns="http://www.w3.org/2000/svg">
<g clip-path="url(#clip0)">
<path d="M3.29346 4.96875C3.33502 5.72937 4.13208 20.3053 4.16852 20.9725C4.20367 21.4634 4.612 21.8436 5.10382 21.8436H18.8266C19.3185 21.8436 19.8204 21.4634 19.8555 20.9725C19.8912 20.3196 20.6727 6.02783 20.7308 4.96875H3.29346Z" fill="#C4C5C6"/>
<path d="M2.35596 3.56305V3.5625C2.35596 2.78577 2.98547 2.15625 3.76221 2.15625H20.262C21.0387 2.15625 21.6683 2.78577 21.6683 3.5625V3.56305C21.6677 4.3396 21.0387 4.96875 20.262 4.96875H17.637C17.119 4.96875 16.6995 5.38824 16.6995 5.90625V9.65625C16.6995 10.1741 16.28 10.5936 15.762 10.5936C15.244 10.5936 14.8245 10.1741 14.8245 9.65625V8.71875C14.8245 8.20074 14.405 7.78125 13.887 7.78125C13.3692 7.78125 12.9495 8.20074 12.9495 8.71875V10.5936C12.9495 11.1116 12.53 11.5311 12.012 11.5311C11.4942 11.5311 11.0747 11.1116 11.0747 10.5936V7.78125C11.0747 7.26324 10.655 6.84375 10.1372 6.84375C9.61919 6.84375 9.1997 7.26324 9.1997 7.78125V8.71875C9.1997 9.23657 8.78002 9.65625 8.2622 9.65625C7.7442 9.65625 7.3247 9.23657 7.3247 8.71875V5.90625C7.3247 5.38824 6.90521 4.96875 6.3872 4.96875H3.76221C2.99408 4.96875 2.35596 4.34656 2.35596 3.56305Z" fill="#6EBA7B"/>
<path d="M15.7151 16.0002C15.8774 16.4867 15.61 17.0481 15.1067 17.1922C13.0923 17.7694 10.9321 17.7694 8.91754 17.1922C8.52332 17.0792 8.26221 16.7039 8.26221 16.2941C8.26221 15.6679 8.85931 15.2282 9.46924 15.3998C11.0811 15.8537 12.8508 15.8797 14.555 15.3998C15.0607 15.2568 15.5633 15.5371 15.7151 16.0002Z" fill="#3A5361"/>
<path d="M11.9995 19.5C11.7408 19.5 11.5308 19.71 11.5308 19.9688C11.5308 20.2275 11.7408 20.4375 11.9995 20.4375C12.2584 20.4375 12.4683 20.2275 12.4683 19.9688C12.4683 19.71 12.2584 19.5 11.9995 19.5Z" fill="black"/>
<path d="M22.073 3.12836C21.8766 2.30328 21.1337 1.6875 20.2493 1.6875H3.74952C2.86531 1.6875 2.12263 2.3031 1.92598 3.12817C0.862866 3.29865 0.161573 4.10925 0.0207648 5.36737C0.00245428 5.53198 -0.0142083 5.80151 0.0167365 5.96393C0.0376105 8.66107 1.46601 11.4399 3.27308 13.4112L3.688 20.9982C3.688 21.0009 3.68818 21.0035 3.68836 21.006C3.74091 21.7385 4.35706 22.3123 5.09113 22.3123H18.8141C19.5746 22.3123 20.2598 21.7141 20.3105 21.006C20.3107 21.0035 20.3108 21.0007 20.311 20.9982C20.3508 20.393 20.6655 14.5274 20.701 13.8657C22.6046 11.9282 23.9336 9.08789 23.9988 5.77917C24.0231 4.54266 23.4004 3.34113 22.073 3.12836ZM3.74952 2.625H20.2493C20.7334 2.625 21.1332 2.99396 21.1817 3.46582C21.1687 3.52899 21.1683 3.59381 21.1819 3.65845C21.1335 4.13049 20.7336 4.5 20.2493 4.5H17.6243C16.8489 4.5 16.2181 5.1308 16.2181 5.90625V9.65625C16.2181 9.91461 16.0079 10.125 15.7493 10.125C15.491 10.125 15.2806 9.91461 15.2806 9.65625V8.71875C15.2806 7.9433 14.6498 7.3125 13.8743 7.3125C13.0991 7.3125 12.4681 7.9433 12.4681 8.71875V10.5938C12.4681 10.8521 12.2579 11.0625 11.9993 11.0625C11.741 11.0625 11.5306 10.8521 11.5306 10.5938V7.78125C11.5306 7.0058 10.8998 6.375 10.1245 6.375C9.34906 6.375 8.71826 7.0058 8.71826 7.78125V8.71875C8.71826 8.97711 8.50788 9.1875 8.24952 9.1875C7.99097 9.1875 7.78077 8.97711 7.78077 8.71875V5.90625C7.78077 5.1308 7.14997 4.5 6.37452 4.5H3.74952C3.27418 4.5 2.86897 4.14331 2.81788 3.66248C2.83198 3.59747 2.83308 3.53156 2.8177 3.46161C2.86823 2.99194 3.26667 2.625 3.74952 2.625ZM15.9542 15.4737C15.6168 15.0062 15.0083 14.781 14.4154 14.9485C13.6315 15.1692 12.8187 15.2811 11.9995 15.2811C11.1803 15.2811 10.3675 15.1692 9.58344 14.9485C8.99695 14.7834 8.39673 15.0007 8.05579 15.4583C6.77057 15.1373 5.41376 14.2822 4.19044 13.0188L3.77589 5.4375H6.37452C6.63306 5.4375 6.84327 5.64771 6.84327 5.90625V8.71857C6.84327 9.49402 7.47406 10.1248 8.24952 10.1248C9.02497 10.1248 9.65576 9.49402 9.65576 8.71857V7.78107C9.65576 7.52271 9.86597 7.31232 10.1245 7.31232C10.3829 7.31232 10.5933 7.52271 10.5933 7.78107V10.5936C10.5933 11.369 11.2241 11.9998 11.9995 11.9998C12.7748 11.9998 13.4058 11.369 13.4058 10.5936V8.71857C13.4058 8.46021 13.616 8.24982 13.8745 8.24982C14.1329 8.24982 14.3433 8.46021 14.3433 8.71857V9.65607C14.3433 10.4315 14.9741 11.0623 15.7493 11.0623C16.5248 11.0623 17.1556 10.4315 17.1556 9.65607V5.90625C17.1556 5.64771 17.366 5.4375 17.6243 5.4375H20.223L19.7848 13.452C18.66 14.5133 17.344 15.2075 15.9542 15.4737ZM8.74225 16.1439C8.81787 15.9177 9.06653 15.7769 9.32947 15.8509C10.1959 16.095 11.0942 16.2186 11.9993 16.2186C12.9044 16.2186 13.8027 16.095 14.6699 15.8507C14.9763 15.7641 15.2806 15.9747 15.2806 16.294C15.2806 16.5042 15.1508 16.6882 14.9649 16.7415C14.0049 17.0165 13.0071 17.1561 11.9993 17.1561C10.9917 17.1561 9.99396 17.0165 9.03394 16.7415C8.78693 16.6708 8.6615 16.3824 8.74225 16.1439ZM0.937756 5.78394C0.929333 5.58545 0.968701 4.87061 1.35945 4.42822C1.51399 4.25317 1.70826 4.13763 1.94685 4.07849C2.08107 4.54889 2.39491 4.95099 2.82374 5.1936L3.1872 11.8427C0.768017 8.625 0.984814 5.95789 0.937756 5.78394ZM18.814 21.3748H5.09113C4.84742 21.3748 4.64271 21.1851 4.62366 20.9423L4.59602 20.4373H10.2487C10.5076 20.4373 10.7174 20.2275 10.7174 19.9686C10.7174 19.7097 10.5076 19.4998 10.2487 19.4998H4.54475L4.26496 14.3826C5.39435 15.3701 6.60706 16.0519 7.78333 16.3561C7.80933 16.9565 8.20942 17.4805 8.77576 17.6428C9.81983 17.942 10.9044 18.0936 11.9993 18.0936C13.0945 18.0936 14.179 17.942 15.2231 17.6428C15.7826 17.4825 16.1802 16.9691 16.2148 16.3775C17.4619 16.1246 18.6506 15.5689 19.7139 14.7453L19.4539 19.4998H13.8743C13.6154 19.4998 13.4056 19.7098 13.4056 19.9686C13.4056 20.2275 13.6154 20.4373 13.8743 20.4373H19.4028L19.3752 20.9421C19.357 21.1609 19.0804 21.3748 18.814 21.3748ZM23.0611 5.78394C23.0179 5.9436 23.2193 9.21039 20.784 12.3481L21.1753 5.19232C21.5961 4.95209 21.9152 4.55347 22.0516 4.07831C22.2904 4.13727 22.4849 4.25299 22.6394 4.42822C23.03 4.87061 23.0695 5.58545 23.0611 5.78394Z" fill="black"/>
</g>
<defs>
<clipPath id="clip0">
<rect width="24" height="24" fill="white"/>
</clipPath>
</defs>
</svg>
