<svg width="31" height="30" viewBox="0 0 31 30" fill="none" xmlns="http://www.w3.org/2000/svg">
<path d="M14.4585 21.6C10.1091 21.6 6.60547 18.12 6.60547 13.8C6.60547 9.48 10.1091 6 14.4585 6C18.8079 6 22.3116 9.48 22.3116 13.8C22.3116 18.12 18.8079 21.6 14.4585 21.6ZM14.4585 7.2C10.7736 7.2 7.81363 10.14 7.81363 13.8C7.81363 17.46 10.7736 20.4 14.4585 20.4C18.1434 20.4 21.1034 17.46 21.1034 13.8C21.1034 10.14 18.1434 7.2 14.4585 7.2Z" fill="black"/>
<path d="M20.3073 18.7598L25.732 24.1478L24.8778 24.9962L19.4531 19.6082L20.3073 18.7598Z" fill="black"/>
</svg>
