<svg width="16" height="16" viewBox="0 0 16 16" fill="none" xmlns="http://www.w3.org/2000/svg">
<g clip-path="url(#clip0)">
<path d="M12.3343 8.00068C9.94231 7.99774 8.00394 6.05936 8.001 3.66733C8.001 3.55467 8.00966 3.44467 8.01766 3.33398H3.001C2.81691 3.33414 2.66781 3.48352 2.66797 3.66764C2.668 3.68811 2.66991 3.70855 2.67366 3.72867L3.67366 9.06203C3.70316 9.21962 3.84066 9.33387 4.001 9.33403H13.157C13.9976 9.33412 14.7068 8.70818 14.811 7.87402L14.9017 7.15002C14.1595 7.70202 13.2593 8.0003 12.3343 8.00068Z" fill="#FFC107"/>
<path d="M12.3327 16.0013C13.2531 16.0013 13.9993 15.2551 13.9993 14.3346C13.9993 13.4142 13.2531 12.668 12.3327 12.668C11.4122 12.668 10.666 13.4142 10.666 14.3346C10.666 15.2551 11.4122 16.0013 12.3327 16.0013Z" fill="#333333"/>
<path d="M5.66666 16.0013C6.58712 16.0013 7.33331 15.2551 7.33331 14.3346C7.33331 13.4142 6.58712 12.668 5.66666 12.668C4.74619 12.668 4 13.4142 4 14.3346C4 15.2551 4.74619 16.0013 5.66666 16.0013Z" fill="#333333"/>
<path d="M13.6667 12.0007H5.97266C4.86137 11.9984 3.90506 11.2145 3.68466 10.1253L2.06 2.00067H0.333344C0.14925 2.00067 0 1.85142 0 1.66733C0 1.48323 0.14925 1.33398 0.333344 1.33398H2.33334C2.49178 1.33395 2.62831 1.44542 2.66 1.60064L4.33866 9.99399C4.496 10.772 5.17891 11.332 5.97266 11.334H13.6667C13.8507 11.334 14 11.4832 14 11.6673C14 11.8514 13.8507 12.0007 13.6667 12.0007Z" fill="#333333"/>
<path d="M12.3327 7.33331C14.3577 7.33331 15.9993 5.69169 15.9993 3.66666C15.9993 1.64162 14.3577 0 12.3327 0C10.3076 0 8.66602 1.64162 8.66602 3.66666C8.66602 5.69169 10.3076 7.33331 12.3327 7.33331Z" fill="#4CAF50"/>
<path d="M11.6668 5.33319C11.5783 5.33334 11.4934 5.29834 11.4308 5.23584L10.0975 3.9025C9.96959 3.77009 9.97325 3.55906 10.1057 3.43116C10.2348 3.30641 10.4396 3.30641 10.5688 3.43116L11.6668 4.5285L14.0974 2.09784C14.2254 1.96544 14.4364 1.96178 14.5688 2.08966C14.7012 2.21753 14.7049 2.42856 14.577 2.561C14.5743 2.56378 14.5716 2.5665 14.5688 2.56919L11.9021 5.23584C11.8397 5.29816 11.7551 5.33316 11.6668 5.33319Z" fill="#FAFAFA"/>
</g>
<defs>
<clipPath id="clip0">
<rect width="16" height="16" fill="white"/>
</clipPath>
</defs>
</svg>
