<svg width="170" height="245" viewBox="0 0 170 245" fill="none" xmlns="http://www.w3.org/2000/svg">
<rect width="170" height="245" rx="4" fill="url(#paint0_angular)"/>
<g clip-path="url(#clip0)">
<path d="M109.859 64.6359C108.263 62.8775 106.341 62.0188 103.886 62.0188H98.7151L95.32 58.7476C92.8248 60.7922 89.7978 61.978 86.5253 61.978C83.4574 61.978 80.5532 60.9148 78.1807 59.0747L75.1536 61.978H69.7716C67.0309 61.978 64.9039 62.9185 63.2268 64.8406C58.3591 70.4836 59.1772 82.5469 59.5454 86.268H114.031C114.317 82.5057 114.808 70.1563 109.859 64.6359Z" fill="#EBEBEB"/>
<path d="M72.3469 39.0376C71.3652 39.8554 70.7107 41.164 70.7107 42.677C70.7107 44.9261 72.1833 46.7662 74.0649 47.0933C74.4739 50.4874 75.8647 53.4725 77.9509 55.6807C78.4007 56.1305 78.8506 56.5803 79.3415 56.9483C79.9552 57.439 80.6095 57.8479 81.3049 58.216C82.8593 59.0337 84.5772 59.4835 86.418 59.4835C88.2587 59.4835 89.9769 59.0337 91.5311 58.216C92.2265 57.8479 92.881 57.439 93.4946 56.9483C93.9855 56.5803 94.4354 56.1305 94.8853 55.6807C96.9306 53.4726 98.3622 50.5283 98.7304 47.1342C98.7714 47.1342 98.8122 47.1342 98.8531 47.1342C101.021 47.1342 102.739 45.1305 102.739 42.677C102.739 41.164 102.085 39.8554 101.103 39.0376H72.3469Z" fill="#EBEBEB"/>
<path d="M101.365 30.4504C100.097 26.2385 96.7427 21.9449 92.4886 19.7367V29.3463V30.6549C92.4886 30.7367 92.4886 30.7775 92.4886 30.8184C92.4477 31.2682 92.3659 31.6772 92.1615 32.0861C91.6296 33.1084 90.5661 33.8444 89.3391 33.8444H88.6846H84.1851C83.0397 33.8444 82.017 33.2311 81.4854 32.3314C81.2399 31.9634 81.1172 31.5546 81.0354 31.1047C80.9945 30.9411 80.9945 30.8184 80.9945 30.6549V29.5099V19.6958C76.7404 21.9449 73.3862 26.2385 72.1182 30.4504L71.8318 31.35H69.5002V36.4615H72.0772H75.6769H77.1904H96.9066H98.3792H103.953V36.2162V31.35H101.652L101.365 30.4504Z" fill="#EBEBEB"/>
<path d="M84.1701 32.5767H89.2832C90.0195 32.5767 90.6331 32.1678 90.9603 31.5544C91.1239 31.2682 91.2057 30.9819 91.2057 30.6548V30.2868V28.7738V19.1232V17.7329V17.2013C91.2057 16.8742 91.1239 16.5879 91.0421 16.3017C90.6741 15.3612 89.7333 14.666 88.6698 14.666H84.1701C83.1884 14.666 82.3703 15.4021 82.2885 16.3426C82.2885 16.4244 82.2476 16.5062 82.2476 16.5879V17.7329V19.1232V28.9373V30.4912V30.6548C82.2476 31.0637 82.3703 31.4318 82.5748 31.7589C82.9431 32.2496 83.5156 32.5767 84.1701 32.5767Z" fill="#EBEBEB"/>
</g>
<rect x="19.2852" y="111.692" width="103.402" height="7.20588" rx="1.77809" fill="#EBEBEB"/>
<rect x="19.2852" y="127.904" width="85.8763" height="7.20588" rx="1.77809" fill="#EBEBEB"/>
<rect x="19.2852" y="144.12" width="70.1031" height="7.20588" rx="1.77809" fill="#EBEBEB"/>
<rect x="19.2852" y="199.963" width="112.165" height="19.8162" rx="1.77809" fill="#EBEBEB"/>
<defs>
<radialGradient id="paint0_angular" cx="0" cy="0" r="1" gradientUnits="userSpaceOnUse" gradientTransform="translate(170 4.50368) rotate(125.544) scale(283.392 200.399)">
<stop offset="0.00608867" stop-color="#7979FF"/>
<stop offset="1" stop-color="#7A7AFF" stop-opacity="0.85"/>
</radialGradient>
<clipPath id="clip0">
<rect width="71.6244" height="71.6021" fill="white" transform="translate(50.9141 14.666)"/>
</clipPath>
</defs>
</svg>
