<svg width="81" height="25" viewBox="0 0 81 25" fill="none" xmlns="http://www.w3.org/2000/svg">
<path d="M56.7435 14.3408L56.7651 14.3863L56.8083 14.4544L56.9163 14.5908C56.9811 14.6817 57.0675 14.7499 57.1539 14.8408L57.4346 15.0681L57.7155 15.2953C58.1259 15.5681 58.5579 15.8181 59.0115 15.9999C59.9403 16.3863 60.9555 16.5681 61.9923 16.659H62.7697C62.8993 16.659 63.0289 16.659 63.1585 16.659L63.5473 16.6363C63.8065 16.6135 64.0657 16.5908 64.3467 16.5681L65.1243 16.4544C65.6427 16.3863 66.1611 16.2499 66.7013 16.1363L67.5001 15.9544L67.9107 15.8635L68.3213 15.7953C69.4441 15.6135 70.5893 15.5681 71.7121 15.7726C72.2741 15.8635 72.8137 16.0226 73.3539 16.2044C73.8941 16.409 74.3907 16.659 74.8873 16.9544C75.8593 17.5453 76.7235 18.2953 77.4793 19.159C78.2139 20.0226 78.8619 20.9771 79.3585 21.9999C78.8189 20.9999 78.1061 20.1135 77.3285 19.3181C76.5509 18.5226 75.6649 17.8635 74.6929 17.3635C74.2181 17.1135 73.7209 16.909 73.2025 16.7726C72.6841 16.6363 72.1657 16.4999 71.6473 16.4771C70.5893 16.3635 69.5307 16.4771 68.5157 16.7271L68.1269 16.8181L67.7381 16.9317L66.9605 17.1817C66.4203 17.3408 65.9019 17.5226 65.3405 17.6363L64.5193 17.8181C64.2389 17.8635 63.9579 17.909 63.6769 17.9544L63.2451 18.0226C63.0937 18.0453 62.9641 18.0453 62.8133 18.0453L61.9491 18.0908C60.8043 18.0908 59.6163 17.9544 58.4931 17.5681C57.9315 17.3863 57.3698 17.1135 56.8299 16.7953C56.7003 16.7044 56.5707 16.6363 56.4411 16.5453L56.0523 16.2499C55.9227 16.1363 55.8146 16.0453 55.685 15.909C55.5554 15.7726 55.4691 15.6817 55.3179 15.4771L56.7435 14.3408Z" fill="white"/>
<path d="M12.4202 15.2727C11.3402 15.2727 10.3682 14.6363 9.89304 13.6135H9.80662C9.2666 14.3408 8.70502 14.8181 8.12182 15.0908C7.56024 15.3635 6.80419 15.4772 5.91861 15.4772C4.79541 15.4772 3.93141 15.1363 3.28341 14.4317C2.63541 13.7272 2.33301 12.7499 2.33301 11.4545C2.33301 10.1363 2.76501 9.13629 3.65061 8.49991C4.53621 7.84079 5.78901 7.47716 7.4522 7.40898L9.41782 7.34079V7.15898C9.41782 6.13627 8.9426 5.61354 7.97059 5.61354C7.68984 5.61354 7.3874 5.63627 7.04184 5.70446C5.57301 5.99991 4.10421 5.13627 3.49941 3.70446C4.88181 2.95445 6.6098 2.59082 8.72664 2.59082C10.2386 2.59082 11.4266 2.97718 12.2474 3.77264C13.0898 4.56809 13.5002 5.659 13.5002 7.09079V15.2499H12.4202V15.2727ZM7.62504 12.4545C8.12182 12.4545 8.53224 12.2954 8.89942 11.9545C9.24504 11.6135 9.41782 11.2045 9.41782 10.659V9.68173L8.46744 9.72716C7.1282 9.77266 6.45864 10.2954 6.45864 11.2954C6.4802 12.0681 6.869 12.4545 7.62504 12.4545Z" fill="white"/>
<path d="M20.369 17.5454C18.1226 17.5454 16.2866 15.6135 16.2866 13.2499V5.09082C18.533 5.09082 20.369 7.02266 20.369 9.38629V17.5454Z" fill="white"/>
<path d="M37.8809 21.8154V9.81535C37.8809 8.97441 37.7729 8.33804 37.5569 7.92898C37.3409 7.49716 36.9953 7.2926 36.5201 7.2926C35.8937 7.2926 35.4401 7.56535 35.1377 8.13354C34.8353 8.70173 34.7057 9.58804 34.7057 10.7699V22.0199H30.6233V9.81535C30.6233 8.97441 30.5153 8.33804 30.2993 7.92898C30.0833 7.49716 29.7593 7.2926 29.2841 7.2926C28.6361 7.2926 28.1825 7.58804 27.8801 8.20173C27.5777 8.7926 27.4481 9.7926 27.4481 11.1562V21.838C25.2017 21.838 23.3657 19.9062 23.3657 17.5426V4.13353H26.4545L26.9729 5.67898H27.2105C27.5345 5.11079 27.9881 4.67898 28.5713 4.36079C29.1761 4.06534 29.8457 3.90625 30.6017 3.90625C32.3081 3.90625 33.4961 4.45171 34.1873 5.54261H34.5113C34.8353 5.01989 35.3105 4.63353 35.9153 4.33807C36.5201 4.04261 37.1681 3.90625 37.8809 3.90625C39.2849 3.90625 40.3217 4.29261 40.9913 5.04261C41.6609 5.79261 41.9849 6.95173 41.9849 8.47441V17.4972C41.9633 19.8835 40.1273 21.8154 37.8809 21.8154Z" fill="white"/>
<path d="M44.626 17.5454V9.38629C44.626 7.02266 46.4619 5.09082 48.7084 5.09082V13.2499C48.7084 15.6135 46.8724 17.5454 44.626 17.5454Z" fill="white"/>
<path d="M53.9786 8.77271L50.6955 3.22723C50.5875 3.04541 50.7171 2.81814 50.9115 2.81814H53.1362C54.3243 2.81814 55.4259 3.49995 56.0091 4.61359L56.6571 5.86359C56.7434 6.04541 57.0026 6.04541 57.1107 5.86359L57.7802 4.56814C58.3634 3.47723 59.4435 2.79541 60.6315 2.79541H62.878C63.0724 2.79541 63.202 3.02268 63.0936 3.2045L59.7242 8.72721C59.6594 8.81815 59.6594 8.93177 59.7242 9.02271L63.245 14.8181C63.3528 15 63.2232 15.2272 63.0288 15.2272H60.9339C59.6595 15.2272 58.4715 14.5 57.8666 13.3181L57.1107 11.8636C57.0026 11.6818 56.765 11.6818 56.6571 11.8636L55.8362 13.409C55.2531 14.5227 54.1515 15.2045 52.9418 15.2045H50.7171C50.5227 15.2045 50.3931 14.9772 50.5011 14.7954L53.9786 8.99996C54.0434 8.97721 54.0434 8.86358 53.9786 8.77271Z" fill="white"/>
</svg>
