<svg width="1440" height="535" viewBox="0 0 1440 535" fill="none" xmlns="http://www.w3.org/2000/svg">
<g clip-path="url(#clip0)">
<rect width="1441" height="535" fill="white" fill-opacity="0.1"/>
<rect x="-1.42969" width="1443.85" height="721.927" fill="#00950F"/>
<g filter="url(#filter0_f)">
<path d="M227.969 -197.046C359.636 -212.447 421.566 -102.216 487.794 7.28874C528.046 73.8434 539.383 121.529 553.147 190.511C569.934 274.654 574.508 342.589 533.424 416.672C499.731 477.425 456.871 515.944 391.809 543.208C280.961 589.659 140.108 607.256 39.7272 542.154C-24.3388 500.605 -80.7554 463.324 -79.798 387.731C-78.7486 304.863 68.1616 232.002 68.1616 232.002C68.1616 232.002 143.281 176.421 115.589 108.706C85.4488 35.0064 40.8197 -16.4881 61.7553 -87.5907C83.3696 -160.998 150.233 -187.953 227.969 -197.046Z" fill="url(#paint0_linear)" fill-opacity="0.7"/>
</g>
<g filter="url(#filter1_f)">
<path d="M394.779 320.421C357.995 238.487 413.961 127.448 413.961 127.448C413.961 127.448 464.628 -7.22626 522.119 -76.8072C597.517 -168.06 652.309 -240.577 770.227 -250.926C930.326 -264.977 1007.84 -133.43 1095.36 1.36715C1184.7 138.976 1389.92 623.115 1295.2 757.078C1257.69 810.136 1281.47 790.275 1217.43 801.313C1144.19 813.937 958.099 448.398 884.363 439.029C774.949 425.127 771.929 818.175 645.929 836.987C519.93 855.799 376.944 494.514 394.779 320.421Z" fill="url(#paint1_linear)" fill-opacity="0.7"/>
</g>
<g filter="url(#filter2_f)">
<path d="M1678.78 514.289C1574.72 578.597 1479.94 510.762 1381.84 445.214C1322.22 405.375 1294.14 369.991 1255.72 317.775C1208.85 254.083 1178.52 199.151 1183.96 121.244C1188.42 57.3552 1209.22 8.44786 1252.98 -39.7382C1327.52 -121.834 1438.4 -191.564 1547.72 -176.433C1617.5 -166.777 1679.21 -157.695 1707.9 -94.2077C1739.36 -24.6102 1444.95 85.589 1444.95 85.589C1444.95 85.589 1332.27 132.285 1381.84 178C1435.8 227.756 1764.79 290.411 1775.03 357.956C1785.6 427.691 1740.22 476.322 1678.78 514.289Z" fill="url(#paint2_linear)" fill-opacity="0.7"/>
</g>
</g>
<defs>
<filter id="filter0_f" x="-87.0431" y="-205.726" width="659.646" height="797.7" filterUnits="userSpaceOnUse" color-interpolation-filters="sRGB">
<feFlood flood-opacity="0" result="BackgroundImageFix"/>
<feBlend mode="normal" in="SourceGraphic" in2="BackgroundImageFix" result="shape"/>
<feGaussianBlur stdDeviation="3.61679" result="effect1_foregroundBlur"/>
</filter>
<filter id="filter1_f" x="369.305" y="-264.912" width="963.27" height="1115.56" filterUnits="userSpaceOnUse" color-interpolation-filters="sRGB">
<feFlood flood-opacity="0" result="BackgroundImageFix"/>
<feBlend mode="normal" in="SourceGraphic" in2="BackgroundImageFix" result="shape"/>
<feGaussianBlur stdDeviation="6.4759" result="effect1_foregroundBlur"/>
</filter>
<filter id="filter2_f" x="1176.1" y="-185.745" width="607.699" height="733.163" filterUnits="userSpaceOnUse" color-interpolation-filters="sRGB">
<feFlood flood-opacity="0" result="BackgroundImageFix"/>
<feBlend mode="normal" in="SourceGraphic" in2="BackgroundImageFix" result="shape"/>
<feGaussianBlur stdDeviation="3.61679" result="effect1_foregroundBlur"/>
</filter>
<linearGradient id="paint0_linear" x1="635.725" y1="576.172" x2="-34.8029" y2="-161.16" gradientUnits="userSpaceOnUse">
<stop stop-color="#0A4619"/>
<stop offset="1" stop-color="#002D04" stop-opacity="0.28"/>
</linearGradient>
<linearGradient id="paint1_linear" x1="1056.21" y1="439.178" x2="499.411" y2="447.241" gradientUnits="userSpaceOnUse">
<stop stop-color="#0F421D"/>
<stop offset="1" stop-color="#2F7435" stop-opacity="0.09"/>
</linearGradient>
<linearGradient id="paint2_linear" x1="1426.5" y1="102" x2="1209.9" y2="234.154" gradientUnits="userSpaceOnUse">
<stop stop-color="#0B3E15"/>
<stop offset="1" stop-color="#002D04" stop-opacity="0.28"/>
</linearGradient>
<clipPath id="clip0">
<rect width="1441" height="535" fill="white"/>
</clipPath>
</defs>
</svg>
