<svg width="180" height="250" viewBox="0 0 180 250" fill="none" xmlns="http://www.w3.org/2000/svg">
<rect width="80" height="115" rx="3.3662" fill="url(#paint0_angular)"/>
<rect x="9.07422" y="9.30176" width="61.8557" height="37.2059" rx="1.49635" fill="#EBEBEB"/>
<rect x="9.07422" y="52.4268" width="48.6598" height="3.38235" rx="1.49635" fill="#EBEBEB"/>
<rect x="9.07422" y="60.0366" width="40.4124" height="3.38235" rx="1.49635" fill="#EBEBEB"/>
<rect x="9.07422" y="67.6479" width="32.9897" height="3.38235" rx="1.49635" fill="#EBEBEB"/>
<rect x="9.07422" y="93.8599" width="52.7835" height="9.30147" rx="1.49635" fill="#EBEBEB"/>
<rect x="100" width="80" height="115" rx="3.3662" fill="url(#paint1_angular)"/>
<rect x="109.074" y="9.30176" width="61.8557" height="37.2059" rx="1.49635" fill="#EBEBEB"/>
<rect x="109.074" y="52.4268" width="48.6598" height="3.38235" rx="1.49635" fill="#EBEBEB"/>
<rect x="109.074" y="60.0366" width="40.4124" height="3.38235" rx="1.49635" fill="#EBEBEB"/>
<rect x="109.074" y="67.6479" width="32.9897" height="3.38235" rx="1.49635" fill="#EBEBEB"/>
<rect x="109.074" y="93.8599" width="52.7835" height="9.30147" rx="1.49635" fill="#EBEBEB"/>
<rect x="100" y="135" width="80" height="115" rx="3.3662" fill="url(#paint2_angular)"/>
<rect x="109.074" y="144.302" width="61.8557" height="37.2059" rx="1.49635" fill="#EBEBEB"/>
<rect x="109.074" y="187.427" width="48.6598" height="3.38235" rx="1.49635" fill="#EBEBEB"/>
<rect x="109.074" y="195.037" width="40.4124" height="3.38235" rx="1.49635" fill="#EBEBEB"/>
<rect x="109.074" y="202.648" width="32.9897" height="3.38235" rx="1.49635" fill="#EBEBEB"/>
<rect x="109.074" y="228.86" width="52.7835" height="9.30147" rx="1.49635" fill="#EBEBEB"/>
<rect y="135" width="80" height="115" rx="3.3662" fill="url(#paint3_angular)"/>
<rect x="9.07422" y="144.302" width="61.8557" height="37.2059" rx="1.49635" fill="#EBEBEB"/>
<rect x="9.07422" y="187.427" width="48.6598" height="3.38235" rx="1.49635" fill="#EBEBEB"/>
<rect x="9.07422" y="195.037" width="40.4124" height="3.38235" rx="1.49635" fill="#EBEBEB"/>
<rect x="9.07422" y="202.648" width="32.9897" height="3.38235" rx="1.49635" fill="#EBEBEB"/>
<rect x="9.07422" y="228.86" width="52.7835" height="9.30147" rx="1.49635" fill="#EBEBEB"/>
<defs>
<radialGradient id="paint0_angular" cx="0" cy="0" r="1" gradientUnits="userSpaceOnUse" gradientTransform="translate(80 2.11397) rotate(125.613) scale(133.136 94.2238)">
<stop offset="0.00608867" stop-color="#7979FF"/>
<stop offset="1" stop-color="#7A7AFF" stop-opacity="0.85"/>
</radialGradient>
<radialGradient id="paint1_angular" cx="0" cy="0" r="1" gradientUnits="userSpaceOnUse" gradientTransform="translate(180 2.11397) rotate(125.613) scale(133.136 94.2238)">
<stop offset="0.00608867" stop-color="#7979FF"/>
<stop offset="1" stop-color="#7A7AFF" stop-opacity="0.85"/>
</radialGradient>
<radialGradient id="paint2_angular" cx="0" cy="0" r="1" gradientUnits="userSpaceOnUse" gradientTransform="translate(180 137.114) rotate(125.613) scale(133.136 94.2238)">
<stop offset="0.00608867" stop-color="#7979FF"/>
<stop offset="1" stop-color="#7A7AFF" stop-opacity="0.85"/>
</radialGradient>
<radialGradient id="paint3_angular" cx="0" cy="0" r="1" gradientUnits="userSpaceOnUse" gradientTransform="translate(80 137.114) rotate(125.613) scale(133.136 94.2238)">
<stop offset="0.00608867" stop-color="#7979FF"/>
<stop offset="1" stop-color="#7A7AFF" stop-opacity="0.85"/>
</radialGradient>
</defs>
</svg>
