<svg width="175" height="46" viewBox="0 0 175 46" fill="none" xmlns="http://www.w3.org/2000/svg">
<path d="M162.453 17.4247V36.9403H159.664V17.4247H162.453Z" fill="#F2F2F2" stroke="#F2F2F2" stroke-width="2.78787"/>
<path d="M39.6605 36.6963V26.3254C39.6605 25.043 39.7024 23.7327 39.786 22.3945C39.8975 21.0285 40.009 19.8855 40.1205 18.9655C40.232 18.0455 40.3017 17.46 40.3296 17.2091H40.1623L34.8515 36.6963H27.6169L22.2642 17.2509H22.097C22.1249 17.5018 22.1945 18.0873 22.3061 19.0073C22.4455 19.8994 22.5709 21.0285 22.6824 22.3945C22.7939 23.7327 22.8497 25.043 22.8497 26.3254V36.6963H14.3606V7.9255H27.4079L31.7569 24.5272H31.9242L36.2315 7.9255H48.8187V36.6963H39.6605ZM68.7381 7.42369C73.7005 7.42369 77.5338 8.69217 80.238 11.2291C82.9423 13.7661 84.2944 17.46 84.2944 22.3109C84.2944 27.1618 82.9423 30.8557 80.238 33.3927C77.5338 35.9296 73.7005 37.1981 68.7381 37.1981C63.7757 37.1981 59.9424 35.9436 57.2381 33.4345C54.5618 30.8975 53.2236 27.1897 53.2236 22.3109C53.2236 17.4321 54.5618 13.7382 57.2381 11.2291C59.9424 8.69217 63.7757 7.42369 68.7381 7.42369ZM68.7381 14.3237C66.7587 14.3237 65.2533 14.923 64.2217 16.1218C63.1902 17.3206 62.6745 18.9376 62.6745 20.9727V23.6491C62.6745 25.6842 63.1902 27.3012 64.2217 28.5C65.2533 29.6987 66.7587 30.2981 68.7381 30.2981C70.7175 30.2981 72.2229 29.6987 73.2544 28.5C74.3138 27.3012 74.8435 25.6842 74.8435 23.6491V20.9727C74.8435 18.9376 74.3138 17.3206 73.2544 16.1218C72.2229 14.923 70.7175 14.3237 68.7381 14.3237ZM89.2711 7.9255H98.5128V29.3363H113.275V36.6963H89.2711V7.9255ZM130.771 7.42369C135.733 7.42369 139.567 8.69217 142.271 11.2291C144.975 13.7661 146.327 17.46 146.327 22.3109C146.327 27.1618 144.975 30.8557 142.271 33.3927C139.567 35.9296 135.733 37.1981 130.771 37.1981C125.808 37.1981 121.975 35.9436 119.271 33.4345C116.595 30.8975 115.256 27.1897 115.256 22.3109C115.256 17.4321 116.595 13.7382 119.271 11.2291C121.975 8.69217 125.808 7.42369 130.771 7.42369ZM130.771 14.3237C128.791 14.3237 127.286 14.923 126.254 16.1218C125.223 17.3206 124.707 18.9376 124.707 20.9727V23.6491C124.707 25.6842 125.223 27.3012 126.254 28.5C127.286 29.6987 128.791 30.2981 130.771 30.2981C132.75 30.2981 134.256 29.6987 135.287 28.5C136.347 27.3012 136.876 25.6842 136.876 23.6491V20.9727C136.876 18.9376 136.347 17.3206 135.287 16.1218C134.256 14.923 132.75 14.3237 130.771 14.3237Z" fill="#F2F2F2"/>
<rect y="9.06055" width="9.06372" height="28.5756" fill="#F2F2F2"/>
<rect width="9.06372" height="6.96967" fill="#F2F2F2"/>
<rect x="147.809" y="2.78809" width="26.494" height="11.8484" rx="1.39393" fill="#F2F2F2"/>
<path d="M162.81 5.50406C163.497 5.95785 164.019 6.6205 164.3 7.39402C164.581 8.16754 164.605 9.01087 164.37 9.79932C164.134 10.5878 163.651 11.2795 162.991 11.7722C162.332 12.2649 161.532 12.5324 160.708 12.5352C159.885 12.538 159.083 12.2759 158.42 11.7877C157.758 11.2995 157.27 10.6111 157.029 9.82432C156.788 9.03749 156.806 8.19402 157.082 7.4186C157.358 6.64318 157.875 5.97699 158.559 5.51853" stroke="#2F2F59" stroke-width="0.696967"/>
<rect x="160.355" y="4.87793" width="0.696967" height="5.57573" fill="#2F2F59"/>
<rect x="158.27" width="5.57768" height="1.39393" fill="#F2F2F2"/>
</svg>
