<svg width="29" height="29" viewBox="0 0 29 29" fill="none" xmlns="http://www.w3.org/2000/svg">
<path d="M23.1717 26.5484L21.2969 27.1352L19.677 27.6421H11.169L9.51563 22.3598L4.07812 4.98588L9.51563 3.28383L15.3213 1.4668L21.2969 20.5587L23.1717 26.5484Z" fill="#379A6B"/>
<path d="M19.1977 24.4672L19.6037 25.7645L14.4145 27.3887L14.0084 26.0913L12.7111 26.4974L6.75586 7.47004L8.05316 7.06404L7.64716 5.76669L12.8364 4.14258L13.2425 5.43987L14.5398 5.03382L20.495 24.0612L19.1977 24.4672Z" fill="#44C086"/>
<path d="M9.51562 1.35938H21.2969V27.6406H9.51562V1.35938Z" fill="#3BA673"/>
<path d="M18.125 24.4688V25.8281H12.6875V24.4688H11.3281V4.53125H12.6875V3.17188H18.125V4.53125H19.4844V24.4688H18.125Z" fill="#44C086"/>
<path d="M15.4062 16.7656C16.6575 16.7656 17.6719 15.7513 17.6719 14.5C17.6719 13.2487 16.6575 12.2344 15.4062 12.2344C14.155 12.2344 13.1406 13.2487 13.1406 14.5C13.1406 15.7513 14.155 16.7656 15.4062 16.7656Z" fill="#3BA673"/>
<path d="M24.9229 16.7656V27.6406H21.751C20.5493 27.6406 19.3967 27.1632 18.5469 26.3135C17.6972 25.4637 17.2198 24.3111 17.2198 23.1094H17.2288L14.2892 18.7591C14.0201 18.3608 13.9202 17.8719 14.0116 17.3999C14.1029 16.928 14.378 16.5117 14.7763 16.2425C15.1746 15.9734 15.6635 15.8736 16.1355 15.9649C16.6074 16.0563 17.0237 16.3313 17.2928 16.7297L19.9385 20.3906H21.2979V9.51562L24.7096 15.9127C24.8497 16.1752 24.9229 16.4681 24.9229 16.7656Z" fill="#F5CBAA"/>
<path d="M9.06252 22.4276V27.6406C9.06252 27.7608 9.11026 27.8761 9.19524 27.961C9.28022 28.046 9.39547 28.0938 9.51565 28.0938H24.9219C25.0421 28.0938 25.1573 28.046 25.2423 27.961C25.3273 27.8761 25.375 27.7608 25.375 27.6406V16.7656C25.3747 16.3938 25.2832 16.0277 25.1085 15.6995L21.75 9.40234V1.35938C21.75 1.2392 21.7023 1.12394 21.6173 1.03897C21.5323 0.95399 21.4171 0.90625 21.2969 0.90625H9.51565C9.39547 0.90625 9.28022 0.95399 9.19524 1.03897C9.11026 1.12394 9.06252 1.2392 9.06252 1.35938V2.94939L3.94278 4.55192C3.88599 4.5697 3.83325 4.59849 3.78759 4.63664C3.74192 4.6748 3.70422 4.72158 3.67663 4.7743C3.64904 4.82703 3.63211 4.88468 3.62681 4.94395C3.6215 5.00322 3.62792 5.06296 3.6457 5.11975L9.06252 22.4276ZM8.48507 6.9289L8.21427 6.06366L9.06252 5.79813V13.3244L7.32332 7.76741L8.18805 7.49667C8.30272 7.46076 8.39843 7.38077 8.45414 7.2743C8.50984 7.16782 8.52097 7.04358 8.48507 6.9289ZM24.4688 16.7656V27.1875H21.75C20.6837 27.1863 19.6601 26.7679 18.8982 26.0219C18.1363 25.2758 17.6965 24.2613 17.6728 23.1952C17.6955 23.0773 17.6705 22.9552 17.6033 22.8557L14.6643 18.5054C14.5626 18.3575 14.4911 18.191 14.4541 18.0154C14.417 17.8398 14.4152 17.6585 14.4485 17.4822C14.4819 17.3058 14.5498 17.1378 14.6485 16.9879C14.7471 16.8379 14.8744 16.709 15.0232 16.6085C15.1719 16.508 15.339 16.438 15.5149 16.4025C15.6909 16.3669 15.8721 16.3665 16.0481 16.4014C16.2242 16.4362 16.3916 16.5056 16.5407 16.6055C16.6898 16.7054 16.8177 16.8338 16.9169 16.9834C16.9196 16.9873 16.9226 16.9912 16.9251 16.995L19.5705 20.656C19.6125 20.7141 19.6677 20.7614 19.7315 20.794C19.7952 20.8267 19.8659 20.8437 19.9375 20.8438H21.2969C21.4171 20.8438 21.5323 20.796 21.6173 20.711C21.7023 20.6261 21.75 20.5108 21.75 20.3906V11.3281L24.3089 16.1259C24.4137 16.3229 24.4686 16.5425 24.4688 16.7656ZM12.6875 24.0156H11.7813V4.98438H12.6875C12.8077 4.98438 12.923 4.93664 13.0079 4.85166C13.0929 4.76668 13.1406 4.65143 13.1406 4.53125V3.625H17.6719V4.53125C17.6719 4.65143 17.7196 4.76668 17.8046 4.85166C17.8896 4.93664 18.0048 4.98438 18.125 4.98438H19.0313V18.3629L17.6634 16.4698C17.61 16.3917 17.5517 16.317 17.4891 16.2462C17.8388 15.8288 18.0551 15.3161 18.11 14.7743C18.1649 14.2326 18.0559 13.6869 17.797 13.2079C17.5381 12.7288 17.1413 12.3386 16.658 12.0878C16.1747 11.8369 15.6272 11.737 15.0865 11.8009C14.5458 11.8648 14.0367 12.0897 13.6252 12.4464C13.2138 12.803 12.919 13.2751 12.7789 13.8013C12.6389 14.3274 12.6601 14.8836 12.8399 15.3976C13.0196 15.9115 13.3496 16.3597 13.787 16.684C13.5956 17.0473 13.5063 17.4557 13.5285 17.8658C13.5506 18.2759 13.6836 18.6723 13.9131 19.0128L16.7672 23.2371C16.7856 23.9816 16.9716 24.7124 17.3116 25.375H13.1406V24.4688C13.1406 24.3486 13.0929 24.2333 13.0079 24.1483C12.923 24.0634 12.8077 24.0156 12.6875 24.0156ZM14.5219 15.8671C14.4678 15.9037 14.4159 15.9427 14.3656 15.9832C14.065 15.7724 13.8356 15.4753 13.7076 15.1311C13.5796 14.787 13.5592 14.4121 13.6489 14.0561C13.7387 13.7001 13.9345 13.3797 14.2104 13.1375C14.4863 12.8952 14.8293 12.7424 15.1939 12.6994C15.5585 12.6563 15.9276 12.725 16.2523 12.8964C16.577 13.0677 16.8421 13.3337 17.0123 13.659C17.1825 13.9843 17.25 14.3536 17.2057 14.7181C17.1614 15.0826 17.0074 15.425 16.7642 15.7C16.4082 15.5304 16.0141 15.4566 15.6209 15.4859C15.2276 15.5152 14.8489 15.6466 14.5219 15.8671ZM9.96877 1.8125H20.8438V19.9375H20.1691L19.9375 19.617V4.53125C19.9375 4.41107 19.8898 4.29582 19.8048 4.21084C19.7198 4.12586 19.6046 4.07812 19.4844 4.07812H18.5781V3.17188C18.5781 3.0517 18.5304 2.93644 18.4454 2.85147C18.3605 2.76649 18.2452 2.71875 18.125 2.71875H12.6875C12.5673 2.71875 12.4521 2.76649 12.3671 2.85147C12.2821 2.93644 12.2344 3.0517 12.2344 3.17188V4.07812H11.3281C11.208 4.07812 11.0927 4.12586 11.0077 4.21084C10.9228 4.29582 10.875 4.41107 10.875 4.53125V24.4688C10.875 24.5889 10.9228 24.7042 11.0077 24.7892C11.0927 24.8741 11.208 24.9219 11.3281 24.9219H12.2344V25.8281C12.2344 25.9483 12.2821 26.0636 12.3671 26.1485C12.4521 26.2335 12.5673 26.2812 12.6875 26.2812H17.9092C18.1941 26.6256 18.5238 26.9303 18.8893 27.1875H9.96877V1.8125ZM9.06252 3.89897V4.84844L7.51114 5.33407C7.39645 5.36997 7.30073 5.44996 7.24501 5.55643C7.1893 5.66291 7.17817 5.78715 7.21406 5.90184L7.48486 6.76714L6.62012 7.03782C6.56334 7.0556 6.51061 7.0844 6.46495 7.12256C6.41929 7.16071 6.38159 7.20749 6.35401 7.26022C6.32643 7.31295 6.3095 7.37059 6.3042 7.42986C6.2989 7.48913 6.30532 7.54886 6.3231 7.60565L9.06252 16.3585V19.3934L4.64591 5.28146L9.06252 3.89897Z" fill="black"/>
</svg>
