<svg width="26" height="26" viewBox="0 0 26 26" fill="none" xmlns="http://www.w3.org/2000/svg">
<g clip-path="url(#clip0)">
<path d="M22.0996 22.5334L25.5663 19.0668V3.4668L22.0996 6.93343V22.5334Z" fill="#E69C5A"/>
<path d="M13.0003 3.4668H3.90028L0.433594 6.93343H9.5336L13.0003 3.4668Z" fill="#E69C5A"/>
<path d="M13 6.93343H22.1L25.5667 3.4668H16.4667L13 6.93343Z" fill="#E69C5A"/>
<path d="M12.9999 3.4668L9.5332 6.93343V10.4001H12.9999V6.93343L16.4666 3.4668H12.9999Z" fill="#98CDF4"/>
<path d="M13.0003 6.93359V10.4003H9.53359V6.93359H0.433594V22.5336H22.1003V6.93359H13.0003Z" fill="#E69C5A"/>
<path d="M25.7326 3.06611C25.6798 3.04529 25.6235 3.03534 25.5667 3.03666V3.0332H3.9C3.78519 3.0332 3.67469 3.0787 3.59364 3.16016L0.126957 6.62679C0.0455034 6.70784 -0.000453655 6.81834 3.37653e-06 6.93315V22.5331C3.37653e-06 22.7723 0.19414 22.9665 0.43332 22.9665H22.1C22.2153 22.9669 22.3258 22.921 22.4068 22.8391L25.8735 19.3724C25.9546 19.2913 26.0001 19.1813 26.0001 19.0664V3.46642C26 3.29143 25.8947 3.13329 25.7326 3.06611ZM21.9206 6.49984H14.0461L16.6461 3.89984H24.5206L21.9206 6.49984ZM9.96669 7.36652H12.5667V9.96652H9.96669V7.36652ZM10.5794 6.49984L13.1794 3.89984H15.4206L12.8206 6.49984H10.5794ZM4.07941 3.89984H11.954L9.35396 6.49984H1.47941L4.07941 3.89984ZM21.6667 22.0998H0.866687V7.36652H9.1V10.3998C9.1 10.639 9.29414 10.8332 9.53332 10.8332H13C13.2392 10.8332 13.4333 10.639 13.4333 10.3998V7.36652H21.6666V22.0998H21.6667ZM25.1333 18.8871L22.5333 21.4871V7.11256L25.1333 4.51256V18.8871Z" fill="black"/>
</g>
<defs>
<clipPath id="clip0">
<rect width="26" height="26" fill="white"/>
</clipPath>
</defs>
</svg>
