<svg width="62" height="62" viewBox="0 0 62 62" fill="none" xmlns="http://www.w3.org/2000/svg">
<g clip-path="url(#clip0)">
<path d="M59.933 59.933H2.06641V2.06641H39.2664V18.5997H53.733H59.933V59.933Z" fill="#E2DFE2"/>
<path d="M36.3989 2.06641H39.2681V18.5997H36.3989V2.06641Z" fill="#D3CED5"/>
<path d="M57.063 18.5996H59.9322V59.9329H57.063V18.5996Z" fill="#D3CED5"/>
<path d="M3.16454 28.9332H0.96875C0.433758 28.9332 0 28.4994 0 27.9645V17.502C0 16.967 0.433758 16.5332 0.96875 16.5332H3.16454C3.69953 16.5332 4.13329 16.967 4.13329 17.502V27.9645C4.13329 28.4996 3.69966 28.9332 3.16454 28.9332Z" fill="#EAA96A"/>
<path d="M61.0317 28.9332H58.8359C58.3009 28.9332 57.8672 28.4994 57.8672 27.9645V17.502C57.8672 16.967 58.3009 16.5332 58.8359 16.5332H61.0317C61.5667 16.5332 62.0005 16.967 62.0005 17.502V27.9645C62.0005 28.4996 61.5667 28.9332 61.0317 28.9332Z" fill="#EAA96A"/>
<path d="M3.16454 61.9996H0.96875C0.433758 61.9996 0 61.5658 0 61.0308V50.5684C0 50.0334 0.433758 49.5996 0.96875 49.5996H3.16454C3.69953 49.5996 4.13329 50.0334 4.13329 50.5684V61.0308C4.13329 61.5658 3.69966 61.9996 3.16454 61.9996Z" fill="#DD636E"/>
<path d="M61.0317 61.9996H58.8359C58.3009 61.9996 57.8672 61.5658 57.8672 61.0308V50.5684C57.8672 50.0334 58.3009 49.5996 58.8359 49.5996H61.0317C61.5667 49.5996 62.0005 50.0334 62.0005 50.5684V61.0308C62.0005 61.5658 61.5667 61.9996 61.0317 61.9996Z" fill="#EAA96A"/>
<path d="M40.3619 12.4H21.6328C21.0978 12.4 20.6641 11.9662 20.6641 11.4313V0.96875C20.6641 0.433758 21.0978 0 21.6328 0H40.362C40.897 0 41.3308 0.433758 41.3308 0.96875V11.4313C41.3307 11.9662 40.897 12.4 40.3619 12.4Z" fill="#DD636E"/>
<path d="M40.3309 0H37.4609C38.0122 0 38.459 0.446836 38.459 0.997934V11.4019C38.459 11.9532 38.0122 12.3999 37.4609 12.3999H40.3309C40.8821 12.3999 41.3289 11.953 41.3289 11.4019V0.997934C41.3288 0.446836 40.882 0 40.3309 0Z" fill="#DA4A54"/>
<path d="M24.7974 3.19727H20.6641V5.06853H24.7974C25.3141 5.06853 25.7329 4.64966 25.7329 4.13296C25.7329 3.61613 25.3141 3.19727 24.7974 3.19727Z" fill="#DA4A54"/>
<path d="M27.9674 28.9332H9.23828C8.70329 28.9332 8.26953 28.4994 8.26953 27.9645V17.502C8.26953 16.967 8.70329 16.5332 9.23828 16.5332H27.9675C28.5025 16.5332 28.9362 16.967 28.9362 17.502V27.9645C28.9361 28.4996 28.5025 28.9332 27.9674 28.9332Z" fill="#DD636E"/>
<path d="M27.9363 16.5332H25.0664C25.6176 16.5332 26.0645 16.98 26.0645 17.5313V27.9353C26.0645 28.4865 25.6176 28.9332 25.0664 28.9332H27.9363C28.4874 28.9332 28.9343 28.4864 28.9343 27.9353V17.5313C28.9343 16.98 28.4874 16.5332 27.9363 16.5332Z" fill="#DA4A54"/>
<path d="M12.4028 19.7314H8.26953V21.6027H12.4028C12.9195 21.6027 13.3384 21.1838 13.3384 20.6671C13.3384 20.1502 12.9195 19.7314 12.4028 19.7314Z" fill="#DA4A54"/>
<path d="M52.7642 28.9332H34.0352C33.5002 28.9332 33.0664 28.4994 33.0664 27.9645V17.502C33.0664 16.967 33.5002 16.5332 34.0352 16.5332H52.7644C53.2994 16.5332 53.7331 16.967 53.7331 17.502V27.9645C53.733 28.4996 53.2992 28.9332 52.7642 28.9332Z" fill="#EAA96A"/>
<path d="M52.7332 16.5332H49.8633C50.4145 16.5332 50.8612 16.98 50.8612 17.5313V27.9353C50.8612 28.4865 50.4144 28.9332 49.8633 28.9332H52.7332C53.2844 28.9332 53.7311 28.4864 53.7311 27.9353V17.5313C53.7311 16.98 53.2843 16.5332 52.7332 16.5332Z" fill="#E5935D"/>
<path d="M37.1997 19.7314H33.0664V21.6027H37.1997C37.7164 21.6027 38.1353 21.1838 38.1353 20.6671C38.1353 20.1502 37.7164 19.7314 37.1997 19.7314Z" fill="#E5935D"/>
<path d="M40.3619 45.4664H21.6328C21.0978 45.4664 20.6641 45.0326 20.6641 44.4977V34.0352C20.6641 33.5002 21.0978 33.0664 21.6328 33.0664H40.362C40.897 33.0664 41.3308 33.5002 41.3308 34.0352V44.4977C41.3307 45.0326 40.897 45.4664 40.3619 45.4664Z" fill="#EAA96A"/>
<path d="M40.3309 33.0664H37.4609C38.0122 33.0664 38.459 33.5132 38.459 34.0643V44.4683C38.459 45.0196 38.0122 45.4663 37.4609 45.4663H40.3309C40.8821 45.4663 41.3289 45.0194 41.3289 44.4683V34.0643C41.3288 33.5132 40.882 33.0664 40.3309 33.0664Z" fill="#E5935D"/>
<path d="M24.7974 36.2637H20.6641V38.1349H24.7974C25.3141 38.1349 25.7329 37.7161 25.7329 37.1994C25.7329 36.6825 25.3141 36.2637 24.7974 36.2637Z" fill="#E5935D"/>
<path d="M61.0294 45.4664H46.4336C45.8986 45.4664 45.4648 45.0326 45.4648 44.4977V34.0352C45.4648 33.5002 45.8986 33.0664 46.4336 33.0664H61.0294C61.5644 33.0664 61.9982 33.5002 61.9982 34.0352V44.4977C61.9982 45.0326 61.5644 45.4664 61.0294 45.4664Z" fill="#DD636E"/>
<path d="M61.0027 33.0664H58.1328C58.6839 33.0664 59.1307 33.5132 59.1307 34.0643V44.4683C59.1307 45.0196 58.6839 45.4663 58.1328 45.4663H61.0027C61.554 45.4663 62.0007 45.0194 62.0007 44.4683V34.0643C62.0008 33.5132 61.554 33.0664 61.0027 33.0664Z" fill="#DA4A54"/>
<path d="M49.5981 36.2637H45.4648V38.1349H49.5981C50.1148 38.1349 50.5337 37.7161 50.5337 37.1994C50.5337 36.6825 50.1148 36.2637 49.5981 36.2637Z" fill="#DA4A54"/>
<path d="M15.5645 45.4664H0.96875C0.433758 45.4664 0 45.0326 0 44.4977V34.0352C0 33.5002 0.433758 33.0664 0.96875 33.0664H15.5645C16.0995 33.0664 16.5333 33.5002 16.5333 34.0352V44.4977C16.5333 45.0326 16.0997 45.4664 15.5645 45.4664Z" fill="#EAA96A"/>
<path d="M15.5335 33.0664H12.6636C13.2148 33.0664 13.6615 33.5132 13.6615 34.0643V44.4683C13.6615 45.0196 13.2147 45.4663 12.6636 45.4663H15.5335C16.0847 45.4663 16.5314 45.0194 16.5314 44.4683V34.0643C16.5314 33.5132 16.0847 33.0664 15.5335 33.0664Z" fill="#E5935D"/>
<path d="M4.13329 36.2637H0V38.1349H4.13329C4.65 38.1349 5.06886 37.7161 5.06886 37.1994C5.06898 36.6825 4.65 36.2637 4.13329 36.2637Z" fill="#E5935D"/>
<path d="M27.9674 61.9996H9.23828C8.70329 61.9996 8.26953 61.5658 8.26953 61.0308V50.5684C8.26953 50.0334 8.70329 49.5996 9.23828 49.5996H27.9675C28.5025 49.5996 28.9362 50.0334 28.9362 50.5684V61.0308C28.9361 61.5658 28.5025 61.9996 27.9674 61.9996Z" fill="#EAA96A"/>
<path d="M27.9363 49.5996H25.0664C25.6176 49.5996 26.0645 50.0464 26.0645 50.5975V61.0016C26.0645 61.5528 25.6176 61.9995 25.0664 61.9995H27.9363C28.4875 61.9995 28.9343 61.5526 28.9343 61.0016V50.5975C28.9343 50.0464 28.4874 49.5996 27.9363 49.5996Z" fill="#E5935D"/>
<path d="M12.4028 52.7969H8.26953V54.6681H12.4028C12.9195 54.6681 13.3384 54.2493 13.3384 53.7326C13.3384 53.2157 12.9195 52.7969 12.4028 52.7969Z" fill="#E5935D"/>
<path d="M52.7642 61.9996H34.0352C33.5002 61.9996 33.0664 61.5658 33.0664 61.0308V50.5684C33.0664 50.0334 33.5002 49.5996 34.0352 49.5996H52.7644C53.2994 49.5996 53.7331 50.0334 53.7331 50.5684V61.0308C53.733 61.5658 53.2992 61.9996 52.7642 61.9996Z" fill="#DD636E"/>
<path d="M52.7332 49.5996H49.8633C50.4145 49.5996 50.8612 50.0464 50.8612 50.5975V61.0016C50.8612 61.5528 50.4144 61.9995 49.8633 61.9995H52.7332C53.2844 61.9995 53.7313 61.5526 53.7313 61.0016V50.5975C53.7311 50.0464 53.2843 49.5996 52.7332 49.5996Z" fill="#DA4A54"/>
<path d="M37.1997 52.7969H33.0664V54.6681H37.1997C37.7164 54.6681 38.1353 54.2493 38.1353 53.7326C38.1353 53.2157 37.7164 52.7969 37.1997 52.7969Z" fill="#DA4A54"/>
<path d="M15.5645 12.4H0.96875C0.433758 12.4 0 11.9662 0 11.4313V0.96875C0 0.433758 0.433758 0 0.96875 0H15.5645C16.0995 0 16.5333 0.433758 16.5333 0.96875V11.4313C16.5333 11.9662 16.0997 12.4 15.5645 12.4Z" fill="#EAA96A"/>
<path d="M15.5335 0H12.6636C13.2148 0 13.6615 0.446836 13.6615 0.997934V11.4019C13.6615 11.9532 13.2147 12.3999 12.6636 12.3999H15.5335C16.0847 12.3999 16.5314 11.953 16.5314 11.4019V0.997934C16.5314 0.446836 16.0847 0 15.5335 0Z" fill="#E5935D"/>
<path d="M4.13329 3.19727H0V5.06853H4.13329C4.65 5.06853 5.06886 4.64966 5.06886 4.13296C5.06898 3.61613 4.65 3.19727 4.13329 3.19727Z" fill="#E5935D"/>
<path d="M60.9998 16.5332H58.8625C58.7332 16.5332 58.6099 16.5586 58.4966 16.6034C58.8665 16.7495 59.1286 17.1094 59.1286 17.5313V27.9353C59.1286 28.3572 58.8665 28.7169 58.4966 28.8631C58.61 28.9079 58.7332 28.9333 58.8625 28.9333H60.9998C61.551 28.9333 61.9978 28.4865 61.9978 27.9354V17.5314C61.9979 16.98 61.551 16.5332 60.9998 16.5332Z" fill="#E5935D"/>
<path d="M60.9998 49.5996H58.8625C58.7332 49.5996 58.6099 49.625 58.4966 49.6698C58.8665 49.8159 59.1286 50.1758 59.1286 50.5977V61.0016C59.1286 61.4235 58.8665 61.7833 58.4966 61.9295C58.61 61.9743 58.7332 61.9997 58.8625 61.9997H60.9998C61.551 61.9997 61.9978 61.5529 61.9978 61.0018V50.5978C61.9979 50.0464 61.551 49.5996 60.9998 49.5996Z" fill="#E5935D"/>
<path d="M3.13655 16.5332H0.999246C0.869918 16.5332 0.746766 16.5586 0.633301 16.6034C1.00324 16.7495 1.26529 17.1094 1.26529 17.5313V27.9353C1.26529 28.3572 1.00324 28.7169 0.633301 28.8631C0.746766 28.9079 0.869918 28.9333 0.999246 28.9333H3.13655C3.68777 28.9333 4.13448 28.4865 4.13448 27.9354V17.5314C4.13448 16.98 3.68777 16.5332 3.13655 16.5332Z" fill="#E5935D"/>
<path d="M3.13655 49.5996H0.999246C0.869918 49.5996 0.746766 49.625 0.633301 49.6698C1.00324 49.8159 1.26529 50.1758 1.26529 50.5977V61.0016C1.26529 61.4235 1.00324 61.7833 0.633301 61.9295C0.746766 61.9743 0.869918 61.9997 0.999246 61.9997H3.13655C3.68777 61.9997 4.13448 61.5529 4.13448 61.0018V50.5978C4.13448 50.0464 3.68777 49.5996 3.13655 49.5996Z" fill="#DA4A54"/>
</g>
<defs>
<clipPath id="clip0">
<rect width="62" height="62" fill="white"/>
</clipPath>
</defs>
</svg>
