<svg width="66" height="66" viewBox="0 0 66 66" fill="none" xmlns="http://www.w3.org/2000/svg">
  <path d="M58.2987 5.91211H7.69873V60.7746H58.2987V5.91211Z" fill="#F2F2F2"/>
  <path d="M55.8259 60.9121H10.1758L12.9259 63.3871H53.0758L55.8259 60.9121Z" fill="#CDD6E0"/>
  <path d="M6.46094 4.8125V18.15C6.46094 18.8375 7.01098 19.5251 7.83598 19.5251H8.93594C10.7235 19.5251 12.2359 21.0375 12.2359 22.8251V30.8001C12.2359 32.3126 13.4734 33.5501 14.9859 33.5501C16.4984 33.5501 17.7359 32.3126 17.7359 30.8001V27.9126C17.7359 26.4002 18.8358 25.1627 20.2109 25.0251C21.8609 24.8876 23.2359 26.1251 23.2359 27.7751V31.7625C23.2359 33.275 24.3359 34.5125 25.7109 34.65C27.3609 34.7876 28.7359 33.5501 28.7359 31.9001V23.5125C28.7359 22.0001 29.8359 20.7626 31.2109 20.625C32.8609 20.4875 34.236 21.725 34.236 23.375V33.825C34.236 35.3375 35.4735 36.575 36.9859 36.575C38.4984 36.575 39.7359 35.3375 39.7359 33.825V23.375C39.7359 21.3125 41.3859 19.525 43.5859 19.525H57.6109C58.2984 19.525 58.986 18.9749 58.986 18.1499V4.8125H6.46094Z" fill="#FFD15C"/>
  <path d="M63.25 10.8623H59.5375V13.6123H63.25C63.25 30.2498 49.6375 43.8623 33 43.8623C16.3625 43.8623 2.74996 30.2498 2.74996 13.6123H5.3625V10.8623H2.74996C1.2375 10.8623 0 12.0998 0 13.6123C0 31.7623 14.85 46.6123 33 46.6123C51.15 46.6123 66 31.7623 66 13.6123C66 12.0998 64.7625 10.8623 63.25 10.8623Z" fill="#40596B"/>
  <path d="M32.9988 42.4873C29.2863 42.4873 25.8487 41.7998 22.6863 40.5623C21.9988 40.2873 21.3112 40.4248 20.8987 40.9748L19.2487 42.4873C18.4237 43.3123 18.6987 44.8247 19.7988 45.2372C23.9238 46.8872 28.3237 47.8498 32.9988 47.8498C37.6738 47.8498 42.2113 46.8872 46.1988 45.2372C47.2987 44.8247 47.5738 43.3123 46.7488 42.4873L45.2364 40.9748C44.6863 40.4248 43.9989 40.2873 43.4488 40.5623C40.1488 41.7998 36.7113 42.4873 32.9988 42.4873Z" fill="#FF7058"/>
  <path d="M6.46406 10.1748H5.22656V14.1623H6.46406V10.1748Z" fill="#334A5E"/>
  <path d="M60.7766 10.1748H59.5391V14.1623H60.7766V10.1748Z" fill="#334A5E"/>
  <path d="M6.46094 8.38759H6.59848H59.3985H59.536V4.8125H6.46094V8.38759Z" fill="#FCC854"/>
  <path d="M59.3985 2.6123H6.59848C5.36098 2.6123 4.39844 3.57485 4.39844 4.81235C4.39844 6.04985 5.36098 7.01239 6.59848 7.01239H59.3985C60.636 7.01239 61.5985 6.04985 61.5985 4.81235C61.5985 3.57472 60.636 2.6123 59.3985 2.6123Z" fill="#F8B64C"/>
</svg>
