<svg width="69" height="69" viewBox="0 0 69 69" fill="none" xmlns="http://www.w3.org/2000/svg">
<g clip-path="url(#clip0)">
<path d="M3.29138 58.9109H1.0257C0.459146 58.9109 0 58.4518 0 57.8852C0 57.3187 0.459146 56.8594 1.0257 56.8594H3.29152C3.85807 56.8594 4.31735 57.3185 4.31735 57.8852C4.31722 58.4518 3.85807 58.9109 3.29138 58.9109Z" fill="#E2DFE2"/>
<path d="M10.0878 58.9109H7.82209C7.25553 58.9109 6.79639 58.4518 6.79639 57.8852C6.79639 57.3187 7.25553 56.8594 7.82209 56.8594H10.0879C10.6545 56.8594 11.1136 57.3185 11.1136 57.8852C11.1136 58.4518 10.6545 58.9109 10.0878 58.9109Z" fill="#E2DFE2"/>
<path d="M3.29152 2.05154H1.02584C0.459281 2.05154 0 1.59239 0 1.02584C0 0.459281 0.459281 0 1.02584 0H3.29165C3.85821 0 4.31749 0.459146 4.31749 1.0257C4.31749 1.59226 3.85821 2.05154 3.29152 2.05154Z" fill="#E2DFE2"/>
<path d="M10.0878 2.05154H7.82209C7.25553 2.05154 6.79639 1.59239 6.79639 1.02584C6.79639 0.459281 7.25553 0 7.82209 0H10.0879C10.6545 0 11.1136 0.459146 11.1136 1.0257C11.1136 1.59226 10.6545 2.05154 10.0878 2.05154Z" fill="#E2DFE2"/>
<path d="M11.1155 62.203C10.549 62.203 10.0898 61.7438 10.0898 61.1773V58.9114C10.0898 58.3449 10.549 57.8857 11.1155 57.8857C11.6821 57.8857 12.1414 58.3449 12.1414 58.9114V61.1773C12.1412 61.7438 11.6821 62.203 11.1155 62.203Z" fill="#E2DFE2"/>
<path d="M11.1155 69.0001C10.549 69.0001 10.0898 68.541 10.0898 67.9743V65.7085C10.0898 65.1419 10.549 64.6826 11.1155 64.6826C11.6821 64.6826 12.1414 65.1418 12.1414 65.7085V67.9743C12.1412 68.541 11.6821 69.0001 11.1155 69.0001Z" fill="#E2DFE2"/>
<path d="M67.975 62.203C67.4085 62.203 66.9492 61.7438 66.9492 61.1773V58.9114C66.9492 58.3449 67.4084 57.8857 67.975 57.8857C68.5417 57.8857 69.0009 58.3449 69.0009 58.9114V61.1773C69.0007 61.7438 68.5416 62.203 67.975 62.203Z" fill="#E2DFE2"/>
<path d="M67.975 69.0001C67.4085 69.0001 66.9492 68.541 66.9492 67.9743V65.7085C66.9492 65.1419 67.4084 64.6826 67.975 64.6826C68.5417 64.6826 69.0009 65.1418 69.0009 65.7085V67.9743C69.0007 68.541 68.5416 69.0001 67.975 69.0001Z" fill="#E2DFE2"/>
<path d="M48.6082 32.7467H46.3422C45.7757 32.7467 45.3164 32.2876 45.3164 31.721C45.3164 31.1545 45.7756 30.6953 46.3422 30.6953H48.6082C49.1747 30.6953 49.634 31.1545 49.634 31.721C49.634 32.2876 49.1747 32.7467 48.6082 32.7467Z" fill="#E2DFE2"/>
<path d="M55.4038 32.7467H53.138C52.5715 32.7467 52.1123 32.2876 52.1123 31.721C52.1123 31.1545 52.5715 30.6953 53.138 30.6953H55.4038C55.9704 30.6953 56.4295 31.1545 56.4295 31.721C56.4297 32.2876 55.9704 32.7467 55.4038 32.7467Z" fill="#E2DFE2"/>
<path d="M39.5452 19.1522C38.9787 19.1522 38.5195 18.693 38.5195 18.1265V15.8607C38.5195 15.2941 38.9787 14.835 39.5452 14.835C40.1118 14.835 40.5711 15.2941 40.5711 15.8607V18.1265C40.5711 18.693 40.1119 19.1522 39.5452 19.1522Z" fill="#E2DFE2"/>
<path d="M39.5452 25.95C38.9787 25.95 38.5195 25.4909 38.5195 24.9243V22.6585C38.5195 22.092 38.9787 21.6328 39.5452 21.6328C40.1118 21.6328 40.5711 22.092 40.5711 22.6585V24.9243C40.5711 25.4909 40.1119 25.95 39.5452 25.95Z" fill="#E2DFE2"/>
<path d="M39.5452 41.8105C38.9787 41.8105 38.5195 41.3514 38.5195 40.7848V38.5189C38.5195 37.9523 38.9787 37.4932 39.5452 37.4932C40.1118 37.4932 40.5711 37.9523 40.5711 38.5189V40.7848C40.5711 41.3514 40.1119 41.8105 39.5452 41.8105Z" fill="#E2DFE2"/>
<path d="M39.5452 48.6077C38.9787 48.6077 38.5195 48.1485 38.5195 47.5818V45.3159C38.5195 44.7493 38.9787 44.29 39.5452 44.29C40.1118 44.29 40.5711 44.7492 40.5711 45.3159V47.5818C40.5711 48.1485 40.1119 48.6077 39.5452 48.6077Z" fill="#E2DFE2"/>
<path d="M66.7358 19.1522C66.1692 19.1522 65.71 18.693 65.71 18.1265V15.8607C65.71 15.2941 66.1691 14.835 66.7358 14.835C67.3025 14.835 67.7615 15.2941 67.7615 15.8607V18.1265C67.7615 18.693 67.3023 19.1522 66.7358 19.1522Z" fill="#E2DFE2"/>
<path d="M66.7358 25.95C66.1692 25.95 65.71 25.4909 65.71 24.9243V22.6585C65.71 22.092 66.1691 21.6328 66.7358 21.6328C67.3025 21.6328 67.7615 22.092 67.7615 22.6585V24.9243C67.7615 25.4909 67.3023 25.95 66.7358 25.95Z" fill="#E2DFE2"/>
<path d="M69.0009 25.4725V57.7781C69.0009 58.4038 68.4937 58.9109 67.8681 58.9109H11.2228C10.5971 58.9109 10.0898 58.4036 10.0898 57.7781V1.13297C10.09 0.507258 10.5971 0 11.2228 0H67.8681C68.4938 0 69.0009 0.507258 69.0009 1.13297V15.3158C69.0009 15.618 68.756 15.8629 68.4539 15.8629H65.0164C64.7143 15.8629 64.4693 15.618 64.4693 15.3158V5.6646C64.4693 5.03889 63.962 4.53163 63.3364 4.53163H42.9441C42.3184 4.53163 41.8111 5.03889 41.8111 5.6646V15.3136C41.8111 15.6157 41.5663 15.8607 41.2641 15.8607H37.8266C37.5245 15.8607 37.2795 15.6158 37.2795 15.3136V5.6646C37.2795 5.03889 36.7722 4.53163 36.1467 4.53163H15.7545C15.1287 4.53163 14.6215 5.03889 14.6215 5.6646V28.3227C14.6215 28.9485 15.1287 29.4556 15.7545 29.4556H36.1467C36.7724 29.4556 37.2795 28.9483 37.2795 28.3227V25.4711C37.2795 25.169 37.5245 24.9241 37.8266 24.9241H41.2641C41.5663 24.9241 41.8111 25.1691 41.8111 25.4711V28.3227C41.8111 28.9485 42.3184 29.4556 42.9441 29.4556H45.7957C46.0979 29.4556 46.3429 29.7005 46.3429 30.0026V33.4401C46.3429 33.7422 46.0979 33.9871 45.7957 33.9871H42.9441C42.3184 33.9871 41.8111 34.4943 41.8111 35.1199V37.9716C41.8111 38.2737 41.5663 38.5187 41.2641 38.5187H37.8266C37.5245 38.5187 37.2795 38.2738 37.2795 37.9716V35.1199C37.2795 34.4942 36.7722 33.9871 36.1467 33.9871H15.7545C15.1287 33.9871 14.6215 34.4943 14.6215 35.1199V53.2464C14.6215 53.8722 15.1287 54.3793 15.7545 54.3793H36.1467C36.7724 54.3793 37.2795 53.872 37.2795 53.2464V48.129C37.2795 47.8268 37.5245 47.582 37.8266 47.582H41.2641C41.5663 47.582 41.8111 47.827 41.8111 48.129V53.2464C41.8111 53.8722 42.3184 54.3793 42.9441 54.3793H63.3363C63.962 54.3793 64.4691 53.872 64.4691 53.2464V35.1201C64.4691 34.4943 63.9619 33.9872 63.3363 33.9872H55.953C55.6509 33.9872 55.4059 33.7422 55.4059 33.4402V30.0027C55.4059 29.7006 55.6509 29.4557 55.953 29.4557H63.3363C63.962 29.4557 64.4691 28.9485 64.4691 28.3229V25.4726C64.4691 25.1704 64.7141 24.9256 65.0163 24.9256H68.4538C68.756 24.9253 69.0009 25.1703 69.0009 25.4725Z" fill="#A6CCFB"/>
<path d="M64.4677 62.417C63.9012 62.417 63.442 62.8761 63.442 63.4427V64.6828H15.6458V63.4427C15.6458 62.8761 15.1866 62.417 14.6199 62.417C14.0533 62.417 13.5942 62.8761 13.5942 63.4427V67.9743C13.5942 68.5409 14.0534 69.0002 14.6199 69.0002C15.1865 69.0002 15.6458 68.541 15.6458 67.9743V66.7343H63.4419V67.9743C63.4419 68.5409 63.901 69.0002 64.4676 69.0002C65.0341 69.0002 65.4934 68.541 65.4934 67.9743V63.4427C65.4934 62.8761 65.0343 62.417 64.4677 62.417Z" fill="#A7DDA7"/>
<path d="M5.55746 5.5574C6.12402 5.5574 6.58317 5.09825 6.58317 4.53156C6.58317 3.96487 6.12402 3.50586 5.55746 3.50586H1.02584C0.459281 3.50586 0 3.96501 0 4.5317C0 5.09838 0.459146 5.55753 1.0257 5.55753H2.26568V53.3536H1.02584C0.459281 53.3536 0.000134766 53.8128 0.000134766 54.3793C0.000134766 54.9459 0.459281 55.4052 1.02584 55.4052H5.55746C6.12402 55.4052 6.58317 54.946 6.58317 54.3793C6.58317 53.8128 6.12402 53.3536 5.55746 53.3536H4.31735V5.5574H5.55746Z" fill="#A7DDA7"/>
<path d="M4.7424 65.7085L6.28291 64.168C6.68343 63.7674 6.68343 63.1179 6.28291 62.7173C5.88225 62.3169 5.23281 62.3169 4.83216 62.7173L3.29165 64.2578L1.75114 62.7174C1.35049 62.317 0.701051 62.317 0.300393 62.7174C-0.100131 63.1181 -0.100131 63.7675 0.300393 64.1682L1.8409 65.7087L0.300393 67.2491C-0.100131 67.6497 -0.100131 68.2991 0.300393 68.6998C0.500789 68.9001 0.763313 69.0002 1.02584 69.0002C1.28836 69.0002 1.55088 68.9001 1.75128 68.6998L3.29179 67.1593L4.83229 68.6998C5.03269 68.9001 5.29521 69.0002 5.55773 69.0002C5.82012 69.0002 6.08278 68.9001 6.28304 68.6998C6.68357 68.2991 6.68357 67.6497 6.28304 67.2491L4.7424 65.7085Z" fill="#DD636E"/>
<path d="M67.8644 0H64.7188C65.3445 0 65.8516 0.507258 65.8516 1.13284V15.3157C65.8516 15.6179 65.6067 15.8627 65.3044 15.8627H65.012H65.0127H68.4501C68.7523 15.8627 68.9973 15.6177 68.9973 15.3157V1.13284C68.9973 0.507258 68.4902 0 67.8644 0V0Z" fill="#8CBDF9"/>
<path d="M68.4503 24.9248H65.0128H65.0127H65.3044C65.6066 24.9248 65.8516 25.1698 65.8516 25.4718V57.7776C65.8516 58.4033 65.3443 58.9104 64.7188 58.9104H67.8644C68.4902 58.9104 68.9973 58.4031 68.9973 57.7776V25.472C68.9973 25.1698 68.7524 24.9248 68.4503 24.9248Z" fill="#8CBDF9"/>
</g>
<defs>
<clipPath id="clip0">
<rect width="69" height="69" fill="white"/>
</clipPath>
</defs>
</svg>
