<svg width="60" height="60" viewBox="0 0 60 60" fill="none" xmlns="http://www.w3.org/2000/svg">
<path d="M59.0547 12.1988C59.0547 15.3413 56.8516 17.9645 53.8984 18.6019V18.6113C53.4484 18.707 52.9797 18.7613 52.4922 18.7613C52.0047 18.7613 51.5359 18.706 51.0859 18.6113V18.6019C48.1328 17.9645 45.9297 15.3404 45.9297 12.1988C45.9297 8.57164 52.4922 0.939453 52.4922 0.939453C52.4922 0.939453 59.0547 8.57164 59.0547 12.1988Z" fill="#E6E9ED"/>
<path d="M38.4102 40.3125H41.2414V59.0625H38.4102V40.3125Z" fill="#E6E9ED"/>
<path d="M0.945312 18.75H39.3734V59.0625H0.945312V18.75Z" fill="#E6E9ED"/>
<path d="M18.7422 0.9375H21.5781V19.6912H18.7422V0.9375Z" fill="#E6E9ED"/>
<path d="M39.3756 18.7539C39.3756 19.2695 38.9537 19.6914 38.4381 19.6914H21.5781C21.0625 19.6914 20.6406 19.2695 20.6406 18.7539V1.87891C20.6406 1.36328 21.0625 0.941406 21.5781 0.941406H38.4381C38.9537 0.941406 39.3756 1.36328 39.3756 1.87891V18.7539Z" fill="#CCD1D9"/>
<path d="M53.8994 14.5254C53.8994 13.7482 53.2694 13.1182 52.4922 13.1182C51.7159 13.1182 51.0859 13.7482 51.0859 14.5254V23.4391H53.8984V14.5347C53.8984 14.5319 53.8994 14.5282 53.8994 14.5254Z" fill="#CCD1D9"/>
<path d="M53.8994 18.2793C53.8994 17.5021 53.2694 16.8721 52.4922 16.8721C51.7159 16.8721 51.0859 17.5021 51.0859 18.2793V27.193H53.8984V18.2886C53.8984 18.2858 53.8994 18.2821 53.8994 18.2793Z" fill="#E6E9ED"/>
<path d="M54.8359 22.501V31.4072C54.8359 32.7113 53.7859 33.751 52.4922 33.751C51.1984 33.751 50.1484 32.7113 50.1484 31.4072V22.501H51.0859H53.8984H54.8359Z" fill="#545C66"/>
<path d="M58.0984 40.3125C58.6141 40.3125 59.0359 40.7353 59.0359 41.25V58.125C59.0359 58.6416 58.6141 59.0625 58.0984 59.0625H41.2422C40.7266 59.0625 40.3047 58.6416 40.3047 58.125V41.25C40.3047 40.7353 40.7266 40.3125 41.2422 40.3125H58.0984Z" fill="#5D9CEC"/>
<path d="M38.4088 40.3125C38.9244 40.3125 39.3463 40.7353 39.3463 41.25V58.125C39.3463 58.6416 38.9244 59.0625 38.4088 59.0625H21.5703C21.0547 59.0625 20.6328 58.6416 20.6328 58.125V41.25C20.6328 40.7353 21.0547 40.3125 21.5703 40.3125H38.4088Z" fill="#5D9CEC"/>
<path d="M38.4088 20.625C38.9244 20.625 39.3463 21.0478 39.3463 21.5625V38.4375C39.3463 38.9541 38.9244 39.375 38.4088 39.375H21.5703C21.0547 39.375 20.6328 38.9541 20.6328 38.4375V21.5625C20.6328 21.0478 21.0547 20.625 21.5703 20.625H38.4088Z" fill="#5D9CEC"/>
<path d="M18.7391 40.3125C19.2547 40.3125 19.6766 40.7353 19.6766 41.25V58.125C19.6766 58.6416 19.2547 59.0625 18.7391 59.0625H1.88281C1.36719 59.0625 0.945312 58.6416 0.945312 58.125V41.25C0.945312 40.7353 1.36719 40.3125 1.88281 40.3125H18.7391Z" fill="#5D9CEC"/>
<path d="M18.7391 20.625C19.2547 20.625 19.6766 21.0478 19.6766 21.5625V38.4375C19.6766 38.9541 19.2547 39.375 18.7391 39.375H1.88281C1.36719 39.375 0.945312 38.9541 0.945312 38.4375V21.5625C0.945312 21.0478 1.36719 20.625 1.88281 20.625H18.7391Z" fill="#5D9CEC"/>
<path d="M18.7391 0.9375C19.2547 0.9375 19.6766 1.36031 19.6766 1.875V18.75C19.6766 19.2666 19.2547 19.6875 18.7391 19.6875H1.88281C1.36719 19.6875 0.945312 19.2666 0.945312 18.75V1.875C0.945312 1.36031 1.36719 0.9375 1.88281 0.9375H18.7391Z" fill="#5D9CEC"/>
<path d="M18.7391 0.9375H17.8016V17.8125H0.945312V18.75C0.945312 19.2666 1.36719 19.6875 1.88281 19.6875H18.7391C19.2547 19.6875 19.6766 19.2666 19.6766 18.75V1.875C19.6766 1.36031 19.2547 0.9375 18.7391 0.9375Z" fill="#4A89DC"/>
<path d="M18.7391 20.625H17.8016V37.5H0.945312V38.4375C0.945312 38.9541 1.36719 39.375 1.88281 39.375H18.7391C19.2547 39.375 19.6766 38.9541 19.6766 38.4375V21.5625C19.6766 21.0478 19.2547 20.625 18.7391 20.625Z" fill="#4A89DC"/>
<path d="M38.4344 20.625H37.4969V37.5H20.6406V38.4375C20.6406 38.9541 21.0625 39.375 21.5781 39.375H38.4344C38.95 39.375 39.3719 38.9541 39.3719 38.4375V21.5625C39.3719 21.0478 38.95 20.625 38.4344 20.625Z" fill="#4A89DC"/>
<path d="M38.4344 40.3125H37.4969V57.1875H20.6406V58.125C20.6406 58.6416 21.0625 59.0625 21.5781 59.0625H38.4344C38.95 59.0625 39.3719 58.6416 39.3719 58.125V41.25C39.3719 40.7353 38.95 40.3125 38.4344 40.3125Z" fill="#4A89DC"/>
<path d="M58.0984 40.3125H57.1609V57.1875H40.3047V58.125C40.3047 58.6416 40.7266 59.0625 41.2422 59.0625H58.0984C58.6141 59.0625 59.0359 58.6416 59.0359 58.125V41.25C59.0359 40.7353 58.6131 40.3125 58.0984 40.3125Z" fill="#4A89DC"/>
<path d="M18.7391 40.3125H17.8016V57.1875H0.945312V58.125C0.945312 58.6416 1.36719 59.0625 1.88281 59.0625H18.7391C19.2547 59.0625 19.6766 58.6416 19.6766 58.125V41.25C19.6766 40.7353 19.2547 40.3125 18.7391 40.3125Z" fill="#4A89DC"/>
<path d="M37.0216 5.62305H22.9609C22.4425 5.62305 22.0234 5.20399 22.0234 4.68555C22.0234 4.16711 22.4425 3.74805 22.9609 3.74805H37.0216C37.54 3.74805 37.9591 4.16711 37.9591 4.68555C37.9591 5.20399 37.54 5.62305 37.0216 5.62305Z" fill="#AAB2BD"/>
<path d="M37.0216 9.375H22.9609C22.4425 9.375 22.0234 8.95594 22.0234 8.4375C22.0234 7.91906 22.4425 7.5 22.9609 7.5H37.0216C37.54 7.5 37.9591 7.91906 37.9591 8.4375C37.9591 8.95594 37.54 9.375 37.0216 9.375Z" fill="#AAB2BD"/>
<path d="M37.0216 13.127H22.9609C22.4425 13.127 22.0234 12.7079 22.0234 12.1895C22.0234 11.671 22.4425 11.252 22.9609 11.252H37.0216C37.54 11.252 37.9591 11.671 37.9591 12.1895C37.9591 12.7079 37.54 13.127 37.0216 13.127Z" fill="#AAB2BD"/>
<path d="M37.0216 16.877H22.9609C22.4425 16.877 22.0234 16.4579 22.0234 15.9395C22.0234 15.421 22.4425 15.002 22.9609 15.002H37.0216C37.54 15.002 37.9591 15.421 37.9591 15.9395C37.9591 16.4579 37.54 16.877 37.0216 16.877Z" fill="#AAB2BD"/>
<path d="M54.8331 23.4385H50.1484C49.63 23.4385 49.2109 23.0194 49.2109 22.501C49.2109 21.9825 49.63 21.5635 50.1484 21.5635H54.8331C55.3516 21.5635 55.7706 21.9825 55.7706 22.501C55.7706 23.0194 55.3516 23.4385 54.8331 23.4385Z" fill="#656D78"/>
</svg>
