<svg width="69" height="39" viewBox="0 0 69 39" fill="none" xmlns="http://www.w3.org/2000/svg">
<path d="M50.1173 19.4995L29.223 22.6232L15.2703 19.4995C15.2703 19.4995 8.32861 19.4994 8.32861 10.0588C8.32861 0.618163 15.2703 0.618164 15.2703 0.618164H50.1173V19.4995Z" fill="#AB7B64"/>
<path d="M50.1176 17.7834V19.4994L30.0056 21.6742L15.2706 19.4994C15.2706 19.4994 11.94 19.4994 9.89355 16.3604C11.0403 16.7227 11.9052 16.7227 11.9052 16.7227H44.7018C46.0248 17.4321 47.5381 17.8334 49.1458 17.8334C49.4735 17.8334 49.7983 17.8167 50.1176 17.7834Z" fill="#9A6A53"/>
<path d="M23.0476 7.76804H8.48535C8.59503 6.99335 8.76163 6.30197 8.96988 5.68555H23.0476C23.6223 5.68555 24.0888 6.15203 24.0888 6.7268C24.0888 7.30156 23.6223 7.76804 23.0476 7.76804Z" fill="#AB7B64"/>
<path d="M29.7809 13.3909C29.7809 13.9656 29.3145 14.4321 28.7397 14.4321H8.96988C8.76163 13.8157 8.59503 13.1243 8.48535 12.3496H28.7397C29.3145 12.3496 29.7809 12.8161 29.7809 13.3909Z" fill="#AB7B64"/>
<path d="M33.9462 6.7268C33.9462 7.30156 33.4797 7.76804 32.905 7.76804H28.74C28.1652 7.76804 27.6987 7.30156 27.6987 6.7268C27.6987 6.15203 28.1652 5.68555 28.74 5.68555H32.905C33.4797 5.68555 33.9462 6.15203 33.9462 6.7268Z" fill="#AB7B64"/>
<path d="M41.9991 13.3909C41.9991 13.9656 41.5326 14.4321 40.9578 14.4321H35.4045C34.8298 14.4321 34.3633 13.9656 34.3633 13.3909C34.3633 12.8161 34.8298 12.3496 35.4045 12.3496H40.9578C41.5326 12.3496 41.9991 12.8161 41.9991 13.3909Z" fill="#AB7B64"/>
<path d="M24.0888 6.7268C24.0888 7.30156 23.6223 7.76804 23.0476 7.76804H8.48535C8.59503 6.99335 8.76163 6.30197 8.96988 5.68555H23.0476C23.6223 5.68555 24.0888 6.15203 24.0888 6.7268Z" fill="#9A6A53"/>
<path d="M33.9462 6.7268C33.9462 7.30156 33.4797 7.76804 32.905 7.76804H28.74C28.1652 7.76804 27.6987 7.30156 27.6987 6.7268C27.6987 6.15203 28.1652 5.68555 28.74 5.68555H32.905C33.4797 5.68555 33.9462 6.15203 33.9462 6.7268Z" fill="#9A6A53"/>
<path d="M29.7809 13.3909C29.7809 13.9656 29.3145 14.4321 28.7397 14.4321H8.96988C8.76163 13.8157 8.59503 13.1243 8.48535 12.3496H28.7397C29.3145 12.3496 29.7809 12.8161 29.7809 13.3909Z" fill="#9A6A53"/>
<path d="M43.7345 14.4321H35.4045C34.8298 14.4321 34.3633 13.9656 34.3633 13.3909C34.3633 12.8161 34.8298 12.3496 35.4045 12.3496H42.3462H42.3489L43.7345 14.4321Z" fill="#9A6A53"/>
<path d="M50.1164 19.4995C55.3304 19.4995 59.5571 15.2727 59.5571 10.0588C59.5571 4.84488 55.3304 0.618164 50.1164 0.618164C44.9025 0.618164 40.6758 4.84488 40.6758 10.0588C40.6758 15.2727 44.9025 19.4995 50.1164 19.4995Z" fill="#F3D69E"/>
<path d="M59.5607 10.0592C59.5607 15.2738 55.3346 19.4998 50.1201 19.4998C47.5725 19.4998 45.2609 18.4905 43.563 16.8495C45.0471 17.8227 46.8228 18.3892 48.7317 18.3892C53.9463 18.3892 58.1724 14.1631 58.1724 8.94852C58.1724 6.28154 57.0673 3.87279 55.2888 2.1582C57.8614 3.84502 59.5607 6.75357 59.5607 10.0592Z" fill="#EFCB83"/>
<path d="M45.3641 13.3871C44.9769 13.3871 44.6052 13.1702 44.4256 12.7983C44.0108 11.9392 43.8003 11.0175 43.8003 10.0591C43.8003 6.57591 46.634 3.74219 50.1172 3.74219C50.6924 3.74219 51.1584 4.20825 51.1584 4.78343C51.1584 5.35862 50.6924 5.82468 50.1172 5.82468C47.7824 5.82468 45.8828 7.72433 45.8828 10.0591C45.8828 10.7013 46.0236 11.3183 46.3009 11.8929C46.551 12.4106 46.3339 13.0333 45.816 13.2833C45.6701 13.3537 45.5157 13.3871 45.3641 13.3871Z" fill="#EDC472"/>
<path d="M50.1186 16.3756C49.4549 16.3756 48.8001 16.2724 48.1725 16.0688C47.6255 15.8915 47.3257 15.3041 47.5033 14.7572C47.6807 14.2099 48.2684 13.9099 48.8148 14.088C49.2347 14.2241 49.6734 14.2932 50.1186 14.2932C52.4534 14.2932 54.353 12.3936 54.353 10.0588C54.353 9.48364 54.8191 9.01758 55.3943 9.01758C55.9694 9.01758 56.4355 9.48364 56.4355 10.0588C56.4355 13.5419 53.6018 16.3756 50.1186 16.3756Z" fill="#EDC472"/>
<path d="M40.6781 38.3803H6.94165C6.94165 38.3803 0 38.5447 0 29.0219C0 19.499 6.94165 19.499 6.94165 19.499H40.6781V38.3803Z" fill="#AB7B64"/>
<path d="M40.6794 35.6035V38.3802H6.94302C6.94302 38.3802 3.80123 38.4537 1.74512 35.6035H40.6794Z" fill="#9A6A53"/>
<path d="M7.34395 26.3715H0.206543C0.337046 25.5927 0.524471 24.9013 0.754933 24.2891H7.34395C7.91872 24.2891 8.38519 24.7555 8.38519 25.3303C8.38519 25.9051 7.91872 26.3715 7.34395 26.3715Z" fill="#AB7B64"/>
<path d="M14.0925 32.4104C14.0925 32.9851 13.6261 33.4516 13.0513 33.4516H0.650725C0.441087 32.8366 0.273099 32.1466 0.160645 31.3691H13.0513C13.6261 31.3691 14.0925 31.8356 14.0925 32.4104Z" fill="#AB7B64"/>
<path d="M32.8355 32.4104C32.8355 32.9851 32.369 33.4516 31.7942 33.4516H24.1584C23.5837 33.4516 23.1172 32.9851 23.1172 32.4104C23.1172 31.8356 23.5837 31.3691 24.1584 31.3691H31.7942C32.369 31.3691 32.8355 31.8356 32.8355 32.4104Z" fill="#AB7B64"/>
<path d="M31.9305 26.3715H16.6589C16.0842 26.3715 15.6177 25.9051 15.6177 25.3303C15.6177 24.7555 16.0842 24.2891 16.6589 24.2891H31.9305C32.5053 24.2891 32.9718 24.7555 32.9718 25.3303C32.9718 25.9051 32.5053 26.3715 31.9305 26.3715Z" fill="#AB7B64"/>
<path d="M59.5617 19.499H40.0586V38.3803L59.7183 38.3781L59.5617 19.499Z" fill="#AB7B64"/>
<path d="M59.714 38.3782L40.6758 38.381V35.6043L59.6903 35.6016L59.714 38.3782Z" fill="#9A6A53"/>
<path d="M59.5617 38.3803C64.7757 38.3803 69.0024 34.1536 69.0024 28.9397C69.0024 23.7257 64.7757 19.499 59.5617 19.499C54.3478 19.499 50.1211 23.7257 50.1211 28.9397C50.1211 34.1536 54.3478 38.3803 59.5617 38.3803Z" fill="#F3D69E"/>
<path d="M58.0202 35.0281C57.9193 35.0281 57.8168 35.0134 57.7155 34.9823C55.0819 34.1772 53.2427 31.6927 53.2427 28.9402C53.2427 26.7319 54.3688 24.7199 56.2548 23.5582C56.7443 23.2566 57.3859 23.4089 57.6874 23.8986C57.9891 24.3882 57.8365 25.0296 57.347 25.3312C56.081 26.1109 55.3252 27.4601 55.3252 28.94C55.3252 30.7852 56.5584 32.451 58.3242 32.9909C58.8743 33.159 59.1838 33.741 59.0155 34.2909C58.8785 34.7395 58.466 35.0281 58.0202 35.0281Z" fill="#EDC472"/>
<path d="M62.7605 34.1754C62.447 34.1754 62.1373 34.0345 61.9324 33.7664C61.5831 33.3095 61.6706 32.656 62.1275 32.3068C63.1886 31.496 63.7969 30.2689 63.7969 28.9401C63.7969 27.5335 63.0979 26.2209 61.9268 25.4293C61.4505 25.1074 61.3254 24.46 61.6475 23.9835C61.9696 23.5073 62.6168 23.3819 63.0933 23.7042C64.8377 24.8836 65.8793 26.841 65.8793 28.9401C65.8793 30.9232 64.9725 32.7536 63.3917 33.9614C63.2033 34.1057 62.981 34.1754 62.7605 34.1754Z" fill="#EDC472"/>
<path d="M32.9752 25.3303C32.9752 25.9051 32.5087 26.3715 31.934 26.3715H16.6623C16.0876 26.3715 15.6211 25.9051 15.6211 25.3303C15.6211 24.7555 16.0876 24.2891 16.6623 24.2891H31.934C32.5087 24.2891 32.9752 24.7555 32.9752 25.3303Z" fill="#9A6A53"/>
<path d="M8.38519 25.3303C8.38519 25.9051 7.91872 26.3715 7.34395 26.3715H0.206543C0.337046 25.5927 0.524471 24.9013 0.754933 24.2891H7.34395C7.91872 24.2891 8.38519 24.7555 8.38519 25.3303Z" fill="#9A6A53"/>
<path d="M14.0925 32.4114C14.0925 32.9861 13.6261 33.4526 13.0513 33.4526H0.650725C0.441087 32.8376 0.273099 32.1476 0.160645 31.3701H13.0513C13.6261 31.3701 14.0925 31.8366 14.0925 32.4114Z" fill="#9A6A53"/>
<path d="M32.8355 32.4114C32.8355 32.9861 32.369 33.4526 31.7942 33.4526H24.1584C23.5837 33.4526 23.1172 32.9861 23.1172 32.4114C23.1172 31.8366 23.5837 31.3701 24.1584 31.3701H31.7942C32.369 31.3701 32.8355 31.8366 32.8355 32.4114Z" fill="#9A6A53"/>
<path d="M40.6799 38.3803C45.8938 38.3803 50.1206 34.1536 50.1206 28.9397C50.1206 23.7257 45.8938 19.499 40.6799 19.499C35.466 19.499 31.2393 23.7257 31.2393 28.9397C31.2393 34.1536 35.466 38.3803 40.6799 38.3803Z" fill="#F3D69E"/>
<path d="M37.9617 34.5015C37.7784 34.5015 37.5931 34.4532 37.4247 34.3517C35.5363 33.2123 34.3633 31.1384 34.3633 28.9397C34.3633 27.9479 34.6004 26.9585 35.0491 26.0783C35.3103 25.5662 35.9376 25.3623 36.4497 25.6236C36.962 25.8847 37.1656 26.5117 36.9043 27.0241C36.6 27.6212 36.4456 28.2657 36.4456 28.9399C36.4456 30.4358 37.2138 31.7925 38.5005 32.5688C38.9928 32.8661 39.1512 33.506 38.8541 33.9984C38.6585 34.3222 38.3145 34.5015 37.9617 34.5015Z" fill="#EDC472"/>
<path d="M42.7301 34.8419C42.3245 34.8419 41.9391 34.6035 41.771 34.2066C41.5466 33.6772 41.7939 33.0659 42.3234 32.8416C43.8961 32.1753 44.9124 30.6438 44.9124 28.9399C44.9124 26.6052 43.0127 24.7055 40.678 24.7055C40.1028 24.7055 39.6367 24.2395 39.6367 23.6643C39.6367 23.0891 40.1028 22.623 40.678 22.623C44.1611 22.623 46.9949 25.4568 46.9949 28.9399C46.9949 31.4817 45.4801 33.7659 43.1357 34.759C43.0033 34.8153 42.8656 34.8419 42.7301 34.8419Z" fill="#EDC472"/>
<path d="M69.001 28.9406C69.001 34.1552 64.7749 38.3813 59.5604 38.3813C55.7313 38.3813 52.4355 36.103 50.9541 32.8279C52.6701 35.1839 55.4495 36.7153 58.5885 36.7153C63.8031 36.7153 68.0292 32.4892 68.0292 27.2746C68.0292 25.8891 67.7307 24.5743 67.1948 23.3887C68.3318 24.9464 69.001 26.8651 69.001 28.9406Z" fill="#EFCB83"/>
<path d="M50.1201 28.9406C50.1201 29.6389 50.0438 30.3178 49.9008 30.9731C48.972 35.2103 45.1957 38.3813 40.6795 38.3813C36.8505 38.3813 33.5546 36.103 32.0732 32.8279C33.7892 35.1839 36.5687 36.7153 39.7077 36.7153C44.9222 36.7153 49.1483 32.4892 49.1483 27.2746C49.1483 25.8891 48.8498 24.5743 48.3139 23.3887C48.7332 23.9607 49.0872 24.5826 49.3677 25.2421C49.8522 26.3777 50.1201 27.6272 50.1201 28.9406Z" fill="#EFCB83"/>
</svg>
