<svg width="40" height="40" viewBox="0 0 40 40" fill="none" xmlns="http://www.w3.org/2000/svg">
<path d="M28.0691 12.8569H11.9307L19.9999 19.7734L28.0691 12.8569Z" fill="white"/>
<path d="M20.0001 21.4288C19.8295 21.4288 19.6646 21.3677 19.5352 21.2565L10.7144 13.6958V27.1431H29.2858V13.6958L20.465 21.2565C20.3356 21.3677 20.1706 21.4288 20.0001 21.4288Z" fill="white"/>
<path d="M20 0C8.95438 0 0 8.95438 0 20C0 31.0456 8.95438 40 20 40C31.0456 40 40 31.0456 40 20C39.9874 8.95961 31.0404 0.0125558 20 0ZM30.7143 27.8571C30.7143 28.2516 30.3945 28.5714 30 28.5714H10C9.60554 28.5714 9.28571 28.2516 9.28571 27.8571V12.1429C9.28571 11.7484 9.60554 11.4286 10 11.4286H30C30.3945 11.4286 30.7143 11.7484 30.7143 12.1429V27.8571Z" fill="white"/>
</svg>
