<svg width="40" height="40" viewBox="0 0 40 40" fill="none" xmlns="http://www.w3.org/2000/svg">
<path fill-rule="evenodd" clip-rule="evenodd" d="M20 0C31.0457 0 40 8.95433 40 20C40 31.0457 31.0457 40 20 40C8.95433 40 0 31.0457 0 20C0 8.95433 8.95433 0 20 0ZM25.3284 17.4653C25.2312 16.6751 24.9882 16.0546 24.5569 15.5049C23.9967 14.7972 23.281 14.3734 22.2213 14.122C21.5307 13.9544 21.2516 13.9737 21.0018 14.2018C20.7692 14.4156 20.7237 14.8442 20.9015 15.1217C21.0266 15.3231 21.1708 15.3952 21.572 15.474C22.1062 15.5722 22.4755 15.6998 22.8113 15.8918C23.5242 16.3035 23.8562 16.9476 23.8917 17.9904C23.9083 18.48 23.9507 18.6305 24.1217 18.8042C24.4386 19.1217 25.0027 19.0599 25.242 18.68C25.3297 18.5368 25.3432 18.4745 25.3524 18.1421C25.3586 17.9362 25.3497 17.6298 25.3284 17.4653ZM25.3379 12.6168C27.0327 13.9873 27.9797 15.9353 28.1205 18.3564C28.1797 19.31 28.1011 19.6206 27.7647 19.7975C27.4611 19.9614 27.1171 19.9074 26.8811 19.6607C26.7248 19.5002 26.6647 19.2806 26.6671 18.8919C26.6739 17.8171 26.4263 16.6168 26.0237 15.7839C25.5577 14.8146 24.8374 13.9897 23.9313 13.3866C23.1377 12.8568 22.0872 12.4991 21.0688 12.41C20.4082 12.3522 20.1723 12.2402 20.0455 11.9236C19.9669 11.7342 19.9877 11.4067 20.0798 11.26C20.1668 11.1247 20.3622 10.9752 20.5004 10.9356C20.6468 10.8929 21.5001 10.9675 21.9636 11.0597C23.2288 11.3172 24.383 11.8467 25.3379 12.6168ZM31.2102 27.6803C31.1628 27.5419 31.0523 27.3284 30.9734 27.2058C30.476 26.4548 27.8037 24.3635 26.4696 23.6796C25.7078 23.2882 25.1433 23.1578 24.7249 23.2803C24.2749 23.4069 24.0381 23.6163 23.2842 24.5532C22.9802 24.9288 22.6684 25.2807 22.5855 25.336C22.3802 25.4783 21.9777 25.593 21.6934 25.593C21.0343 25.589 19.8382 25.1621 18.9185 24.6007C18.2041 24.1659 17.2883 23.3871 16.5858 22.6162C15.7568 21.7109 15.1923 20.9124 14.7462 20.0111C14.17 18.8527 14.024 18.1451 14.2648 17.6273C14.3239 17.4967 14.4029 17.3584 14.4383 17.3149C14.4739 17.2754 14.845 16.971 15.2554 16.6389C16.0607 15.9985 16.191 15.8522 16.3409 15.4134C16.5304 14.856 16.4792 14.2867 16.187 13.7136C15.962 13.2787 15.3739 12.3299 14.9476 11.7172C14.3832 10.9108 12.9779 9.18717 12.6977 8.95383C12.1924 8.54275 11.5451 8.47158 10.8306 8.74833C10.0767 9.04092 8.66358 10.1794 8.05963 10.974C7.51492 11.6935 7.30577 12.2034 7.27417 12.8755C7.24656 13.4289 7.29391 13.6582 7.58601 14.3658C9.8715 19.9162 13.2818 24.3477 17.9672 27.8661C20.4145 29.7043 22.9526 31.1037 25.5854 32.0605C27.1208 32.6178 27.7879 32.6455 28.5734 32.187C28.905 31.9893 29.726 31.1472 30.1839 30.5345C30.9417 29.5146 31.2221 29.0442 31.301 28.6686C31.3562 28.4117 31.3128 27.9649 31.2102 27.6803ZM30.2009 15.1671C30.6817 16.4196 30.9123 17.5429 30.9629 18.9124C30.9709 19.183 30.9672 19.6787 30.9497 20.0145C30.9132 20.6582 30.8783 20.786 30.6929 20.9563C30.3951 21.2358 29.8145 21.1692 29.5943 20.8324C29.4793 20.6517 29.4632 20.5193 29.4854 19.7673C29.5493 17.5427 29.0994 15.8009 28.0156 14.0592C26.7204 11.9697 24.7832 10.5621 22.264 9.8735C21.6216 9.69817 21.0802 9.59133 20.2382 9.478C19.6897 9.40625 19.5696 9.37583 19.4342 9.2925C19.0252 9.03058 19.0198 8.36742 19.4275 8.10148C19.6378 7.96112 19.793 7.95485 20.4787 8.04267C22.4893 8.29393 24.2835 8.89142 25.7577 9.79425C26.8144 10.4422 27.4807 11.0243 28.3385 12.0438C29.2458 13.1312 29.7262 13.9352 30.2009 15.1671Z" fill="white"/>
</svg>
