<svg width="24" height="24" viewBox="0 0 24 24" fill="none" xmlns="http://www.w3.org/2000/svg">
<g clip-path="url(#clip0)">
<path d="M6.19531 20.1289H10.0663V22.4515H6.19531V20.1289Z" fill="#F0BC5E"/>
<path d="M13.79 6.29584L12.0023 5.84051L10.2147 6.29584L10.0746 4.37623L9.125 2.75469L10.8046 2.02681L12.0023 0.545898L13.2005 2.02643L14.8801 2.75432L13.9305 4.37585L13.79 6.29584Z" fill="#F0BC5E"/>
<path d="M4.16961 8.23156L3.09885 7.95938L2.0281 8.23156L1.94531 7.08614L1.38281 6.12577L2.37928 5.69407L3.09885 4.8042L3.81842 5.69369L4.81489 6.12539L4.25239 7.08577L4.16961 8.23156Z" fill="#F0BC5E"/>
<path d="M21.9766 8.23156L20.9059 7.95938L19.8351 8.23156L19.752 7.08614L19.1895 6.12577L20.1859 5.69407L20.9059 4.8042L21.6254 5.69369L22.6219 6.12539L22.0594 7.08577L21.9766 8.23156Z" fill="#F0BC5E"/>
<path d="M8.30173 12.9252L6.76846 11.0094C6.21522 10.3172 5.56067 9.7173 4.82315 9.22568L4.53906 9.03648L5.6737 6.76758L6.04417 7.04524C7.11171 7.84533 7.81899 9.06426 7.98457 10.3885L8.30173 12.9252Z" fill="#F0BC5E"/>
<path d="M15.7031 12.925L16.0203 10.3883C16.1859 9.06405 16.8931 7.84548 17.9607 7.04502L18.3315 6.7666L19.4662 9.03532L19.1821 9.22471C18.4446 9.71671 17.7896 10.3163 17.2368 11.008L15.7031 12.925Z" fill="#F0BC5E"/>
<path d="M19.2046 13.9355H4.79057L3.24219 17.0323H4.64277V24.0001H19.3524V17.0323H20.753L19.2046 13.9355ZM18.7261 14.7097L19.5002 16.2581H13.3982L12.624 14.7097H18.7261ZM5.26915 14.7097H11.3712L10.597 16.2581H4.49496L5.26915 14.7097ZM18.5782 23.2259H12.3847V20.5162H11.6105V23.2259H5.41696V17.0323H11.0756L11.6105 15.9623V19.3549H12.3847V15.9623L12.9196 17.0323H18.5782V23.2259Z" fill="black"/>
<path d="M6.19336 20.1289H8.51594V20.9031H6.19336V20.1289Z" fill="black"/>
<path d="M6.19336 21.6772H8.51594V22.4514H6.19336V21.6772Z" fill="black"/>
<path d="M9.29102 21.6772H10.0652V22.4514H9.29102V21.6772Z" fill="black"/>
<path d="M14.323 11.5394C14.323 9.68011 14.9783 7.87013 16.1691 6.44139L15.5741 5.9458C14.268 7.51328 13.5488 9.4998 13.5488 11.5394V13.1613H14.323V11.5394Z" fill="black"/>
<path d="M16.2578 4.64502H17.032V5.41921H16.2578V4.64502Z" fill="black"/>
<path d="M17.4219 3.09668H18.1961V3.87087H17.4219V3.09668Z" fill="black"/>
<path d="M9.67383 13.1608H10.448V11.5389C10.448 9.49893 9.72883 7.51279 8.42314 5.94531L7.82812 6.4409C9.01852 7.86964 9.67383 9.67962 9.67383 11.5389V13.1608Z" fill="black"/>
<path d="M6.9668 4.64502H7.74099V5.41921H6.9668V4.64502Z" fill="black"/>
<path d="M5.80664 3.09668H6.58083V3.87087H5.80664V3.09668Z" fill="black"/>
<path d="M11.6094 6.58105H12.3836V7.35525H11.6094V6.58105Z" fill="black"/>
<path d="M11.6094 8.12891H12.3836V13.1612H11.6094V8.12891Z" fill="black"/>
</g>
<defs>
<clipPath id="clip0">
<rect width="24" height="24" fill="white"/>
</clipPath>
</defs>
</svg>
