<svg width="22" height="22" viewBox="0 0 22 22" fill="none" xmlns="http://www.w3.org/2000/svg">
<g clip-path="url(#clip0)">
<path d="M13.0178 2.55996L13.4045 2.21492L13.0178 1.84066C13.0178 1.84066 11.3349 -0.451335 10.4137 0.0798877C9.75065 0.462224 9.6483 1.71829 9.65891 2.55996L11.3384 2.94668L13.0178 2.55996Z" fill="#FF4D54"/>
<path d="M9.6582 2.56006C9.664 3.02146 9.70375 3.35846 9.70375 3.35846L11.3377 3.74518L13.0171 3.35846L13.4039 2.94678L13.0171 2.56006H9.6582Z" fill="#EA4955"/>
<path d="M14.8047 2.55996L14.418 2.21492L14.8047 1.84066C14.8047 1.84066 16.4876 -0.451335 17.4089 0.0798877C18.0719 0.462224 18.1742 1.71829 18.1636 2.55996L16.4841 2.94668L14.8047 2.55996Z" fill="#FF4D54"/>
<path d="M18.1636 2.56006C18.1578 3.02146 18.1181 3.35846 18.1181 3.35846L16.4842 3.74518L14.8047 3.35846L14.418 2.94678L14.8047 2.56006H18.1636Z" fill="#EA4955"/>
<path d="M13.0176 2.56012L13.9111 2.94683L14.8046 2.56012V1.84082H13.0176V2.56012Z" fill="#CC353E"/>
<path d="M13.0176 2.56006V3.35846L13.9111 3.74518L14.8047 3.35846V2.56006H13.0176Z" fill="#C12131"/>
<path d="M8.29102 5.59284L13.9116 5.18115L19.6565 5.59284V20.5363C19.6565 20.9038 19.3586 21.2017 18.9911 21.2017H8.95639C8.58892 21.2017 8.29102 20.9038 8.29102 20.5363V5.59284Z" fill="#85CF99"/>
<path d="M7.84591 5.59281H20.1005C20.3454 5.59281 20.544 5.39421 20.544 5.14925V3.80196C20.544 3.557 20.3454 3.3584 20.1005 3.3584H14.8039L13.9111 3.74512L13.0175 3.3584H7.84591C7.60095 3.3584 7.40234 3.557 7.40234 3.80196V5.14925C7.40234 5.39421 7.60095 5.59281 7.84591 5.59281Z" fill="#B1E7A1"/>
<path d="M20.1005 4.79464H7.84591C7.60095 4.79464 7.40234 4.59604 7.40234 4.35107V5.14948C7.40234 5.39444 7.60095 5.59304 7.84591 5.59304H20.1005C20.3454 5.59304 20.544 5.39444 20.544 5.14948V4.35107C20.544 4.59604 20.3454 4.79464 20.1005 4.79464Z" fill="#97D4A8"/>
<path d="M13.0176 4.79446L13.9111 5.18118L14.8047 4.79446V3.3584H13.0176V4.79446Z" fill="#FF4D54"/>
<path d="M13.0176 5.5928L13.9112 5.97952L14.8047 5.5928V4.79443H13.0176V5.5928Z" fill="#EA4955"/>
<path d="M13.0176 5.59277H14.8047V11.3203L14.418 13.1167L14.8047 14.971V21.2016H13.0176V5.59277Z" fill="#CC353E"/>
<path d="M6.50885 10.0784L6.89557 9.68152L6.50885 9.30846C6.50885 9.30846 4.81828 6.94261 3.89897 7.49123C3.23072 7.89003 3.13283 9.20934 3.14555 10.0784L4.82722 10.4651L6.50885 10.0784Z" fill="#FF4D54"/>
<path d="M3.14648 10.0786C3.15323 10.5416 3.19134 10.877 3.19134 10.877L4.82811 11.2637L6.50977 10.876L6.89649 10.4778L6.50977 10.0786H3.14648Z" fill="#EA4955"/>
<path d="M8.29492 10.0784L7.9082 9.68152L8.29492 9.30846C8.29492 9.30846 9.98548 6.94261 10.9048 7.49123C11.5731 7.89003 11.671 9.20934 11.6583 10.0784L9.97659 10.4651L8.29492 10.0784Z" fill="#FF4D54"/>
<path d="M11.6582 10.0786C11.6515 10.5416 11.6134 10.877 11.6134 10.877L9.97659 11.2637L8.29492 10.876L7.9082 10.4778L8.29492 10.0786H11.6582Z" fill="#EA4955"/>
<path d="M6.50977 10.078L7.40283 10.465L8.29585 10.0785V9.30911L6.50977 9.30859V10.078Z" fill="#CC353E"/>
<path d="M6.50977 10.0786V10.8759L7.40283 11.2632L8.29589 10.877V10.0786H6.50977Z" fill="#C12131"/>
<path d="M1.42119 21.5884H13.3843C13.7518 21.5884 14.0497 21.3347 14.0497 20.5363V13.1167L7.40278 12.7051L0.755859 13.1167V20.5363C0.755816 21.3347 1.05372 21.5884 1.42119 21.5884Z" fill="#F786CB"/>
<path d="M0.443566 12.7052H14.3609C14.6059 12.7052 14.8045 12.3997 14.8045 11.8749V11.3205C14.8045 11.0756 14.6059 10.877 14.3609 10.877H8.29495L7.40257 11.2637L6.50951 10.877H0.443566C0.198602 10.8769 0 11.0755 0 11.3205V11.8749C0 12.4959 0.198602 12.7052 0.443566 12.7052Z" fill="#FFA5D5"/>
<path d="M14.3609 12.3186H0.443566C0.198602 12.3186 0 12.12 0 11.875V12.6734C0 12.9184 0.198602 13.117 0.443566 13.117H14.3609C14.6059 13.117 14.8045 12.9184 14.8045 12.6734V11.875C14.8045 12.12 14.6059 12.3186 14.3609 12.3186Z" fill="#FF92D0"/>
<path d="M13.3844 21.2015H1.42123C1.05376 21.2015 0.755859 20.9036 0.755859 20.5361V21.3345C0.755859 21.702 1.05376 21.9999 1.42123 21.9999H6.50912L7.40282 21.5882L8.29649 21.9999H12.2531L12.8194 21.5882L13.3844 21.9999C13.7518 21.9999 14.0497 21.702 14.0497 21.3345V20.5361C14.0497 20.9036 13.7518 21.2015 13.3844 21.2015Z" fill="#EF78C2"/>
<path d="M6.50781 12.3186L7.40152 12.7053L8.29523 12.3186V10.877H6.50781V12.3186Z" fill="#FF4D54"/>
<path d="M6.50781 13.1168L7.40191 13.5035L8.29523 13.1168V12.3184H6.50781V13.1168Z" fill="#EA4955"/>
<path d="M6.50781 13.1167H8.29523V21.2016L7.40152 21.5883L6.50781 21.2016V13.1167Z" fill="#CC353E"/>
<path d="M6.50781 21.2017H8.29523V22.0001H6.50781V21.2017Z" fill="#C12131"/>
<path d="M15.5626 14.1727L15.9493 13.7626L15.5626 13.3923C15.5626 13.3923 14.1765 11.6185 13.4267 12.2712C12.973 12.6662 12.8695 13.5283 12.8613 14.1727L14.2117 14.5595L15.5626 14.1727Z" fill="#FF4D54"/>
<path d="M12.8619 14.1729C12.8562 14.6258 12.8975 14.9713 12.8975 14.9713L14.1805 15.358L15.5631 14.9713L15.9498 14.5721L15.5631 14.1729H12.8619V14.1729Z" fill="#EA4955"/>
<path d="M17.293 14.1727L16.9062 13.7626L17.293 13.3923C17.293 13.3923 18.6791 11.6185 19.4288 12.2712C19.8826 12.6662 19.986 13.5283 19.9942 14.1727L18.6439 14.5595L17.293 14.1727Z" fill="#FF4D54"/>
<path d="M19.9942 14.1729C19.9999 14.6258 19.9586 14.9713 19.9586 14.9713L18.6755 15.358L17.293 14.9713L16.9062 14.5721L17.293 14.1729H19.9942V14.1729Z" fill="#EA4955"/>
<path d="M15.5625 14.1731L16.4279 14.5598L17.2934 14.1731V13.3926H15.5625V14.1731Z" fill="#CC353E"/>
<path d="M15.5625 14.1729V14.9712L16.4279 15.3579L17.2934 14.9712V14.1729H15.5625Z" fill="#C12131"/>
<path d="M12.2513 21.5882H20.602C20.9695 21.5882 21.2674 21.3345 21.2674 20.5361V16.9761L16.4267 16.5645L11.5859 16.9761V20.5361C11.5859 21.3345 11.8838 21.5882 12.2513 21.5882Z" fill="#FCC07E"/>
<path d="M11.299 16.5647H21.5561C21.8011 16.5647 21.9997 16.2848 21.9997 15.7344V15.4148C21.9997 15.1698 21.8011 14.9712 21.5561 14.9712H17.293L16.4276 15.3579L15.5621 14.9712H11.299C11.0541 14.9712 10.8555 15.1698 10.8555 15.4148V15.7344C10.8554 16.5328 11.054 16.5647 11.299 16.5647Z" fill="#FFDE8F"/>
<path d="M21.5561 16.1779H11.299C11.0541 16.1779 10.8555 15.9793 10.8555 15.7344V16.5328C10.8555 16.7777 11.0541 16.9763 11.299 16.9763H21.5561C21.8011 16.9763 21.9997 16.7777 21.9997 16.5328V15.7344C21.9997 15.9794 21.8011 16.1779 21.5561 16.1779Z" fill="#F9CD7F"/>
<path d="M20.602 21.2015H12.2513C11.8838 21.2015 11.5859 20.9036 11.5859 20.5361V21.3345C11.5859 21.702 11.8838 21.9999 12.2513 21.9999H15.5612L16.4267 21.5882L17.2921 21.9999H20.602C20.9695 21.9999 21.2674 21.702 21.2674 21.3345V20.5361C21.2674 20.9036 20.9695 21.2015 20.602 21.2015Z" fill="#F9B067"/>
<path d="M15.5625 16.178L16.4279 16.5647L17.2934 16.178V14.9712H15.5625V16.178Z" fill="#FF4D54"/>
<path d="M15.5625 16.9761L16.4279 17.3629L17.2934 16.9761V16.1777H15.5625V16.9761Z" fill="#EA4955"/>
<path d="M15.5625 16.9761H17.2934V21.2014L16.428 21.5882L15.5625 21.2014V16.9761Z" fill="#CC353E"/>
<path d="M15.5625 21.2017H17.2934V22.0001H15.5625V21.2017Z" fill="#C12131"/>
</g>
<defs>
<clipPath id="clip0">
<rect width="22" height="22" fill="white"/>
</clipPath>
</defs>
</svg>
