<svg width="24" height="24" viewBox="0 0 24 24" fill="none" xmlns="http://www.w3.org/2000/svg">
<g clip-path="url(#clip0)">
<path d="M19.4566 10.4858C19.4304 10.432 19.3848 10.3054 19.3279 10.1473C19.138 9.61983 18.7746 9.67787 18.7746 9.67787C18.7746 9.67787 18.8483 9.80137 18.7253 10.1216C18.6882 10.3405 17.4367 11.9673 17.2103 11.5481C17.1911 11.5127 17.1861 11.4714 17.1908 11.4313C17.2615 10.8194 17.2852 10.193 17.2627 9.56122C17.1617 6.64064 16.0904 3.59211 14.246 1.19683C14.2407 1.19007 14.2359 1.1838 14.2305 1.17752C14.2017 1.14015 14.1726 1.10292 14.1433 1.06584C14.1433 1.0658 14.1432 1.06575 14.1432 1.0657V1.06546C14.0645 0.965949 13.9844 0.867501 13.903 0.770261C13.6921 0.518229 13.585 0.731684 13.3552 0.496212C13.2803 0.419444 13.149 0.465312 13.137 0.572015C12.8704 2.97019 12.3093 3.89141 11.7029 4.63592C10.9346 5.45855 9.76701 6.42477 9.28655 7.71776C9.04934 8.24712 8.64517 8.75756 8.52176 9.27824C8.50182 9.38538 8.35862 9.39566 8.30198 9.33188C7.82785 8.85958 7.47428 7.93189 7.33296 7.10747C7.28516 6.82869 7.11019 7.04693 7.11449 6.81339C7.11352 6.73807 7.02275 6.70089 6.96916 6.75449C4.50436 9.2048 3.73561 12.6115 4.18319 16.1868C4.25609 16.7807 4.27907 17.3766 4.42971 17.9371C4.92852 19.8777 6.27699 21.3823 7.83206 22.4736C9.23349 23.457 10.7697 24.1348 12.5793 23.97C12.5788 23.9699 12.5781 23.9698 12.5776 23.9698C16.5618 23.6739 19.5617 20.7385 20.1229 16.7793C20.5205 14.2833 19.979 11.9781 19.4566 10.4858Z" fill="#F9AF38"/>
<path d="M12.3934 23.9846C8.64429 24.2309 5.12597 21.5758 4.19316 17.946C4.04252 17.3854 3.90781 16.7578 3.83491 16.1639C3.38733 12.5886 4.65426 8.71975 7.11906 6.26944C7.17265 6.21584 7.26342 6.25302 7.26439 6.32834C7.26004 6.56203 7.2837 6.82854 7.3315 7.10761C5.3669 9.54924 4.40126 12.9734 4.80055 16.1639C4.87346 16.7578 5.00816 17.3854 5.1588 17.946C6.01098 21.262 9.02137 23.7649 12.3934 23.9846Z" fill="#F48931"/>
<path d="M17.2978 11.624C17.3022 11.6245 17.3066 11.625 17.311 11.625H17.2974L17.2978 11.624Z" fill="#F48931"/>
<path d="M9.28477 7.18457C9.21041 7.32845 9.14185 7.47233 9.07812 7.61476L9.07764 7.6138C9.14137 7.47136 9.20993 7.32797 9.28477 7.18457Z" fill="#F48931"/>
<path d="M16.701 14.8264C16.5945 14.5561 16.5653 14.4758 16.4996 14.3415C16.4762 14.2936 16.4056 14.3029 16.3951 14.3551C16.3599 14.5309 16.3516 14.6527 16.2613 14.888C16.1198 15.2651 15.8226 15.5979 15.5345 15.8705C15.4962 15.9074 15.4412 15.8972 15.4127 15.8625C15.3997 15.8394 15.3923 15.8171 15.3944 15.7994C15.6659 13.5379 14.946 10.9814 13.4696 9.06407C13.4662 9.05963 13.4629 9.05576 13.4596 9.05166C13.4532 9.0434 13.4468 9.0352 13.4405 9.02699C13.2441 8.77471 13.0854 8.64141 12.8631 8.4138C12.8139 8.3634 12.7281 8.39333 12.7203 8.46344C12.5457 10.0341 12.2658 10.8634 11.8687 11.3509C11.482 11.826 11.0851 11.9583 10.6417 12.6363C10.2365 13.2563 10.0189 13.8118 9.89609 14.321C9.88016 14.387 9.62084 14.4436 9.57656 14.3921C9.45021 14.246 9.30024 14.0358 9.17254 13.7477C9.08732 13.5554 9.02798 13.3647 8.98684 13.1856C8.91727 12.8825 8.81815 12.8298 8.81631 12.642C8.81573 12.5926 8.7561 12.5684 8.72105 12.6034C7.00207 14.3123 6.4938 16.782 6.96233 19.2438C7.61491 22.6725 10.2383 24.0051 12.1398 23.9754C12.2229 23.9741 12.329 23.9909 12.4401 23.9823C13.614 23.8913 16.2066 23.2898 17.1576 20.0126C17.702 18.1368 17.2938 16.3308 16.9016 15.2016C16.8515 15.0569 16.701 14.8264 16.701 14.8264Z" fill="#DF646E"/>
<path d="M10.066 13.3174L9.89844 13.7519C9.94624 13.6109 10.0018 13.4651 10.066 13.3174Z" fill="#DC4955"/>
<path d="M12.4735 23.9789C12.3514 23.9924 12.2341 23.9895 12.1472 23.9958C10.2454 24.0156 7.37552 22.7477 6.72323 19.3192C6.25442 16.8573 7.0839 14.0946 8.80274 12.3858C8.83799 12.3506 8.89737 12.3747 8.89786 12.4245C8.89979 12.6123 8.91717 12.8817 8.9867 13.1849C7.74102 14.8835 7.19109 17.2116 7.59231 19.3192C8.18425 22.4285 10.6103 23.7727 12.4735 23.9789Z" fill="#DC4955"/>
<path d="M11.0065 21.5108C10.9586 21.5108 10.9098 21.5012 10.863 21.4809C10.6794 21.4016 10.595 21.1884 10.6744 21.0049L12.7349 16.2399C12.8142 16.0564 13.0274 15.972 13.2109 16.0513C13.3945 16.1307 13.479 16.3438 13.3996 16.5274L11.3391 21.2923C11.28 21.429 11.1466 21.5108 11.0065 21.5108Z" fill="#F5FCFF"/>
<path d="M10.1888 18.5548C10.1846 18.5548 10.1804 18.5547 10.1762 18.5547C9.48709 18.5473 8.93319 17.9161 8.9415 17.1477C8.94975 16.3839 9.5105 15.7676 10.194 15.7676C10.1981 15.7676 10.2021 15.7676 10.2062 15.7676C10.5504 15.7713 10.8692 15.9268 11.1037 16.2053C11.325 16.4682 11.4448 16.8125 11.4409 17.1747C11.437 17.5368 11.3099 17.8784 11.0829 18.1364C10.8453 18.4065 10.5282 18.5548 10.1888 18.5548ZM10.1939 16.4918C9.90622 16.4918 9.66964 16.7884 9.66568 17.1555C9.66172 17.5246 9.8942 17.8274 10.184 17.8305C10.3143 17.8338 10.4401 17.7707 10.5391 17.6582C10.6516 17.5302 10.7147 17.3557 10.7167 17.1668C10.7188 16.978 10.6594 16.8022 10.5497 16.6718C10.4532 16.5572 10.3284 16.4933 10.1985 16.4919C10.1969 16.4918 10.1954 16.4918 10.1939 16.4918Z" fill="#F5FCFF"/>
<path d="M13.8095 21.8673C13.8054 21.8673 13.8014 21.8673 13.7973 21.8672C13.1082 21.8598 12.5543 21.2286 12.5626 20.4602C12.5709 19.6964 13.1316 19.0801 13.8151 19.0801C13.8192 19.0801 13.8233 19.0801 13.8274 19.0801C14.5164 19.0876 15.0703 19.7188 15.0621 20.4871V20.4872C15.0538 21.2509 14.493 21.8673 13.8095 21.8673ZM13.815 19.8043C13.5273 19.8043 13.2908 20.1009 13.2868 20.468C13.2828 20.8371 13.5153 21.1399 13.8051 21.143C14.0931 21.1475 14.3339 20.8484 14.3378 20.4793V20.4793C14.3418 20.1102 14.1094 19.8074 13.8196 19.8043C13.8181 19.8043 13.8165 19.8043 13.815 19.8043ZM14.6999 20.4833H14.7004H14.6999Z" fill="#F5FCFF"/>
<path d="M9.38514 2.08946C9.21871 2.97157 8.64642 3.42373 8.397 3.6242C8.3507 3.66142 8.28262 3.64824 8.25302 3.59677C8.09345 3.31915 7.71487 2.70597 7.8812 1.82439C7.91886 1.62469 7.90003 1.40018 7.98177 1.22776C8.26123 0.638434 8.73019 0.221325 8.92318 0.0661951C8.96948 0.0289696 9.03756 0.0421506 9.06715 0.0936193C9.19283 0.31224 9.48552 0.886797 9.52294 1.55169C9.53303 1.73101 9.42044 1.90217 9.38514 2.08946Z" fill="#DF646E"/>
<path d="M9.48883 2.10431C9.32273 2.98642 8.61202 3.62471 8.3624 3.82508C8.31605 3.86226 8.24798 3.84922 8.21852 3.79804C8.05919 3.52042 7.62997 2.66873 7.79654 1.7871C7.83758 1.56935 7.91193 1.36656 8.00463 1.18164C8.04181 1.846 8.3344 2.42056 8.45993 2.63928C8.48939 2.69045 8.55746 2.70349 8.60381 2.66631C8.79163 2.51567 9.24114 2.11638 9.52214 1.55196C9.53276 1.73157 9.52407 1.91746 9.48883 2.10431Z" fill="#DC4955"/>
<path d="M20.0885 4.88673C20.2621 5.6857 19.8575 6.30941 19.7023 6.56323C19.6737 6.60997 19.6117 6.62339 19.5664 6.59268C19.3198 6.42567 18.7254 6.04743 18.5517 5.24831C18.5228 5.11525 18.4331 4.97306 18.4336 4.8425C18.4363 4.18929 18.757 3.59933 18.8863 3.38776C18.9149 3.34102 18.9769 3.3276 19.0222 3.35831C19.2101 3.48563 19.6754 3.83514 19.9628 4.34809C20.0525 4.50815 20.0472 4.69674 20.0885 4.88673Z" fill="#DF646E"/>
<path d="M19.7534 6.72507C19.7249 6.77142 19.6626 6.78494 19.6177 6.75452C19.371 6.58746 18.6473 6.03753 18.4734 5.23846C18.4377 5.0743 18.4276 4.90966 18.4358 4.75033C18.7231 5.26357 19.188 5.61313 19.3763 5.74059C19.4212 5.77101 19.4835 5.75749 19.512 5.71114C19.6351 5.50981 19.9325 4.96422 19.962 4.34766C20.0518 4.50747 20.1242 4.68322 20.1657 4.87345C20.3391 5.67252 19.9084 6.4711 19.7534 6.72507Z" fill="#DC4955"/>
<path d="M13.4419 9.02661C13.2304 10.1762 12.8601 10.8464 12.524 11.2592C12.1373 11.7343 11.7795 11.8883 11.3358 12.5662C11.1234 12.8911 10.9307 13.3821 10.7917 13.7771C10.656 14.1614 10.2924 14.4183 9.88445 14.4197L9.64062 14.4207C9.80575 14.3461 9.7875 13.9514 9.89753 13.752C10.0414 13.3535 10.2288 12.9182 10.4667 12.5662C10.9104 11.8883 11.2682 11.7343 11.655 11.2592C12.0518 10.7715 12.496 9.92562 12.6708 8.355C12.6785 8.28499 12.7645 8.25506 12.8137 8.30527C13.0078 8.50468 13.1932 8.71422 13.3675 8.93246C13.3926 8.96384 13.4172 8.99522 13.4419 9.02661Z" fill="#DC4955"/>
<path d="M16.901 15.2021C16.8954 15.2125 16.8893 15.2233 16.8829 15.2343C16.64 15.648 16.1883 15.894 15.7086 15.894H15.4849L15.4853 15.8935C15.5027 15.8921 15.5201 15.8853 15.5346 15.8709C15.8228 15.5985 16.0575 15.2108 16.199 14.8338C16.2733 14.6397 16.3245 14.4557 16.3602 14.2983C16.3602 14.2978 16.3602 14.2978 16.3602 14.2973C16.3675 14.2645 16.3742 14.2322 16.3805 14.2022C16.3911 14.1501 16.4616 14.1404 16.4848 14.1882C16.5509 14.3229 16.6475 14.5325 16.7542 14.8024V14.8029C16.802 14.924 16.8517 15.0578 16.901 15.2021Z" fill="#DC4955"/>
<path d="M17.311 11.624H17.2974L17.2978 11.623C17.3022 11.6235 17.3066 11.624 17.311 11.624Z" fill="#F48931"/>
<path d="M13.023 0.114007C12.7565 2.51218 12.0781 3.80372 11.4717 4.54823C10.7036 5.37096 9.55927 6.32115 9.07887 7.61414L9.07838 7.61318C8.96709 7.86207 8.86532 8.12984 8.77488 8.39791L8.77421 8.3968C8.76035 8.43856 8.74746 8.48032 8.73317 8.52185C8.73326 8.52204 8.73336 8.52228 8.73346 8.52247C8.64959 8.78242 8.57727 9.04011 8.52073 9.27794C8.51011 9.33685 8.46134 9.36678 8.41064 9.37064V9.37113H8.74992C9.17591 9.37113 9.55227 9.0923 9.67443 8.68422C9.78581 8.31225 9.92617 7.87627 10.044 7.61318L10.0445 7.61414C10.5249 6.32115 11.6692 5.37096 12.4374 4.54823C12.9859 3.8747 13.5937 2.75359 13.9018 0.770161C13.6913 0.518128 13.4711 0.273821 13.2413 0.0382046C13.1664 -0.0385639 13.0351 0.00730404 13.023 0.114007Z" fill="#F48931"/>
<path d="M18.6884 9.04147C18.6266 9.35193 18.5343 9.68555 18.4112 10.0057C18.4055 10.0396 18.378 10.1104 18.3351 10.2034C18.3304 10.2135 18.3257 10.2237 18.3206 10.2343C18.3188 10.2381 18.3169 10.2421 18.315 10.246C18.2963 10.2854 18.2752 10.328 18.2521 10.373C18.2479 10.3812 18.2437 10.3894 18.2394 10.3978C17.9904 10.8794 17.5366 11.6095 17.3041 11.6125L17.2974 11.6246L17.3456 11.6239C17.9433 11.6163 18.5043 11.3326 18.8635 10.8548C19.0626 10.5899 19.2521 10.3166 19.3257 10.1471C19.1359 9.61989 18.8211 8.74116 18.6884 9.04147Z" fill="#F48931"/>
</g>
<defs>
<clipPath id="clip0">
<rect width="24" height="24" fill="white"/>
</clipPath>
</defs>
</svg>
