<svg width="24" height="24" viewBox="0 0 24 24" fill="none" xmlns="http://www.w3.org/2000/svg">
<path d="M23.5956 3.4988C23.5746 3.48886 21.4921 2.48175 21.4921 0.703125C21.4921 0.314812 21.1772 0 20.7889 0C20.4006 0 20.0858 0.314812 20.0858 0.703125C20.0858 2.48175 18.0033 3.48886 17.9842 3.49795C17.7365 3.61341 17.5781 3.86194 17.5781 4.13522C17.5781 4.4085 17.7365 4.65703 17.9842 4.77248C18.0052 4.78228 20.0858 5.77312 20.0858 7.56736C20.0858 7.92178 20.348 8.21494 20.6891 8.26345C20.6895 8.26364 20.6898 8.26359 20.6901 8.26364C20.6903 8.26355 20.6908 8.26373 20.6911 8.26378C20.6915 8.26383 20.6918 8.26388 20.6921 8.26392C20.6925 8.26397 20.6928 8.26397 20.6932 8.26406C20.6935 8.26406 20.6939 8.26411 20.6942 8.2642C20.6946 8.2642 20.6949 8.26425 20.6952 8.26434C20.6956 8.26439 20.6959 8.26453 20.6963 8.26448C20.6966 8.26458 20.697 8.26467 20.6973 8.26462C20.6976 8.26467 20.6978 8.26477 20.6983 8.26477C20.6987 8.26486 20.699 8.26491 20.6993 8.26491C20.7224 8.26786 20.7458 8.26964 20.7695 8.27025H20.7696C20.77 8.27039 20.7705 8.27034 20.7707 8.2703C20.7712 8.2703 20.7715 8.27034 20.7719 8.27034C20.7775 8.27048 20.7832 8.27053 20.7888 8.27053C20.8535 8.27053 20.9162 8.26177 20.9757 8.24545C20.9757 8.24541 20.9758 8.24541 20.9759 8.24541C20.9761 8.24531 20.9764 8.24522 20.9766 8.24517C20.9769 8.24503 20.9772 8.24498 20.9776 8.24494C20.9778 8.2448 20.9781 8.24475 20.9784 8.24466C20.9787 8.24456 20.9791 8.24452 20.9794 8.24437C21.2753 8.16136 21.492 7.88958 21.492 7.56741C21.492 5.78873 23.5745 4.78163 23.5936 4.77253C23.8406 4.65741 23.9978 4.40948 23.9986 4.137C23.9995 3.86438 23.8419 3.61547 23.5956 3.4988Z" fill="#FFA000"/>
<path d="M23.5927 19.2275C23.5717 19.2177 21.491 18.2269 21.491 16.4326C21.491 16.0443 21.1762 15.7295 20.7879 15.7295C20.3996 15.7295 20.0848 16.0443 20.0848 16.4326C20.0848 18.2113 18.0023 19.2184 17.9831 19.2275C17.7361 19.3426 17.579 19.5905 17.5781 19.8631C17.5773 20.1356 17.735 20.3845 17.9813 20.5011C18.0023 20.5111 20.0848 21.5181 20.0848 23.2968C20.0848 23.6512 20.347 23.9444 20.6881 23.9929C20.6884 23.993 20.6888 23.993 20.6891 23.993C20.6893 23.993 20.6897 23.9931 20.6901 23.9932C20.6905 23.9932 20.6908 23.9933 20.6911 23.9933C20.6914 23.9934 20.6918 23.9934 20.6921 23.9935C20.6925 23.9935 20.6928 23.9935 20.6932 23.9936C20.6936 23.9936 20.6939 23.9936 20.6942 23.9937C20.6945 23.9938 20.6949 23.9938 20.6952 23.9939C20.6956 23.9939 20.6959 23.994 20.6963 23.994C20.6966 23.9941 20.6968 23.9942 20.6973 23.9942C20.6977 23.9942 20.698 23.9944 20.6983 23.9943C20.7214 23.9973 20.7448 23.999 20.7684 23.9996H20.7685C20.769 23.9998 20.7694 23.9997 20.7697 23.9997C20.7701 23.9997 20.7705 23.9998 20.7709 23.9997C20.7765 23.9999 20.7822 23.9999 20.7878 23.9999C20.8525 23.9999 20.9152 23.9912 20.9746 23.9749C20.9747 23.9748 20.9748 23.9748 20.9748 23.9748C20.9751 23.9747 20.9754 23.9746 20.9756 23.9746C20.9759 23.9744 20.9761 23.9744 20.9765 23.9743C20.9768 23.9742 20.977 23.9741 20.9774 23.9741C20.9777 23.974 20.978 23.974 20.9784 23.9738C21.2742 23.8908 21.491 23.619 21.491 23.2968C21.491 21.5181 23.5735 20.5111 23.5926 20.502C23.8403 20.3865 23.9987 20.138 23.9987 19.8647C23.9987 19.5915 23.8403 19.3429 23.5927 19.2275Z" fill="#FFA000"/>
<path d="M6.01646 19.2283C5.99541 19.2184 3.91289 18.2113 3.91289 16.4326C3.91289 16.0443 3.59808 15.7295 3.20977 15.7295C2.82146 15.7295 2.50664 16.0443 2.50664 16.4326C2.50664 18.2113 0.424128 19.2184 0.405003 19.2275C0.158019 19.3426 0.000847119 19.5905 3.36933e-06 19.8631C-0.000840381 20.1356 0.156847 20.3845 0.403128 20.5011C0.424175 20.5111 2.50664 21.5181 2.50664 23.2968C2.50664 23.6512 2.76886 23.9444 3.10993 23.9928C3.11025 23.993 3.11063 23.993 3.11096 23.993C3.11128 23.993 3.11161 23.9931 3.11194 23.9932C3.11232 23.9932 3.11264 23.9933 3.11297 23.9933C3.1133 23.9934 3.11368 23.9934 3.114 23.9935C3.11433 23.9935 3.11471 23.9935 3.11503 23.9936C3.11536 23.9936 3.11564 23.9936 3.11607 23.9937C3.11639 23.9938 3.11672 23.9938 3.1171 23.9939C3.11743 23.9939 3.1178 23.994 3.11813 23.994C3.11846 23.9941 3.11874 23.9942 3.11916 23.9942C3.11953 23.9942 3.12 23.9944 3.12019 23.9943C3.14325 23.9973 3.16664 23.999 3.19032 23.9996H3.19041C3.19083 23.9998 3.1913 23.9997 3.19158 23.9997C3.192 23.9997 3.19238 23.9998 3.19275 23.9997C3.19838 23.9999 3.204 23.9999 3.20968 23.9999C3.27436 23.9999 3.33703 23.9912 3.39652 23.9748C3.39657 23.9748 3.39666 23.9748 3.39671 23.9748C3.39694 23.9747 3.39722 23.9746 3.39746 23.9746C3.39769 23.9744 3.39797 23.9744 3.39839 23.9743C3.39868 23.9742 3.39891 23.9741 3.39928 23.9741C3.39957 23.974 3.39989 23.974 3.40022 23.9738C3.6961 23.8908 3.91285 23.619 3.91285 23.2968C3.91285 21.5181 5.99532 20.5111 6.01449 20.502C6.26147 20.3868 6.41864 20.1389 6.41949 19.8664C6.42038 19.5939 6.26269 19.345 6.01646 19.2283Z" fill="#FFC800"/>
<path d="M6.01797 3.4988C5.99693 3.48886 3.91441 2.4818 3.91441 0.703125C3.91441 0.314812 3.5996 0 3.21129 0C2.82297 0 2.50816 0.314812 2.50816 0.703125C2.50816 2.4818 0.425691 3.48886 0.40652 3.49795C0.158832 3.61341 0.000488281 3.86194 0.000488281 4.13522C0.000488281 4.4085 0.158832 4.65703 0.40652 4.77248C0.42752 4.78228 2.50816 5.77312 2.50816 7.56736V7.56848C2.50872 7.92309 2.77183 8.2162 3.11355 8.26373H3.11369C3.11407 8.26378 3.11449 8.26378 3.11482 8.26392C3.11519 8.26392 3.11557 8.26406 3.11594 8.26406C3.11632 8.26411 3.11674 8.2642 3.11707 8.2642C3.11744 8.2643 3.11786 8.2643 3.11824 8.26439C3.11861 8.26439 3.11899 8.26444 3.11936 8.26453C3.11969 8.26453 3.12016 8.26463 3.12049 8.26467C3.12086 8.26463 3.12124 8.26481 3.12161 8.26481C3.12194 8.26514 3.12241 8.26495 3.12274 8.265C3.12307 8.26505 3.12349 8.26509 3.12386 8.26514C3.14622 8.26791 3.16886 8.26964 3.19183 8.2702H3.19193C3.19235 8.27025 3.19282 8.2703 3.1931 8.27025C3.19352 8.2703 3.19389 8.27025 3.19427 8.2703C3.19989 8.27044 3.20552 8.27048 3.21119 8.27048C3.27668 8.27048 3.34005 8.26153 3.40024 8.2448C3.40024 8.24475 3.40029 8.24475 3.40029 8.24475C3.40057 8.24466 3.40085 8.24461 3.40113 8.24452C3.40146 8.24433 3.40174 8.24438 3.40202 8.24423C3.40239 8.24428 3.40268 8.24409 3.40296 8.244C3.40329 8.24386 3.40361 8.24386 3.40389 8.24372C3.40413 8.24362 3.40441 8.24358 3.40469 8.24348C3.40469 8.24348 3.40474 8.24348 3.40479 8.24344C3.69911 8.15939 3.91436 7.88841 3.91436 7.56731C3.91436 5.78864 5.99688 4.78153 6.016 4.77244C6.26299 4.65731 6.42016 4.40939 6.421 4.13691C6.4219 3.86437 6.26421 3.61547 6.01797 3.4988Z" fill="#FFC800"/>
<path d="M12.0001 4.23438L12.8907 11.9215L12.0001 19.7653C7.71813 19.7653 4.23438 16.2816 4.23438 11.9996C4.23438 7.71756 7.71813 4.23438 12.0001 4.23438Z" fill="#FFE65A"/>
<path d="M19.7657 11.9996C19.7657 16.2816 16.282 19.7654 12 19.7654V4.23438C16.282 4.23438 19.7657 7.71766 19.7657 11.9996Z" fill="#FFC800"/>
<path d="M10.9966 9.83543C10.9474 10.0961 11.0069 10.3361 11.148 10.4471C11.3636 10.6159 11.6655 10.7739 11.9993 10.9196L12.5149 11.859L11.9993 12.4365C11.186 12.1262 10.6704 11.859 10.2804 11.5534C9.72208 11.1156 9.46708 10.3576 9.61427 9.5748C9.77505 8.72355 10.368 8.04574 11.1621 7.80668C11.1916 7.79777 11.2211 7.7898 11.2511 7.7823V7.40918C11.2511 7.02105 11.5657 6.70605 11.9543 6.70605C11.9693 6.70605 11.9843 6.70652 11.9993 6.70793L12.5462 7.79651L11.9993 9.07934C11.8666 9.08449 11.7222 9.10652 11.568 9.15293C11.2216 9.25746 11.0458 9.57387 10.9966 9.83543Z" fill="#FFC800"/>
<path d="M12 9.07941V6.70801C12.367 6.73098 12.6581 7.03613 12.6581 7.40926V7.79879C13.0659 7.88597 13.4578 8.02707 13.7869 8.178C14.2303 8.38097 14.3438 8.95941 14.0133 9.318C13.8005 9.54863 13.463 9.61472 13.1789 9.48113L12.952 9.37425C12.9338 9.35878 12.5766 9.05785 12 9.07941Z" fill="#FFA000"/>
<path d="M11.9506 14.8442C11.9674 14.8442 11.9838 14.8438 12.0002 14.8424L12.4221 15.7655L12.0002 17.292C11.9852 17.2929 11.9702 17.2934 11.9552 17.2934C11.5666 17.2934 11.2521 16.9789 11.2521 16.5903V16.2246C10.7182 16.1707 10.2851 16.0193 9.69821 15.6378C9.37992 15.4306 9.26883 15.005 9.46383 14.6787C9.67008 14.3337 10.1196 14.2329 10.4524 14.4509C11.0065 14.8133 11.2306 14.8499 11.9506 14.8442Z" fill="#FFC800"/>
<path d="M14.5997 14.0038C14.4998 14.5968 14.2013 15.1471 13.7592 15.5535C13.4414 15.846 13.0678 16.0494 12.6581 16.1582V16.5904C12.6581 16.964 12.367 17.2687 12 17.2921V14.8424C12.7139 14.8143 13.1283 14.2724 13.2127 13.7709C13.2558 13.5159 13.2727 12.8934 12.5044 12.6219C12.3244 12.5582 12.1566 12.4968 12 12.4368V10.9199C12.3113 11.0563 12.6506 11.182 12.9731 11.2959C14.1483 11.7112 14.8022 12.7996 14.5997 14.0038Z" fill="#FFA000"/>
</svg>
