<svg width="24" height="24" viewBox="0 0 24 24" fill="none" xmlns="http://www.w3.org/2000/svg">
<g clip-path="url(#clip0)">
<path d="M21.1874 16.027C20.5423 17.7753 19.5667 19.2955 18.2874 20.5448C16.8311 21.9668 14.9243 23.0967 12.6197 23.9028C12.5441 23.9291 12.4652 23.9507 12.3859 23.9667C12.2811 23.9874 12.1746 23.9985 12.0689 24H12.0482C11.9356 24 11.8225 23.9886 11.7102 23.9667C11.6309 23.9507 11.5531 23.9291 11.4778 23.9033C9.17053 23.0986 7.26129 21.9692 5.80359 20.5472C4.52368 19.2978 3.54827 17.7786 2.90411 16.0303C1.73278 12.8516 1.79943 9.34991 1.85308 6.53594L1.854 6.49273C1.8648 6.26037 1.87176 6.01629 1.8756 5.74676C1.8952 4.42345 2.94732 3.32866 4.27081 3.25487C7.03021 3.10088 9.16486 2.20092 10.9888 0.423144L11.0047 0.408496C11.3076 0.130725 11.6891 -0.005506 12.0689 0.000170293C12.4351 0.00493105 12.7999 0.140978 13.0919 0.408496L13.1075 0.423144C14.9318 2.20092 17.0664 3.10088 19.8258 3.25487C21.1493 3.32866 22.2014 4.42345 22.221 5.74676C22.2249 6.01812 22.2318 6.26183 22.2426 6.49273L22.2432 6.51104C22.2966 9.33031 22.3629 12.839 21.1874 16.027Z" fill="#00DD80"/>
<path d="M21.1868 16.0269C20.5418 17.7752 19.5662 19.2953 18.2868 20.5446C16.8306 21.9666 14.9237 23.0966 12.6191 23.9026C12.5435 23.929 12.4646 23.9506 12.3853 23.9665C12.2806 23.9872 12.174 23.9984 12.0684 23.9998V0C12.4346 0.00476076 12.7993 0.140808 13.0914 0.408325L13.1069 0.422974C14.9312 2.20075 17.0659 3.10071 19.8253 3.2547C21.1488 3.32849 22.2009 4.42328 22.2205 5.74659C22.2243 6.01795 22.2313 6.26166 22.2421 6.49256L22.2426 6.51087C22.2961 9.33015 22.3624 12.8388 21.1868 16.0269Z" fill="#00AA63"/>
<path d="M18.0297 11.9999C18.0297 15.2908 15.3577 17.9697 12.0695 17.9814H12.0484C8.75049 17.9814 6.06689 15.298 6.06689 11.9999C6.06689 8.70197 8.75049 6.01855 12.0484 6.01855H12.0695C15.3577 6.03027 18.0297 8.70911 18.0297 11.9999Z" fill="white"/>
<path d="M18.0286 11.9999C18.0286 15.2908 15.3566 17.9697 12.0684 17.9814V6.01855C15.3566 6.03027 18.0286 8.70911 18.0286 11.9999Z" fill="#E1EBF0"/>
<path d="M14.7622 11.1387L12.0684 13.8329L11.4863 14.415C11.3488 14.5525 11.1684 14.6211 10.9883 14.6211C10.8079 14.6211 10.6277 14.5525 10.49 14.415L9.23849 13.1629C8.96347 12.8879 8.96347 12.4424 9.23849 12.1672C9.51315 11.8921 9.9592 11.8921 10.2342 12.1672L10.9883 12.9212L13.7665 10.1429C14.0415 9.86772 14.4876 9.86772 14.7622 10.1429C15.0373 10.418 15.0373 10.864 14.7622 11.1387Z" fill="#B4D2D7"/>
<path d="M14.7622 11.1387L12.0684 13.8329V11.8409L13.7665 10.1429C14.0415 9.86772 14.4876 9.86772 14.7622 10.1429C15.0372 10.418 15.0372 10.864 14.7622 11.1387Z" fill="#6FA5AA"/>
</g>
<defs>
<clipPath id="clip0">
<rect width="24" height="24" fill="white"/>
</clipPath>
</defs>
</svg>
