<svg width="20" height="21" viewBox="0 0 20 21" fill="none" xmlns="http://www.w3.org/2000/svg"> <path d="M19.4629 8.69991C19.4623 8.69946 19.4618 8.69885 19.4614 8.69839L11.3021 0.539453C10.9543 0.191517 10.492 0 10.0001 0C9.50827 0 9.04589 0.191517 8.69795 0.539453L0.542983 8.69427C0.540236 8.69702 0.537337 8.69991 0.534742 8.70266C-0.179441 9.42097 -0.17822 10.5864 0.538252 11.3029C0.865586 11.6304 1.29776 11.8199 1.75999 11.8399C1.77892 11.8417 1.79784 11.8426 1.81692 11.8426H2.14196V17.847C2.14196 19.0353 3.10886 20.002 4.29718 20.002H7.48933C7.813 20.002 8.07533 19.7395 8.07533 19.416V14.7085C8.07533 14.1663 8.51651 13.7253 9.0587 13.7253H10.9415C11.4837 13.7253 11.9247 14.1663 11.9247 14.7085V19.416C11.9247 19.7395 12.1871 20.002 12.5107 20.002H15.7029C16.8914 20.002 17.8581 19.0353 17.8581 17.847V11.8426H18.1597C18.6513 11.8426 19.1137 11.6511 19.4618 11.303C20.1791 10.5855 20.1794 9.41791 19.4629 8.69991ZM18.633 10.4744C18.5065 10.6009 18.3384 10.6706 18.1597 10.6706H17.2721C16.9484 10.6706 16.6861 10.933 16.6861 11.2566V17.847C16.6861 18.389 16.2451 18.83 15.7029 18.83H13.0967V14.7085C13.0967 13.5202 12.13 12.5533 10.9415 12.5533H9.0587C7.87023 12.5533 6.90334 13.5202 6.90334 14.7085V18.83H4.29718C3.75513 18.83 3.31395 18.389 3.31395 17.847V11.2566C3.31395 10.933 3.05163 10.6706 2.72796 10.6706H1.85568C1.84652 10.67 1.83752 10.6696 1.82821 10.6694C1.65363 10.6664 1.48989 10.5971 1.36719 10.4742C1.10624 10.2133 1.10624 9.78859 1.36719 9.52748C1.36735 9.52748 1.36735 9.52733 1.3675 9.52718L1.36796 9.52672L9.52689 1.36809C9.65325 1.24158 9.82126 1.17199 10.0001 1.17199C10.1788 1.17199 10.3468 1.24158 10.4733 1.36809L18.6304 9.52504C18.6317 9.52626 18.633 9.52748 18.6343 9.5287C18.8938 9.79011 18.8934 10.2139 18.633 10.4744Z" fill="black"/> </svg>