<svg width="20" height="20" viewBox="0 0 20 20" fill="none" xmlns="http://www.w3.org/2000/svg">
<path d="M8.21218 16.4244C3.6639 16.4244 0 12.7605 0 8.21218C0 3.6639 3.6639 0 8.21218 0C12.7605 0 16.4244 3.6639 16.4244 8.21218C16.4244 12.7605 12.7605 16.4244 8.21218 16.4244ZM8.21218 1.26341C4.35877 1.26341 1.26341 4.35877 1.26341 8.21218C1.26341 12.0656 4.35877 15.161 8.21218 15.161C12.0656 15.161 15.161 12.0656 15.161 8.21218C15.161 4.35877 12.0656 1.26341 8.21218 1.26341Z" fill="black"/>
<path d="M14.3283 13.4341L20.001 19.1068L19.1078 20L13.4351 14.3273L14.3283 13.4341Z" fill="black"/>
</svg>
